<svg width="50" height="50" viewBox="0 0 50 50" fill="none" xmlns="http://www.w3.org/2000/svg"><path d="M44.85 43.96c-2.46-1.54-6.21-4.53-6.56-7.65-.01-.09.02-.17.07-.24.05-.07.13-.12.22-.14l.74-.14c.07-.01.14-.04.2-.09.05-.05.09-.12.1-.19.29-1.23.38-2.49.26-3.74-.02-.15.02-.29.1-.42 1.17-1.85-.23-2.62-.71-4-.29-.82-.53-1.66-.72-2.5a.32.32 0 0 1 .03-.19c.03-.06.09-.1.15-.12l.93-.29a.53.53 0 0 0 .35-.3c.54-1.06.04-1.7-1.06-2-2.81-.77-5.69-1.27-8.6-1.49l-3.48-.08c-.08 0-.16.01-.24.04-.07.03-.14.08-.19.14l-.21.24c-.06.07-.14.14-.23.18-.09.04-.19.06-.29.07l-6 .25-.23.01c-.18 0-.19-.03-.03-.09.03 0 .06-.02.09-.04 2.17-.91 4.42-1.61 6.73-2.12-2.31-.72-1.06-1.22.31-1.39 0-.29-.26-.61-.8-.94a.332.332 0 0 1-.16-.17.305.305 0 0 1 0-.23c.59-1.89.23-3.54-1.06-4.95-.12-.14-.11-.24.06-.32l.64-.33c.04-.01.07-.03.09-.06.03-.03.05-.06.06-.09.01-.04.02-.07.01-.11 0-.04-.02-.07-.04-.1l-.47-.96c-.1-.21-.03-.33.21-.34 4-.14 10.85 4.96 10.8 9 0 .08-.03.16-.09.22-.05.06-.13.11-.21.13-.21.04-.41-.21-.47-.29-.52-.63-1-2.45-1.34-3.15-.04-.08-.15-.31-.18-.3-.03.01.01.16.02.2.13.79.21 1.58.24 2.38.04.12.05.25.03.37-.02.13-.07.25-.14.35-.15.17-.37.19-.72.21-.44.04-.88.1-1.32.13-.57.03-1.15.1-1.71.19-.58.1-.91.16-.91.23 0 .16 1.65.06 3.71.46.79.15 5.67 1.15 6.42 1.37.31.09.44-.02.39-.33-.04-.24-.11-.47-.21-.68a1.92 1.92 0 0 0-.72-.8c-.16-.11-.34-.19-.52-.26a.565.565 0 0 1-.24-.16.568.568 0 0 1-.12-.26c-.04-.21-.09-.39-.15-.59-.1-.36-.22-.71-.38-1.04a8.55 8.55 0 0 0-1.36-2.16.236.236 0 0 1-.06-.09.36.36 0 0 1-.02-.11c0-.04.01-.07.03-.11a.55.55 0 0 1 .07-.09c2.42-2.61.18-8.19-1.57-10.61a.17.17 0 0 0-.06-.06.114.114 0 0 0-.08-.03c-.09-.02-.22.12-.27.17-.3.38-1.5 4.27-1.84 5.17-.14.4-.31.8-.49 1.19-.1.14-.18.29-.25.44-2.84-1.93-6.42-2.92-9.44-1.09a.3.3 0 0 0-.12.13c-.02.06-.03.12-.01.18l.11.62c.04.18-.03.25-.21.21-4.68-1.04-5.07-6.26-5.28-10.05 0-.02-.01-.05-.02-.07a.12.12 0 0 0-.05-.05c-.02-.02-.04-.03-.06-.04h-.06c-.02 0-.04.01-.06.02-.02.01-.03.03-.05.04a19.39 19.39 0 0 0-2.56 4.71c-.97 2.86-2 6.87-.71 9.89a5.954 5.954 0 0 0 2.63 2.91c.21.13.24.21.09.27-.05.02-.1.03-.15.03l-.54.07-.18.02a.43.43 0 0 0-.23.09c-.07.05-.12.12-.15.2l-.23.52-.03.07-.2.45c-.06.14-.15.26-.26.36l-.06.05-.53.47c-.04.03-.07.07-.1.11-.07.09-.11.19-.13.3l-.15.98-.3 1.98c-.01.07 0 .14.03.2a.4.4 0 0 0 .14.15c.36.22.78.34 1.2.37.03 0 .06.01.09.03.03.02.05.04.07.06.03.04.04.1.03.15-.01.05-.04.1-.08.13-.61.37-1.13.86-1.54 1.43-.49.66.26 1.06-.12 2.23-.2.48-.49.91-.86 1.27s-.81.65-1.3.84c-.05.02-.1.03-.15.04-.58.17-1.38.42-1.72 1.04-.3.54-.26 1.38.15 1.81.21.23.58.38.57.64a.42.42 0 0 1-.12.26c-.06.07-.14.13-.23.16s-.19.04-.28.03l-1.97-.31c-.04-.01-.08-.01-.12 0s-.08.03-.1.06c-.05.05-.08.12-.08.18 0 .07.03.13.08.18 4.61 4.57 9.64-2.91 12.15-5.81.61-.71 1.31-1.35 2.06-1.91.35-.26.72-.5 1.09-.73.53-.32 1.07-.6 1.63-.85l.91-.28c-.64.51-1.25 1.05-1.84 1.63 0 0-.43.43-.86.89-1.97 2.16-7.55 10.19-11.71 11.42-.86.29-1.79.34-2.68.14-1.12-.28-1.66-.92-1.76-.81-.2.21 1.2 2.83 3.17 2.99 1.07.09 2.06-.58 2.87 0 .18.12.32.3.39.51.18.65-.6 1.31-.7 1.4-.8.68-1.86.65-2.11.65-.55-.01-.83-.15-.86-.08-.07.15 1 1.09 2.27 1.14 1.31.04 1.77-.91 2.41-.63.82.35.2 1.95 1.46 3.47.33.39.72.71 1.16.97 1.45.9 3.08.93 3.13.76.04-.13-.78-.23-1.51-1-.44-.48-.75-1.08-.88-1.71-.04-.17-.17-.81.05-1.95.16-.84.46-1.66.89-2.41 1.97-3.01 4.6-5.45 6.53-9.07.06-.1.11-.1.16 0 .03.09.03.18 0 .27-.23 2.04-.82 3.73-1.78 5.08-.56.79-3.85 5.87-2.26 8.81.79 1.46 2.85 2.48 4.46 2.58.48.03 1.37 0 1.37-.06s-.61-.08-1.09-.23c-1.41-.43-2.06-2.11-2.48-3.19 0 0-.83-2.48-.05-4.94.01-.04.03-.07.06-.09.03-.02.07-.03.11-.03.04 0 .07.02.1.04s.04.06.05.1a7.88 7.88 0 0 0 1.38 3.73c.82 1.1 1.9 1.99 3.15 2.59.6.3.97.39.99.35.02-.04-.49-.24-.73-.75-.07-.17-.11-.34-.12-.52 0 0-.04-.44.12-.64.01-.02.03-.03.05-.04.02-.01.04-.01.07 0l.06.03c2.22 2.15 4.93 3.23 8.14 3.23-1.97-.79-3.57-2.26-4.47-4.14-.02-.03-.02-.06-.02-.1 0-.03.01-.07.04-.09a.21.21 0 0 1 .13-.07c.05-.01.1.01.14.04.08.06.7.39 1.95 1.04.66.34 1.38.56 2.12.65.69.08 1.22.02 1.22-.04.01-.06-.37-.06-.68-.35-.06-.05-.35-.33-.27-.59.03-.07.08-.13.13-.18.06-.05.13-.09.2-.11.46-.15.88.42 1.5.77 1.23.68 2.76.23 2.78.05.01-.15-.99-.21-1.21-.81a.57.57 0 0 1-.04-.22c0-.08.03-.15.06-.22.13-.18.45-.17.82-.12.77.1 1.12.28 1.62.4.6.16 1.24.19 1.85.09.4-.05.79-.19 1.13-.39.35-.21.64-.48.87-.81a.21.21 0 0 0 .04-.11.313.313 0 0 0-.06-.22.682.682 0 0 0-.07-.05zM33.2 10.14l1.28-4.11c.01-.03.03-.06.06-.08.03-.02.06-.03.09-.04.03 0 .07 0 .1.02s.05.04.07.07c.35.61.6 1.26.76 1.94.36 1.59.39 2.11.09 2.56-.05.08-.18.27-.34.27-.23 0-.46-.38-.54-.7-.04-.17-.03-.26-.07-.28-.11-.03-.43.5-.54.97-.18.75.12 1.44.36 1.86-.04.05-.43-.19-.55-.27-.12-.08-.86-.59-.91-1.46-.02-.26.03-.52.14-.75zM11.28 32.92c-.43 0-1.2-.12-2.14-1.07 1.14.41 1.93.3 2.42.15 1.81-.57 2.57-2.73 4.77-4.87.83-.83 1.95-1.32 3.13-1.37-.83.31-1.59.77-2.25 1.35-.53.49-.98 1.05-1.35 1.67-1.05 1.58-2.73 4.1-4.58 4.14zm3.2-23.05c-.04.02-.04.1-.05.13-.14 2.36.88 3.81.88 3.81.23.33.5.64.79.91 1.02 1 2 1.36 1.97 1.43-.03.07-1.64-.13-2.84-1.09-3.73-2.96-.68-10.62.06-11.51.11-.13.18-.13.21-.13.33.03.42 1.33.82 4.17 0 0 .16 1.1 1.28 3.27.03.06.08.14.17.16.04 0 .08-.01.12-.02a.36.36 0 0 0 .1-.07l.23-.23c.05-.06.12-.1.19-.11.07-.02.15-.01.22.03 1.46.59 2.92 1.15 4.39 1.68.17.06.32.18.43.33.31.41.51.9.58 1.4.08.51.03 1.02-.15 1.51-.05.17-.13.18-.25.05l-.86-.97a.652.652 0 0 0-.4-.21c-4.79-.75-6-1.72-6-1.72-1.28-1.04-1.68-2.9-1.89-2.82zm-1.5 33.08c-.13-.11 1.76-1.8 4.28-5.82.87-1.39 1.2-2.09 3.24-5.48.72-1.2 1.32-2.19 1.73-2.85.15-.27.33-.58.4-.56.19.07-.8 3.04-1.05 3.74-2.24 6.34-8.38 11.17-8.6 10.97zm22.2-13.25c.38-.58.96-.75 1.76-.52.04.02.09.02.14 0 .04-.02.08-.05.1-.09.02-.04.03-.09.01-.13a.21.21 0 0 0-.08-.11l-.43-.33a.374.374 0 0 1-.13-.15.433.433 0 0 1-.04-.19l.04-2.6c0-.08.03-.15.08-.21.05-.05.13-.08.2-.08.08 0 .15.03.2.08l.54.52c.12.11.19.26.2.42.17 1.19.59 2.34 1.22 3.37.04.06.06.13.05.21s-.03.14-.07.2c-.04.06-.1.11-.17.13-.07.03-.15.03-.22.02-.99-.21-2.02-.22-3.02-.02a.42.42 0 0 1-.27-.04.398.398 0 0 1-.16-.22c0-.09.01-.18.05-.26zm-5.22-2.74c.05-.22 2.93-.4 3.71.97.18.34.26.72.21 1.1-.02.24-.12.59-.87 1.44-.69.78-1.52 1.52-1.6 1.45-.02-.02.03-.1.48-.81.24-.34.43-.7.59-1.07.13-.25.15-.55.07-.82a.768.768 0 0 0-.1-.18c-.29-.37-.62-.69-.99-.98-.35-.3-.73-.58-1.11-.84-.32-.2-.4-.22-.39-.26zm-4.83 8.97c.2-.68.32-1.38.34-2.09.07-.72 0-1.45-.21-2.15-.23-.72-.49-.99-.63-1.8a6.19 6.19 0 0 1 0-1.49c.05-.64.29-1.25.67-1.77.24-.33.54-.62.89-.85.35-.25.73-.45 1.13-.61-.22.32-.41.65-.56 1-.17.4-.28.82-.32 1.25-.09.89.12 1.7.44 2.54.53 1.36.72 1.25 1.01 2.18.55 1.77.09 3.34.04 3.34-.01-.26-.09-.51-.23-.73-.04-.06-.25-.31-.43-.27-.18.04-.21.27-.25.35-.26.86-1.01 1.8-1.23 2.07-.48.59-1.19 1.08-1.35.95-.15-.09.35-.78.69-1.92zm-1.39 4.49c-.02-.06-.09-.24-.05-.27.05-.03.17.1.24.18.38.23.81.35 1.25.34.37 0 1.16-.13 1.23-.51.05-.25-.21-.58-.51-.68-.41-.13-.78.19-.86.08-.08-.11.14-.39.39-.58.28-.2.63-.31.98-.3.3.03.6.01.9-.07 1.5-.4 1.77-2.07 3.71-4.31.5-.58 1.09-1.08 1.75-1.48.27-.16.56-.3.86-.42v-.01c.16-.06.28-.17.36-.31l.18-.32a.484.484 0 0 1 .31-.25c.04-.01.08-.02.13-.02 1.6-.07 3.64-.48 4 1.17a.903.903 0 0 1-.54.99c-.13.05-.26.08-.4.08h-.08c-.68-.1-1.37-.1-2.05.01-1.15.2-2.2.79-2.94 1.67-1.36 1.46-1.39 2.36-3.07 4.66-.86 1.18-1.5 1.82-2.43 2.1a2.8 2.8 0 0 1-1.67.03c-.39-.16-.75-.4-1.04-.71s-.51-.67-.65-1.06v-.01zm14.17 2.56c-.86-.66-1.67-1.92-2.45-1.97a.565.565 0 0 0-.26.02.51.51 0 0 0-.23.12c-.06.08-.09.18-.11.28-.01.1-.01.2.03.29.02.09.09.37.69.95.44.42.76.75 1.3.96.28.11.49.14.48.21 0 .13-.73.28-1.41.21-.44-.03-.86-.17-1.22-.4-.87-.58-.89-1.49-1.53-1.58a.528.528 0 0 0-.25 0c-.08.02-.16.05-.22.1-.1.1-.15.23-.15.37-.05.72.75 1.33.79 1.37.33.25.55.27.53.33-.03.13-1.33.26-1.93-.39-.34-.32-.62-.69-.83-1.11a.498.498 0 0 0-.15-.17.528.528 0 0 0-.22-.08l-.54-.08c-.21-.02-.26-.13-.13-.3 1.37-1.86 2.22-4.43 4.11-5.61.41-.26.86-.45 1.33-.56.02-.01.05-.01.08-.01.29-.06.58-.09.87-.1.09 0 .17.03.24.09.07.06.11.13.12.22 0 .05.01.11.02.16.03.83.21 2.92 1.56 4.75.46.66 1.04 1.23 1.71 1.68 1.03.68 1.82.75 1.79.9-.05.22-2.42.59-4.03-.64v-.01z" fill="#363636"/></svg>