<?xml version="1.0" encoding="UTF-8"?><!DOCTYPE svg PUBLIC "-//W3C//DTD SVG 1.1//EN" "http://www.w3.org/Graphics/SVG/1.1/DTD/svg11.dtd"><svg xmlns="http://www.w3.org/2000/svg" xmlns:xlink="http://www.w3.org/1999/xlink"><symbol id="icon-earth" viewBox="0 0 22 22"><g fill="none"><path d="M11 21.453a10.387 10.387 0 0 1-7.392-3.061A10.387 10.387 0 0 1 .547 11c0-2.792 1.087-5.417 3.061-7.392A10.387 10.387 0 0 1 11 .547c2.792 0 5.417 1.087 7.391 3.062A10.386 10.386 0 0 1 21.453 11c0 2.792-1.087 5.417-3.061 7.392A10.384 10.384 0 0 1 11 21.453ZM11 .922C5.443.922.922 5.443.922 11c0 5.557 4.521 10.078 10.078 10.078 5.557 0 10.078-4.521 10.078-10.078C21.078 5.443 16.557.922 11 .922Z" fill="currentColor"/><path fill-rule="evenodd" clip-rule="evenodd" d="M20.198 8.627c-.087-.43-.494-.74-.563-1.146-.028-.164.04-.293.04-.458.068.092.091.077.152.209.01-.159.16-.255.173-.393.022-.225-.133-.536-.223-.737-.173-.384-.479-.739-.694-1.06-.081-.122-.136-.208-.215-.312-.087-.114-.236-.236-.29-.324-.078-.126-.274-.575-.486-.567.082-.047-.244-.244-.243-.257-.016-.11-.501-.512-.605-.502.12-.224-1.967-1.25-2.307-1.4-.416-.184-.83-.305-1.271-.432-.267-.078-.658-.24-.929-.19.065.033.02.031-.043.036.023.007.043.02.06.036a1 1 0 0 0-.274-.01l.02.03c-.07-.003-.432-.187-.283.002.023.03.15.11.192.085-.062.06-.625-.104-.711-.109.022.016.197.086.21.075-.1.092-.438-.003-.554.006-.096.007-.236.072-.303.078-.07.005-.327-.03-.055-.043-.195-.16-.16.063-.2.077-.097.037-.244-.024-.331.048.002-.002.034.054.035.055-.118-.002-.21-.033-.322-.009.077-.01.111.006.103.048-.075.014-.144-.02-.217-.02.009-.05-.065-.162-.073-.144.002-.003.484.052.54.024.2-.1-.37-.141-.488-.154a2.142 2.142 0 0 0-.547.003c-.092.014-.874.18-.833.254-.1-.033-.342.122-.429.153-.13.046-.28.07-.42.12-.085.03-.414.19-.43.29 0-.01.646-.085.72-.096a2.29 2.29 0 0 0-.172.2c0 .061.228-.141.192-.126a.066.066 0 0 0-.054-.014c.085-.088.246-.133.352-.194a3.1 3.1 0 0 1 .487-.224c.032-.013.526-.227.455-.092-.154-.002-.663.155-.417.3.102.06.52-.133.515.01.001-.03-.2.094-.203.094-.055.023-.286-.019-.38-.008a.297.297 0 0 0 .044.105c-.022-.013-.24.063-.254.11.004-.016.008-.03-.015-.041-.006-.004-.024.092-.035.097 0-.089-.028-.064-.078-.133 0 .054-.236.243-.16.257-.079.039-.24.026-.3.04-.136.03-.362-.006-.494.107-.069-.167-.303.087-.227-.126-.002.008.222-.154.22-.195-.2.048-.386.268-.57.349-.132.059-.246.118-.371.187-.085.046-.301.087-.392.16.004-.094.206-.132.196-.195-.003-.023-.043-.024-.059-.03.074-.028.068-.114.107-.17.081-.117.097-.102.23-.204-.178-.044-.302.068-.443.23-.019.02.031.022.017.037-.118.132-.051.042-.166.124-.089.064-.3.132-.197.202a.717.717 0 0 0-.242.124c.178-.006.36-.107.537-.117-.056.068-.769.336-.743.383.037.066.052.04.018.146a.697.697 0 0 1-.255.333c-.166.094-.323.01-.502.078-.171.066-.249.257-.377.397-.121.133-.33.298-.351.488.117-.048.143-.001.113.096.514-.023.69-.541 1.058-.765.062-.038.135-.013.203-.06.138-.094.14-.245.316-.292-.047.013.158.05.12.058.104-.02.173-.069.273-.098.066-.02.115-.102.192-.073.133.047-.028.05.033.149.055.088.109.158.164.218.024.026.074.041.091.068.04.058.157.16.062.253.125.095.098-.179.1-.193-.02-.013.216.01.227.011.116.024-.232-.204-.223-.2 0 0-.092-.207-.098-.256-.014-.108-.068-.083.026-.194.03-.036.152-.075.18-.037-.02.023-.043.025-.031.076.045-.017.066-.023.11-.038-.035.173.015.128.092.182-.075.023.126.105.162.164.077.125-.011.105-.016.269-.003.1.105.182.115.258.003.023-.079.156-.034.202-.032-.033.362.073.171.023.012-.042.037-.267-.007-.238.132-.087.1.123.245-.056-.261 0-.037-.087-.152-.142-.057-.012.179-.092.217-.108.073-.03.235-.024.308-.032.04-.004.382-.108.389-.065-.018-.084-.105-.051-.08-.174.013-.066.068-.091.13-.155.085-.089.193-.174.3-.248.228-.156.196-.09.435-.062-.357.156.558.205.18-.005.18-.062.409-.076.579-.145-.054.037-.133.05-.097.139-.044.006-.111.067-.177.1.112.113.665.239.545.447-.128.223-.649.054-.83.016-.186-.038-.342-.016-.534.018-.1.017-.232.024-.32.047-.085.022-.093.082-.24.113-.19.042-.32-.036-.312.206.002-.01.044-.159.079-.105.058.087-.077.26-.019.337.159.206.467.066.674.092.01.001.026.04.078.039.047 0 .139-.039.176-.044.088-.015.24-.017.354-.054-.024.071-.004.065-.056.085.104.087-.13.383-.17.453-.089.15-.1.274-.264.345-.167.071-.273-.05-.408-.052-.195-.004-.286.11-.482.09-.163-.019-.352-.062-.493-.092-.165-.035-.66-.353-.715.034.02-.025.031-.028.035-.007-.08-.01-.047.115-.081.14-.133.101-.113.06-.244.052-.074-.004-.495-.125-.352-.27-.125-.04-.355-.027-.45-.116-.166-.157-.067-.038-.006-.196.027-.068.088-.095.108-.172.022-.083.011-.131.011-.213-.152-.012-.361.097-.528.114-.16.016-.3-.004-.467.06-.175.067-.542.44-.652.157-.123.072-.191.212-.301.304-.145.122-.288.196-.398.364-.055.084-.117.22-.172.294-.106.14-.267.216-.387.345-.238.254-.56.692-.678 1.019-.086.24-.115.504-.2.747-.11.313-.226.615-.236.926-.006.186.038.504.08.74.023.14.136.351.221.49.057.094.265.3.304.079-.021-.033.347-.016.345-.016.2-.012.343-.08.469-.213.029-.031.217-.06.274-.059.054.003.143.001.188.029.057.032.091.257.172.162 0 .031-.037.149.004.167.05.022.266-.024.284-.065.056.062.093.194.187.176a2.02 2.02 0 0 1-.033.607c-.012.06-.096.451-.061.438.112.091.193.33.295.477.107.154.2.376.27.556.093.24.095.414.171.643.024.073.066.107.082.182.031.156-.073.272-.097.37-.132.532-.006 1.15.43 1.481a.41.41 0 0 1-.036.02c.229.124.265.508.365.724.107.229.183.35.364.53.113.112.215.324.343.44.055.051.143.07.18.119.05.061.165.285 0 .157-.02 0 .11.192.111.193l.014-.034a.08.08 0 0 1 .021.054c.027-.057.027-.016.033.014-.002-.008.036-.059.066-.053.005 0 .067.111.103.115.121.015.188-.08.257-.127.022.086.048-.077.056-.103.064.037.063.157.007.037 0 .175.095.047.128.119a.08.08 0 0 1 .026-.049c.06.21.725-.087.71-.293-.004-.051.04.073.026.028.078-.143.247-.23.247-.41.047-.035.117-.025.166-.132.095-.208-.039-.373.15-.53.177-.146.307-.061.284-.372-.015-.22-.213-.395-.12-.595.045-.098.203-.231.258-.277.141-.122.432-.187.588-.35.244-.253.158-.822.039-1.115-.02-.047-.105-.067-.13-.119-.044-.095-.06-.293-.079-.401-.004-.029-.026-.407-.135-.264.078-.164.116-.368.194-.531.113-.233.254-.363.426-.555.202-.222.363-.45.623-.602.159-.093.302-.203.411-.314.228-.233.307-.433.428-.692.113-.242.288-.438.346-.687.02-.082.083-.24-.014-.286-.05-.024-.23.09-.31.11-.134.033-.312.036-.432.06-.075.014-.255.078-.36.084-.172.01-.419-.066-.484-.243.007.02.102-.084.09-.149 0 0-.196-.186-.211-.203-.135-.149-.321-.212-.446-.346-.115-.123-.038-.137-.126-.332-.061-.135-.16-.148-.234-.256-.084-.122-.038-.221-.06-.352-.029-.17-.075-.203-.168-.351-.11-.175-.16-.399-.258-.61-.055-.119-.28-.53-.21-.628.01.094.132.208.179.282.026-.048.144-.222.212-.204.043.047-.067.142-.047.182.017.034.097.068.128.115.11.165.165.367.279.53.086.124.225.165.261.35.034.168-.018.184.1.335.173.221.428.488.515.743.056.163.026.349.1.526.045.104.086.154.115.216.022.047 1.27-.434 1.343-.458.183-.06.187-.173.316-.287.123-.11.368-.085.488-.141a.13.13 0 0 1 .059-.111.466.466 0 0 1 .134-.02c.051-.04.047-.095.101-.137.076-.058.136-.025.177-.098.03-.053-.083-.2.059-.215a.052.052 0 0 0 .006.035c.165-.209.355-.422-.008-.592-.102-.048-.163-.016-.253-.07-.102-.063-.096-.154-.184-.226-.083-.068.004-.065-.13-.01-.185.078-.215.206-.448.201-.136-.003-.204.053-.271-.079-.022-.044.036-.17-.007-.22-.104-.12-.097.18-.097.177-.111-.046-.093-.19-.145-.264-.077-.109-.186-.16-.267-.266-.146-.19-.02-.257-.06-.338.108.027.195-.089.315-.034.014.006.128.181.145.202.172.207.388.356.669.386.097.01.31-.086.374-.053.073.038.176.418.354.225-.037.062.759.106.771.124.069-.06.282-.063.381-.06.169.005.115.009.246.097.066.045.142.139.179.175.037.035.073.015.098.034.051.04.044.106.115.144.054.029.215-.017.232.044-.57.114.452.612.37.167.177.887.64 1.48.965 2.291.05.126.107.327.244.267.022-.01.159-.218.175-.247.088-.158.127-.399.13-.613 0-.06-.043-.206-.057-.272-.014-.062-.059-.142-.042-.21.055-.221.027-.015.099-.105.07-.09.19-.183.274-.315.063-.098.096-.232.158-.321.055-.08.106-.025.176-.129.108-.16-.082-.152.079-.263.036-.025.122.032.12.032.13-.039.23-.02.184-.189.136.011.433.494.519.622a.707.707 0 0 1 .108.252c.028.091.044.328.115.374.156.103.14-.068.24-.116.118.03.318.707.354.841.056.21-.01.413.047.622.043.157.174.29.23.452.056.164.065.341.122.506.023.068.094.203.141.257-.034.022.117.252.18.11.038-.081-.113-.61-.148-.692-.082-.188-.21-.285-.293-.475a1.724 1.724 0 0 1-.16-.705c-.002-.064-.032-.189-.016-.248.045-.161.009-.075.1-.034.02.008.174.198.188.217.042.058.192.589.282.605.137.024.202-.655.19-.716.017.088-.016-.077 0 0ZM9.53 1.685c.073-.121.147.02.22.007a.19.19 0 0 1-.22-.007c.076.054.005-.009 0 0Zm1.54 8.276c.002-.015.04.01.025.036-.032-.005-.04-.017-.026-.036 0-.003-.001.007 0 0ZM9.75 8.2l.038.12c-.074-.063-.086-.103-.038-.12.018.038-.003.004 0 0Zm2.435-3.954a.455.455 0 0 1-.506.117c-.073-.027-.205-.06-.267-.101-.08-.055-.059-.043-.114-.122-.047-.068-.085-.183-.132-.272.107-.052.19.004.295-.068-.128-.04-.518-.36-.562-.466-.054-.13.073-.136-.008-.245.179-.08.414-.16.576-.201.107-.028.164-.034.334.03.13.049.14.004.229.132-.024-.034.058.16.056.116.002.047-.271.054-.31.079h.1c-.066.1-.283-.058-.372.005a.29.29 0 0 0-.02.05c.114.02.175.156.309.184 0 .098-.017.103.05.181.154-.287.24.13.268.102-.039.039-.21-.038-.237.018-.02.04.103.091.126.127.05.08.084.238.185.334ZM17.69 6.77c.005-.029.022-.043.05-.043-.017.015-.033.03-.05.043.011-.014-.003-.012 0 0Z" fill="currentColor"/><path fill-rule="evenodd" clip-rule="evenodd" d="M20.137 12.049c.008-.035.127-.772.04-.745-.051.017.015.14 0 .172-.136-.058-.138-.353-.17-.45-.046-.137-.07-.178-.135-.296-.088-.159-.208-.304-.328-.495-.325-.512-.448.063-.15.078-.063.003-.005.077.02.078-.094.005.12.231.14.278.06.145.147.454.172.556.037.15.127.824.411.824.01-.045-.015 0 0 0ZM20.909 10.762c-.001-.113-.034-.992-.12-.986-.02.001-.122.583-.13.61-.07.236-.21.284-.243.494-.016.104.087.865.247.696.206.403.25-.811.246-.814.037.024 0-.063 0 0ZM14.492 20.436c-.068-.038-.52.11-.605.122-.206.032-.42.048-.623.096-.332.08-.684.236-1.02.236.023-.017.025-.035.005-.053.003-.014.153-.025.173-.064-.45 0-.93-.08-1.312-.013-.25.044-.53.076-.795.077-.323 0-.632.041-.962.004-.266-.029-.713-.165-.96-.097.063-.017.555.163.706.188.194.034.392.066.587.095.49.073 1.005.093 1.486.08a11.66 11.66 0 0 0 1.589-.139 9.42 9.42 0 0 0 1.006-.239c.202-.057.724-.12.85-.29a.29.29 0 0 1-.126-.003c.033.018-.052-.03 0 0Zm-2.372.536a.07.07 0 0 0-.01.005c.003-.008.007-.008.01-.005Zm-.122-.008.008-.002c-.002.003-.004.005-.008.002ZM20.588 12.421c-.08-.025.03-.097.026-.122-.019-.106-.22-.016-.279-.031-.03-.008-.204-.311-.228-.027-.01.108.29.286.363.292.084.006.28-.058.119-.112.015.005-.003 0 0 0ZM20.615 12.567c.018-.018.027.021 0 0 .003-.003.004.004 0 0ZM11.35 1.108c.034-.05.255.1.267.01a.771.771 0 0 0-.134-.034c.02-.085.143-.094.214-.096-.167-.065-.304.109-.447.084.035.007.068.02.1.036.032-.046-.02-.034 0 0ZM11.175 1.207c.042.001.057-.011.046-.038-.03 0-.119-.016-.133.025.027.019.056.023.088.013.015 0-.03-.002 0 0ZM5.641 2.763c.135-.058.501-.203.561-.35-.132-.194-.56.41-.622.347.02.02.04.02.061.003.05-.021-.01.005 0 0ZM10.372 15.362c.008.07.092.143.07.227.025-.004.043.002.056.02-.117.059.205.297.418.184.187-.098.23-.315.301-.508.126-.34.443-.934.304-1.234.186-.007.176.037.116-.232-.015-.067-.031-.343-.123-.373-.098-.032-.233.25-.297.324-.05.059-.07.129-.108.17-.124.13-.422.149-.56.304-.188.21.004.428-.029.656-.025.188-.168.273-.148.462 0 .002-.003-.025 0 0Zm.258.21c-.007.014.004.015 0 0-.001.003 0 .003 0 0Zm-.046.01.003-.004c0 .003-.002.003-.003.003Zm.222-.788c.007.014.008-.01 0 0 .001-.002.001.002 0 0Zm-.063.95c.005.006.012-.001 0 0 .002.002.003 0 0 0Zm.055-.15c.003.03.007.006 0 0 0 .004.002.002 0 0Zm.034.027c0 .063.02.012 0 0 0 .01.005.003 0 0Zm.06-.805c-.033-.003 0 .01 0 0-.003 0 0 .002 0 0Zm-.044.005c-.015-.067-.013-.001 0 0-.003 0-.002-.01 0 0Zm-.213-.094-.001-.002v.002ZM17.221 9.297c-.18-.405-.212.224-.162.355.05.134.118.26.263.102.13-.142-.039-.316-.1-.457.033.076-.02-.044 0 0ZM4.167 10.262c-.055.018-.08.05-.073.098.055.08.072-.08.073-.098-.001.038-.031.02 0 0ZM2.806 10.07c-.017.03.015.015 0 0-.003.003.002.001 0 0ZM8.672 2.04l-.002.003.002-.003ZM8.677 2.031c-.003-.001-.005.002-.006.006.002 0 .004-.003.006-.006ZM6.13 4.295c-.029.05.125.108.163.113.094.014.187-.158.172-.16-.072-.01-.3-.01-.334.047.008-.013-.013.022 0 0ZM7.785 4.58c-.12.025-.236-.055-.36-.013a.393.393 0 0 0 .202.09c.076.005.222-.09.158-.077.019-.003-.01.002 0 0ZM5.974 3.788c.086.053.215-.059.144-.099-.074-.04-.13.107-.144.1.017.01 0-.001 0 0ZM8.845 4.642a.125.125 0 0 0 .104-.063c.004-.059-.175.006-.194.016.014.041.044.057.09.047.02-.006-.028-.003 0 0ZM5.777 4.13c.03-.027.144-.034.195-.138.026-.053.105-.172-.032-.1-.095.05-.07.155-.163.237.043-.038-.005.004 0 0ZM5.247 4.145c.003-.038.048-.082-.06-.026.011.011.056.073.06.026 0-.006-.002.022 0 0ZM9.557 3.227c.061-.044-.048-.039-.056-.024-.015.026.05.028.056.024.008-.006-.004.003 0 0ZM6.063 3.853c-.037-.02.009.005 0 0-.005-.003 0 0 0 0ZM11.008 10.355c-.023-.03-.018.02 0 0-.002-.004-.001.002 0 0Z" fill="currentColor"/><path d="M20.443 14.35c-.215.002-.622.304-.732.466-.234.345-.23.86-.326 1.253-.03.124-.285.57-.219.64.143.148.29-.138.334-.207.442-.68.801-1.414 1.067-2.181a55.5 55.5 0 0 1-.124.03c.045-.001-.02 0 0 0Z" fill="currentColor"/></g></symbol><symbol id="icon-email" viewBox="0 0 21 15"><g fill="none"><path d="m14.293 8.371 4.31 3.572.583.502a4.79 4.79 0 0 0 .91-2.815V5.536c0-.512-.101-.993-.245-1.454l-.46.338-5.097 3.961v-.01ZM1.786 3.192 8.07 8.084a3.334 3.334 0 0 0 4.084 0l6.305-4.902.686-.502a4.826 4.826 0 0 0-3.92-2.016H5a4.816 4.816 0 0 0-3.88 1.965l.676.563h-.01ZM17.61 13.11l-4.565-3.787a4.88 4.88 0 0 1-2.928.993 4.91 4.91 0 0 1-2.937-.993l-5.077 4.186a4.805 4.805 0 0 0 2.886.973h10.236a4.816 4.816 0 0 0 2.866-.952l-.481-.42ZM.823 4.39l-.43-.359a4.82 4.82 0 0 0-.255 1.495V9.62c0 1.044.337 2.006.9 2.804l.594-.48L5.931 8.37.813 4.39h.01Z" fill="currentColor"/></g></symbol><symbol id="icon-error" viewBox="0 0 9 9"><g fill="none"><path d="m1 1 3.5 3.5M8 8 4.5 4.5m0 0L8 1 1 8" stroke="currentColor" stroke-width="2"/></g></symbol><symbol id="icon-loader" viewBox="0 0 16 16"><g fill="none"><path d="M6.667 0a1.333 1.333 0 1 0 0 2.667 1.333 1.333 0 0 0 0-2.667Zm4.889.889a1.778 1.778 0 1 0 0 3.556 1.778 1.778 0 0 0 0-3.556ZM2.222 2.667a1.333 1.333 0 1 0 0 2.666 1.333 1.333 0 0 0 0-2.666Zm11.556 3.555a2.222 2.222 0 1 0 0 4.445 2.222 2.222 0 0 0 0-4.445Zm-12.445.89a1.333 1.333 0 1 0 0 2.666 1.333 1.333 0 0 0 0-2.667Zm1.334 5.332a.889.889 0 1 0 0 1.778.889.889 0 0 0 0-1.778Zm8.889 0a.889.889 0 1 0 0 1.778.889.889 0 0 0 0-1.778ZM7.11 14.222a.889.889 0 1 0 0 1.778.889.889 0 0 0 0-1.778Z" fill="currentColor"/></g></symbol><symbol id="icon-okay" viewBox="0 0 14 10"><g fill="none"><path d="M1 3.5 5.5 8l7-7" stroke="currentColor" stroke-width="2"/></g></symbol><symbol id="icon-telegram" viewBox="0 0 17 15"><g fill="none"><path d="M15.732.454c-.266-.226-.684-.258-1.116-.084C14.16.552 1.748 5.876 1.243 6.093c-.092.032-.895.332-.812.999.074.601.719.85.797.88l3.156 1.08c.21.696.981 3.268 1.152 3.817.106.342.28.792.584.885.267.103.532.009.704-.126l1.929-1.79 3.114 2.43.074.044a1.5 1.5 0 0 0 .608.14c.15 0 .293-.028.43-.084.466-.192.653-.636.672-.687L15.98 1.59c.141-.646-.056-.974-.247-1.136Zm-8.564 9.03-1.065 2.838L5.04 8.774l8.16-6.032-6.031 6.742Z" fill="currentColor"/></g></symbol><symbol id="icon-whatsapp" viewBox="0 0 18 18"><g fill="none"><path d="M14.703 3.025A8.404 8.404 0 0 0 8.025.58C4.638.852 1.67 3.208.676 6.457c-.71 2.322-.411 4.746.744 6.748L.325 16.84a.466.466 0 0 0 .566.584l3.806-1.02a8.433 8.433 0 0 0 4.032 1.027h.003c3.544 0 6.819-2.168 7.952-5.526 1.103-3.274.287-6.609-1.981-8.88Zm-1.841 8.977c-.176.493-1.037.968-1.424 1.002-.387.036-.75.175-2.53-.527-2.143-.845-3.497-3.042-3.601-3.182-.106-.141-.861-1.143-.861-2.18 0-1.038.545-1.548.738-1.759a.774.774 0 0 1 .563-.263c.14 0 .281 0 .404.005.15.006.316.013.474.364.188.417.598 1.46.65 1.565.052.106.088.23.018.37-.07.14-.106.228-.21.351-.106.123-.222.275-.317.37-.105.104-.215.219-.093.43.124.21.546.9 1.173 1.459.806.718 1.484.94 1.696 1.047.21.105.333.088.457-.053.123-.14.527-.615.667-.827.14-.21.281-.175.475-.105.193.07 1.23.58 1.44.686.212.105.352.158.404.245.053.088.053.51-.123 1.002Z" fill="currentColor"/></g></symbol></svg>