<svg
  width="773"
  height="1005"
  viewBox="0 0 773 1005"
  fill="none"
  xmlns="http://www.w3.org/2000/svg"
>
  <path
    d="M617.624 204.842c.039-.166.076-.335.122-.494 0 0-.046.181-.122.494ZM608.966 193.209s-3.418 4.837-3.721 11.654c0 0 3.738-5.78 4.37-9.149.634-3.368 3.95-12.066 3.95-12.066l-4.599 9.561ZM533.684 122.08c-3.205-1.075-7.882-2.442-7.248-1.834.634.608 6.198 6.281 10.93 9.064 1.917 1.127-.478-6.155-3.682-7.23ZM553.42 144.654c-3.574-1.193-5.044-2.554-4.845-1.34.2 1.214 2.408 3.878 5.502 5.328 3.094 1.45 11.724 5.193 12.156 5.656.433.463-4.58-6.192-4.58-6.192-1.675-.436-4.658-2.26-8.233-3.452ZM507.493 113.748c1.396-1.654 4.693-3.266.306-5.037s-9.409-4.15-9.1-.104c.309 4.045 3.444 7.268 4.743 9.547 1.3 2.279 7.037 7.924 9.151 5.617 2.113-2.307.15-7.148.15-7.148-.946.156-6.646-1.22-5.25-2.875ZM449.338 97.193c-.315.41-.489.674-.478.74.031.192.225-.104.478-.74ZM494.671 76.269c.206.696.411 1.056.411 1.056-.143-.352-.275-.703-.411-1.056ZM477.961 92.253c-3.895 2.302-11.393 5.793-11.607 6.659-.214.866-1.052 5.872-1.052 5.872s2.432-3.25 10.024-5.093c7.591-1.843 9.224-9.234 8.255-15.842-.06-.419-1.724 6.1-5.62 8.404ZM418.916 137.803c-1.224 2.302 1.63 5.572 3.919 2.168 2.289-3.405 3.735-4.355 5.159-8.685 1.424-4.331 1.953-8.692 1.953-8.692l-3.319 5.8c-1.2.287-6.488 7.108-7.712 9.409ZM411.665 148.932c-1.386.228-1.224 5.544-.735 6.354 0 0 3.238-.888 3.846-1.523.608-.634-1.724-5.059-3.111-4.831ZM467.78 141.476c.749.767 2.919-.124 4.378-.453s1.391-2.366.904-3.533c0 0-3.675 2.386-4.711 2.587-1.035.202-1.32.633-.571 1.399ZM482.671 127.539c-2.87-1.753-6.748-5.835-7.756-7.093s.283 2.803.728 4.421c.444 1.618 2.72 4.627 4.854 6.235 2.135 1.608 4.791 2.061 5.67 3.608l3.761 4.455c-.277-3.449-4.386-9.872-7.257-11.626ZM178.773 314.151c7.218-5.374 15.859-6.974 15.859-6.974-11.004-.86-15.859 6.974-15.859 6.974ZM96.068 378.428c2.22-6.896 7.308-11.01 7.308-11.01-7.94 2.755-7.308 11.01-7.308 11.01ZM223.865 423.105c1.137-.022-32.171-3.586-28.69-18.506 0 0-13.209 19.289 28.69 18.506ZM271.646 621.043c.118-.019-.043-.074-.44-.159.201.117.352.174.44.159ZM334.423 420.399a6.442 6.442 0 0 0-2.447.382c1.441-.274 2.447-.382 2.447-.382ZM202.427 651.194s6.817-10.739 16.401-50.425c0 0-16.948 18.104-16.401 50.425ZM190.994 723.24c-.38-.591 1.314 13.674 5.892 18.619 0 0-2.781-13.788-5.892-18.619ZM240.863 734.621c3.306-5.352-3.015-10.189-3.015-10.189 2.738 3.645 3.015 10.189 3.015 10.189ZM244.742 872.455l-15.363-9.096s6.346 7.473 11.19 9.562c.902.387 2.009.86 3.223 1.367a968.81 968.81 0 0 0 5.543 2.286c3.834 1.589 7.305 3.005 7.827 3.232l-7.267-4.303-5.153-3.048ZM300.951 833.538l-1.626-2.849-5.648 4.712 7.274-1.863ZM231.931 793.967s-10.281-1.335-16.084 1.282c-5.802 2.617-9.212 8.402-9.212 8.402s6.246-3.165 12.133-6.894c5.885-3.729 12.47-2.676 13.163-2.79ZM243.408 823.124c-.925.152-16.296 11.349-20.47 18.447l14.163-8.623 6.307-9.824ZM300.507 575.12c-1.65 3.477-7.31 15.169-11.165 19.276 1.833-1.847 9.43-9.651 13.235-16.201 4.35-7.48 2.911-9.732 4.153-15.165 1.243-5.432 1.54-8.667 1.54-8.667l-2.281 4.163s-9.428 23.511-24.157 33.539c0 0 13.599-6.808 18.675-16.945ZM297.914 590.6s5.379-5.19 9.538-8.055c4.159-2.866 7.923-7.403 9.565-9.692 1.642-2.289 2.707-5.194 2.05-4.137-.657 1.057-4.355 4.516-4.355 4.516-1.571 2.04-6.849 6.352-9.101 8.741-2.253 2.388-7.697 8.627-7.697 8.627ZM306.789 589.14s5.615-1.755 9.806-4.464c4.191-2.708 6.357-7.495 6.357-7.495s-7.186 4.664-9.848 6.526c-2.661 1.862-4.978 4.381-6.315 5.433ZM271.901 615.4c2.305-4.752-1.309-7.955-1.309-7.955-1.314 2.115-4.293 8.542-4.681 10.505-.39 1.963-.825 7.971-.825 7.971s4.511-5.769 6.815-10.521ZM361.789 493.608c-4.39 3.621-9.441 6.112-9.441 6.112s7.998-.452 14.114-2.246c0 0-.825 2.197-4.642 3.538-3.816 1.341-8.603 1.111-9.93 3.144-1.327 2.033-2.035 6.601-2.035 6.601s2.04-1.325 10.065-5.683c8.024-4.358 9.863-6.173 17.869-9.465 8.006-3.293 10.705-1.319 17.257-4.793 6.551-3.475 22.237-17.809 22.237-17.809l-5.799 3.626a58.423 58.423 0 0 1-11.861 5.672c-4.68 1.621-11.354 4.029-17.082 6.33-9.765 3.926-16.361 1.353-20.752 4.973ZM376.476 513.908c1.008-.844 4.947-3.836 11.454-5.013 7.609-1.375 17.814-11.499 17.814-11.499-2.255 2.166-5.821 3.58-11.765 4.976-5.42 1.274-15.731 10.009-17.503 11.536ZM376.476 513.909a7.185 7.185 0 0 0-.267.231l.267-.231ZM257.453 848.829l-.333-.187c-5.404-3.036-14.668-4.751-14.668-4.751s7.729 4.531 13.103 7.753c1.241.734 2.361 1.407 3.225 1.941.64.389 1.294.746 1.943 1.073 4.059 2.037 8.402 2.977 13.395 5.111-.376-.261-6.602-4.554-11.907-7.969a140.6 140.6 0 0 0-4.758-2.971ZM269.489 837.847c-.009.001-.01-.008-.021-.007-1.467-.636-3.561-1.159-5.904-1.601-7.309-1.371-16.965-1.85-16.965-1.85s7.885 4.869 15.111 5.425c.155.015.318.029.471.033 1.812.096 3.688.583 5.565 1.314 4.978 1.925 9.886 5.558 13.181 7.922.48.345.938.673 1.348.959 0 0-.394-.56-1.086-1.456-2.135-2.788-7.116-8.769-11.7-10.739ZM261.189 865.218c-.784-.416-2.592-1.279-4.757-2.294-1.693-.782-3.612-1.656-5.436-2.496a2715.292 2715.292 0 0 0-7.643-3.454c.25.17 3.501 2.39 6.923 4.844.776.549 1.554 1.107 2.311 1.658.746.543 1.681 1.076 2.733 1.579 4.593 2.221 11.434 3.991 14.598 4.641.23.043.439.089.626.119-.056-.031-.252-.12-.548-.263-1.665-.797-6.54-3.133-8.807-4.334Z"
    fill="#535353"
  />
  <path
    d="M652.601 172.669c-.484-2.944-16.469-12.428-16.469-12.428l-6.018 5.627s1.642-7.292.613-8.153c-1.029-.86-14.194-4.751-17.891-4.142-2.275.374-3.597 5.152-4.277 8.784-3.054-.642-5.129-.501-5.744.573 0 0-.044.141-.145.396-.143.405-.406 1.126-.747 2.069 0 0-33.447-17.284-63.792-54.549-30.356-37.272-34.239-63.706-34.339-87.433 0 0-52.652-11.156-105.464 50.958-49.671 58.42-44.044 122.972-12.598 208.363l.001.009.085.224a794.616 794.616 0 0 0 6.182 16.23c2.51-31.693 8.529-56.036 17.699-75.26 9.168-19.233 21.471-33.335 36.549-44.545 30.147-22.41 78.005-8.567 89.507-2.266 11.5 6.292 5.502 14.768 5.502 14.768 10.056.472 45.715 12.822 45.715 12.822-.47.736.009 2.021 1.228 3.633l-.83 1.625-9.827 19.113c-3.069.944-15.007 11.294-13.235 25.769l-15.774 30.68-.527 1.031c.021-.451.527-1.031.527-1.031-3.08.937-16.167 10.274-14.394 24.749.102.794.222 1.642.378 2.532l-11.667 22.717c-.357.03-.712.079-1.072.148-.898.167-1.703.318-2.415.454-3.826.754-5.451 1.136-7.379 1.94-1.035.437-2.166.986-3.78 1.786-5.128 2.571-6.547 6.82-7.796 7.169-.52.143-2.364 1.343-4.455 2.899l-.009.001c-1.163-1.039-9.438-8.31-12.414-6.799-3.205 1.624-12.174 7.87-13.324 15.138-1.151 7.267 1.033 20.826 2.752 21.707.833.425 2.187 1.986 3.489 3.575-12.119-1.764-33.729-2.766-33.729-2.766a75.56 75.56 0 0 0-2.493-1.755.363.363 0 0 0-.074-.046c-.001-.009-.011-.007-.021-.015-42.544-28.56-95.844 2.717-107.96 10.587-17.937-3.954-22.759 6.389-32.29 11.774-5.035 2.851-10.226 4.869-14.077 6.161-7.512-1.072-9.404-1.552-9.404-1.552-.377-2.18-1.404-6.447-4.101-11.297-2.698-4.86-7.048-10.306-14.081-14.844 18.566-55.56-14.87-90.742-52.483-84.131-41.988 7.388-47.083 45.745-47.083 45.745 15.883-15.359 43.272-26.535 58.584-16.673.097.069.936.647 2.217 1.647 4.086 3.497 7.048 8.857 8.303 16.482 1.489 9.046.758 17.008-1.132 23.834-10.74-.454-29.482-1.128-53.042 18.586-18.767-34.849-49.869-45.88-68.42-31.255-24.934 19.653-9.096 54.154-9.096 54.154 4.165-24.419 26.123-39.443 47.77-11.144 4.777 6.244 8.039 11.86 10.236 16.802-6.078 19.526-2.26 40.752 3.454 54.426.645 1.659 2.034 3.662 5.028 4.991l2.36 10.391A18.222 18.222 0 0 0 177.9 497.19l.1.031c3.527.965 6.655 1.423 6.656 1.432-4.586.364-7.904.195-10.298-.203 0 0-.009.001-.02-.006-1.352-.217-2.414-.528-3.24-.85 1.624 3.319 4.238 7.897 7.26 10.262-1.828 6.682-4.067 21.827 2.623 34.244-.064 8.309-1.779 29.359-16.616 41.741 0 0 21.236-5.212 28.435-26.154l.375.082c-.481 5.306-1.346 13.147-1.45 18.602-10.014 11.722-48.074 60.875-27.767 109.198l.011.008c-2.79 13.185-5.498 47.848 10.437 77.258-3.326 5.814-5.481 13.466-3.894 23.049-2.319 3.587-1.169 4.724-.601 9.391.807 6.697 3.865 7.892 5.631 9.175-.061 2.004.328 3.905 1.195 6.795 1.733 5.773.084 7.466 1.827 11.099.917 1.919 4.204 6.358 6.995 9.981a58.553 58.553 0 0 1-.077 3.476c-.481 10.057 3.245 9.978 3.674 10.442.312.33 2.486 1.193 4.426 1.79-.131 2.044-.07 3.808.192 5.11 1.439 7.06 4.895 4.355 7.749 5.468.939.371 1.71 1.112 2.322 1.936-.488 4.507-.016 8.302.912 10.467 1.864 4.368 8.178 8.766 12.17 11.171 2.608 5.123 6.685 8.735 11.999 10.941 1.126.464 2.565 1.038 4.196 1.675l-17.563 33.78c-11.8 17.215-33.064 17.5-43.592 16.419a8.573 8.573 0 0 0-8.847 5.367c-9.412 23.662-14.187 35.161-16.481 40.527-.855 1.992.804 4.132 2.944 3.799 5.357-.834 12.864-2.346 15.334-2.753 36.343-5.982 63.727-38.345 72.597-50.289l18.607-34.743c4.685 2.444 8.682 4.18 10.865 4.346 7.824.591 9.167-9.799 13.127-10.89 3.954-1.07 11.609.923 14.26-4.817 2.653-5.732-1.333-15.225.995-16.62 3.856-2.304 15.181-9.243 15.946-10.161 1.59-1.931-1.961-5.887 1.224-9.721 3.184-3.835 9.557-12.525 7.168-15.966-2.38-3.453-11.427-18.486-15.15-18.617-1.131-.033-2.397-.359-3.822-.792l34.494-64.384 6.971 10.529 18.937 2.559s-14.962 1.423-16.578 1.689c-1.616.266 2.198 4.723 3.516 8.379.612 1.692 1.017 3.4 1.452 4.769.161 2.368.65 6.552 1.649 11.405-.896 3.19-2.353 6.74-4.587 10.847-4.416 8.12-5.302 32.115-5.511 35.192.513-2.908 6.343-24.11 15.982-28.196 1.738 3.425 3.839 6.513 6.377 8.833-6.66 12.686-3.306 21.121-3.306 21.121 12.215-22.75 33.795-38.093 55.73-48.266-.587 1.88-1.029 4.119-1.889 6.721-1.31 3.917-3.593 8.652-8.825 14.188-1.528 1.615-3.047 3.22-4.545 4.783a1991.69 1991.69 0 0 1-21.215 21.913s8.162-5.236 17.593-12.159c3.927-2.878 8.07-6.046 11.941-9.251l-.004.008a65.328 65.328 0 0 0-1.848 4.494 71.56 71.56 0 0 0-1.528 4.601c-14.804 50.024 37.379 81.507 37.379 81.507.565-.298 4.483-1.352 10.14-12.913 0 0-32.402-15.552-30.118-56.684.854-15.297 9.129-24.14 18.883-29.241 6.854-3.592 14.431-5.329 20.67-6.169 7.539-1 13.125-.675 13.125-.675s3.516-7.657 9.363-11.743a63.524 63.524 0 0 0-.818 3.983l.001.009a73.665 73.665 0 0 0-.731 5.519c-5.817 6.683-10.187 15.791-10.901 28.197 0 0 7.311.939 19.111-3.146 0 0 4.329-21.871 32.002-27.039 0 0-4.384-7.662-3.733-16.121 0 0-9.723.864-20.369 6.045a32.64 32.64 0 0 1 1.966-2.539c.817-.946 1.615-1.84 2.396-2.713 4.374-4.841 8.389-8.669 12.569-12.543 1.898-.623 3.926-1.081 6.014-1.4.025 1.175.069 2.419.144 3.746.808 13.716 4.778 35.131 19.753 55.259 0 0 8.88-9.44 19.294-10.745 0 0-22.849-21.064-21.412-44.597a28.5 28.5 0 0 1 .159-1.894 35.374 35.374 0 0 1 6.829-2.396c6.566-1.614 13.39-1.439 19.637-.447 1.16.183 2.299.395 3.413.63 11.892 2.481 20.982 7.443 20.982 7.443-2.104-10.293 3.994-21.721 3.994-21.721-10.393-3.368-20.34-4.684-29.358-4.783l-.001-.009a105.995 105.995 0 0 0-26.276 3.026 52.612 52.612 0 0 0 3.5-4.207c.437-.587.862-1.191 1.25-1.789.154.757.25 1.171.25 1.171.259-.11.518-.219.787-.321a25.799 25.799 0 0 1 4.999-1.328c3.288-.542 6.307-.457 8.291-.287 1.48.128 2.387.303 2.387.303-.379-2.646-.552-5.146-.538-7.495-.007-.39-.003-.772.012-1.146.087-3.354.531-6.393 1.224-9.14 3.744-14.926 14.655-21.196 14.655-21.196.09-12.492-3.146-19.114-3.146-19.114-11.727 4.735-19.008 11.962-23.456 19.773-.401-.64-.81-1.269-1.217-1.889a289.952 289.952 0 0 0-2.064-3.121c1.705-2.166 3.136-3.516 3.136-3.516s-18.958-46.907 17.292-61.463c38.235-15.352 63.346 10.362 63.346 10.362 9.14-9.07 8.882-13.117 8.983-13.748 0 0-49.403-41.759-93.058-6.356-18.101 14.679-22.1 32.344-20.586 47.997a97.836 97.836 0 0 1-2.114-2.529c-6.565-8.182-2.708-10.715-6.492-19.269-3.781-8.545-9.193-14.008-18.219-27.003-9.028-13.004-6.932-19.044-13.403-34.596-6.472-15.562-7.706-20.1-10.998-32.856-2.728-10.607-10.759-24.911-14.841-29.485 1.14-2.926.642-5.2.191-6.375-.208-.567-.412-.877-.412-.877l-.55-1.255.094-.187 16.581-31.051.05-.104a39.093 39.093 0 0 0 2.18-.893c.09-.034.169-.076.24-.106 5.765-2.59 8.667-7.446 10.036-11.764.141-.243.244-.546.313-.881.029-.11.045-.246.064-.364l.456.278c-.159-.098-.309-.197-.458-.287.37-2.217-.268-5.804-1.059-8.927l14.581-27.612c.539 1.533 1.157 2.681 1.829 3.114.14.091.31.197.49.31-5.64 7.463-16.38 24.103-16.38 24.103.839 3.296 1.515 7.115.997 9.299 3.745 2.293 11.033 6.931 13.861 9.852 3.862 3.991 14.069 9.79 23.549 10.004 9.472.234 9.665 4.648 21.512 6.265 10.235 1.387 14.434-.744 21.091-5.856 2.523.605 6.848 1.906 15.035-2.952 10.377-6.153 16.569-15.882 13.865-25.005a16.24 16.24 0 0 0-3.969-6.787c1.237-1.873 2.777-5.151 2.673-9.722-.172-7.537-1.485-13.368-3.725-18.342-1.485-3.285-4.49-9.258-6.365-12.937a6.337 6.337 0 0 0-.439-.872c-.729-1.416-1.195-2.331-1.195-2.331l.19.923c-2.352-3.515-5.405-10.758-8.437-12.549-2.611-1.545-11.965-9.229-15.844-12.454.249-6.137-.376-8.657-.208-13.083.203-5.547 3.438-18.986-4.068-28.368-.514-.631-.031-.014-4.461-4.093 1.083-.951 1.98-1.88 2.701-2.772 3.868-4.786 3.134-8.662 2.505-10.343l18.615-35.269c3.046-1.312 5.345-3.226 7.052-5.377 1.715-2.152 2.848-4.542 3.574-6.798 1.763-3.2 1.553-5.808 1.116-7.358a6.298 6.298 0 0 0-.137-1.065s-.068.05-.197.138c-.169-.392-.297-.59-.297-.59l25.045-47.441c2.486-2.747 3.917-5.987 4.681-8.879l.036-.073.233-.439c4.175 1.488 9.225 2.03 9.961.879l.015-.022c.691-.905 22.795-29.928 26.165-38.143.918-1.61-1.619-4.97-6.371-8.977 1.691-1.929 6.368-7.535 5.969-9.959ZM536.497 321.954c1.462 5.865 3.363 12.373 5.178 18.246.849 2.722 1.667 5.316 2.413 7.645a182.985 182.985 0 0 0-4.54-4.166 62.729 62.729 0 0 0-3.068-2.586c-.023-.025-.058-.066-.1-.088a38.974 38.974 0 0 0-3.804-2.713c-1.19-.739-2.361-1.357-3.533-1.813l7.454-14.525Zm-61.739 42.94c.087-1.207 5.677-13.087 8.895-14.695 2.291-1.15 5.242 1.541 7.939 3.263-1.265 1.124-2.296 2.161-2.797 2.94-1.778 2.764-2.382 8.653-2.382 8.653s-1.119 4.678-3.071 6.611c-.715.7-1.785 1.677-2.782 2.862-2.738-4.176-5.616-8.443-5.792-9.511-.007-.047-.013-.084-.01-.123Zm-144.039 29.014c10.003.957 15.357 4.684 18.608 6.819-3.688 1.409-7.507 2.667-11.258 3.58-5.907 1.44-10.267 2.186-13.753 2.741 5.228-4.228 14.718-8.061 14.718-8.061-15.387-1.216-22.704 6.428-25.634 10.421a22.759 22.759 0 0 0-3.344 1.647c-2.814-.519-6.924-1.207-12.467-1.964 8.244-3.351 21.383-16.312 33.13-15.183Zm-20.665 48.665c-.33.198-.666.358-1 .528-1.982-2.011-4.548-5.548-5.809-12.342-.176-.954-.605-1.875-1.2-2.769.707-1.672 1.905-3.491 3.84-5.24 2.514.263 6.661 1.231 11.519 4.61 6.786 4.711 8.906-4.547 14.572-6.577-2.804.528-7.292 1.715-9.406 4.057-2.701 3.001-6.287-4.526-11.875-5.324 3.213-1.635 7.457-3.03 13.087-3.89 6.809-1.054 14.134-3.958 21.049-7.5a1310.312 1310.312 0 0 1-7.912 18.75c-3.041 7.025-10.384 12.374-15.377 15.304 1.095-1.058 2.099-2.082 2.918-3.018 4.785-5.471 5.447-9.682 5.47-9.943-.365.27-11.567 8.486-19.876 13.354Zm-71.535 129.062c.079.483-3.913 3.582-1.5 9.433-3.615-5.615-10.794-11.445-18.169-16.784-.367-3.097-1.09-7.376-2.589-12.481-1.655-5.651-6.054-12.845-9.878-18.922 3.85 3.335 10.581 8.008 12.537 9.46 2.023 1.508 8.271 7.243 10.874 16.45-.918-6.04-2.05-13.552-2.567-17.102-.679-4.762 3.08-8.119 4.829-11.517.847 10.421-3.664 14.483 4.835 21.259 10.104 8.067 25.53 24.531 24.54 43.438-.226 4.302-.81 8.004-1.573 11.191-3.359-16.121-13.192-18.424-16.552-24.815-3.285-6.223-2.521-18.673-2.485-19.328l-2.302 9.718Zm-40.137-22.107c-6.454-5.768-8.508-19.815-5.146-28.076 1.125 4.632 2.987 11.251 8.594 15.871 5.088 4.199 11.059 17 14.501 25.162-7.21-5.09-14.234-9.629-17.949-12.957Zm9.728 31.92c-1.089-.994-2.231-2.256-3.287-4.266-2.236-4.25-3.842-9.718-4.845-13.846 3.843 5.788 6.737 12.647 8.132 18.112Zm-21.578-98.118c-4.263-4.278-5.489-4.544-7.5-7.313-1.208-1.662-2.088-4.283-2.608-6.106 2.537-.76 5.37-1.685 8.478-2.797 1.039 3.415 5.622 18.392 8.525 26.003 0 0-.009.002-.02-.006l.022.015c.47 1.812 4.032 9.773 4.032 9.773s-6.364-4.18-7.912-7.846c-.079-.302-.171-.63-.295-.982l-.005-.028c-1.852-5.399 1.565-6.429-2.717-10.713Zm18.27-7.405s6.373-7.994 8.777-11.061c0 0 2.276 3.222 1.191 5.9.668-1.389 3.133-6.755 3.384-9.868 0 0-11.45 2.944-12.827 2.112-1.386-.831 10.588-5.979 10.588-5.979s-3.235-.469-6.203-.705a237.316 237.316 0 0 0 11.476-6.258c1.312 4.668 4.17 22.608-22.378 38.836 0 0-1.385-4.704-3-10.286 3.813-.189 10.521-.472 14.335-.366l-5.343-2.325Zm6.877 12.28c4.972-4.1 9.974-9.121 13.245-14.286 6.773-10.664 5.549-24.475 4.894-29.09a276.031 276.031 0 0 0 9.252-6.149c2.1 6.437 5.889 21.925-.55 37.513-4.928 11.906-12.222 17.953-18.979 21.125 7.404-6.484 12.546-20.161 12.757-20.73-6.404 12.148-18.76 20.536-25.767 24.102-3.552-.14-6.051-2.047-7.862-3.838 3.116-1.409 8.045-4.558 13.01-8.647Zm34.147-47.89c1.965 2.605 4.394 5.601 7.142 8.498 1.474 3.162 2.929 7.425 2.824 11.363-.214 7.391-.633 14.585-.633 14.585s-6.048-6.664-5.708-12.596c0 0-1.506 11.828 2.712 16.476a97.071 97.071 0 0 1 2.73 3.137 61.528 61.528 0 0 0-2.34-.769c-2.531-.775-6.451-3.087-8.895-4.603 3.551-9.723 4.8-21.957 2.168-36.091Zm51.426-11.307c.368 1.771.814 3.5 1.297 5.157-11.489-7.21-23.722-7.638-23.722-7.638 10.396 3.526 20.859 13.718 25.942 18.576-6.541.075-13.582-3.058-19.495-9.545-6.104-6.712-16.16-10.666-21.841-12.488a327.817 327.817 0 0 0 5.449-4.684c8.91.231 30.531 1.709 32.37 10.622Zm-3.132-7.26c.54.207.92.374 1.072.482.054.039.123.113.194.197-.409-.228-.837-.453-1.266-.679Zm-20.354 16.706a645.943 645.943 0 0 0 6.557 11.093 30.367 30.367 0 0 1-2.363-.737c-6.058-2.208-19.741-17.527-23.169-19.577a6.05 6.05 0 0 0-1.968-.773c1.122-.89 2.252-1.792 3.379-2.712 4.599 1.399 13.649 5.9 17.564 12.706Zm-7.079 5.677c4.23 5.066 11.11 8.035 15.148 9.441-.132-.046-.28-.078-.41-.114a20.91 20.91 0 0 1-2.298-.805c-6.311-2.7-15.953-5.234-19.886-8.441 3.173 3.341 11.323 11.473 16.453 12.679-.616-.032-10.602-.716-17.828-7.931-5.178-5.148-9.942-11.489-12.38-14.885a276.27 276.27 0 0 0 4.903-3.707c3.334 2.227 11.405 7.91 16.298 13.763Zm-2.919 17.966c.311.321 4.539 4.853 5.319 11.564-1.55-1.881-2.807-3.086-3.749-3.885-.448-4.515-1.476-7.398-1.57-7.679Zm-11.592 44.092c.988-2.052 2.761-6.465 2.634-11.471-.168-6.869-2.887-8.206-2.887-8.206s7.055 2.874 10.221 6.865c1.975 13.097 3.773 25.298 2.49 32.167-3.285-3.962-7.547-7.257-10.389-9.804a51.372 51.372 0 0 0-2.069-9.551Zm-17.447 9.272c-2.664-2.041-5.951-4.448-8.765-6.246 7.544.972 14.53 5.517 18.897 12.048 1.965 2.958 3.987 19.644 5.816 32.383-1.42-1.789-2.68-3.07-3.607-3.776-4.334-3.321-8.19-7.8-7.68-13.569.516-5.79.454-16.941-4.661-20.84Zm5.748-8.892c1.702-2.407 2.215-5.955 2.215-5.955-2.269 1.976-5.227 3.246-7.796 4.04a16.13 16.13 0 0 0-3.303.162c-6.128.904-13.552-.211-18.5-1.237 3.67-1.234 7.317-2.607 10.738-4.077 4.848-2.076 9.488-5.816 13.343-10.972 15.939 11.991 13.642 38.259 13.269 37.089-3.034-9.621-5.742-16.044-9.966-19.05Zm-1.227-21.071a47.704 47.704 0 0 0 3.519-6.846c2.941 3.379 11.915 14.894 9.243 27.001-2.223-6.722-6.142-13.727-12.762-20.155Zm-28.037 30.362c4.555-1.942 10.588 3.475 10.588 3.475-3.752-2.225-14.309.696-15.852.711-1.533.014-3.389.329-4.725-.892 0 0 5.423-1.36 9.989-3.294Zm44.639 45.634c-.092-6.701-1.215-16.771-2.891-25.5.495-1.865 1.659-6.903 1.674-13.535 2.621 3.002 11.235 13.604 9.195 20.799-1.669 5.855-4.245 16.515-5.617 22.846a74.272 74.272 0 0 0-2.361-4.61Zm11.896-18.481c1.445 6.517 2.952 14.282 2.732 17.523.138-.9 2.639-21.927-2.278-29.312a12.684 12.684 0 0 0-.55-1.197c1.001-4.639 2.407-13.484 1.585-23.871-.962-12.1-4.068-14.336-4.513-19.995 3.302 4.293 8.648 13.419 10.421 29.115 2.635 23.31 3.195 31.059.101 48.31-3.095 17.242-3.902 15.238-4.637 15.12-.656-.102-6.654-10.523-7.873-12.65.896-7.713 2.433-16.751 5.012-23.043Zm3.566-51.012c-1.623-3.081-3.725-7.333-5.62-11.132 2.234 1.75 5.623 5.065 8.464 10.674 3.022 5.96 3.762 13.003 3.838 17.579-2.11-6.149-4.653-13.257-6.682-17.121Zm-.921-16.666c.432-1.607.651-3.808-.023-6.512 0 0 14.588 14.56 15.482 24.687 0 0 .202-8.685-2.805-15.479.383.3.794.595 1.227.905 6.375 4.541 3.064 13.862 2.922 28.128-.039 3.822-.079 7.053.028 9.906-.728-2.684-1.359-5.881-2.419-10.696-2.771-12.546-8.745-21.426-8.745-21.426l.01.056c-.561-1.435-1.162-2.709-1.817-3.794-1.415-2.333-2.7-4.23-3.86-5.775Zm11.655 40.322c.486 1.217 3.753 9.36 6.69 13.236a121.492 121.492 0 0 0 2.905 3.624c.867 1.326 1.909 2.672 3.157 4.107a51.272 51.272 0 0 0 3.355 3.521c-1.381-1.203-4.475-3.775-9.08-6.948-4.271-2.94-5.94-8.79-6.608-12.963-.104-1.328-.237-2.89-.419-4.577Zm2.297-44.288a1957.828 1957.828 0 0 0-15.985-10.123c-.128-.484-.261-.949-.381-1.387 2.327.867 4.675 1.281 6.983 1.045 16.104-1.669 29.203-5.198 30.058-5.625.255-.128.587-.316.951-.539-3.283 3.756-8.445 7.925-15.297 8.833 0 0 6.681 2.106 13.105-2.157 2.606-1.726 4.221-3.156 5.374-4.385a67.332 67.332 0 0 0-.472 2.405c-2.34 13.197-.945 8.693-13.66 10.786-4.616.76-8.117 1.05-10.676 1.147Zm13.663-56.547c2.141.258 4.115.315 5.906.239-4.286 2.881-7.12 4.673-10.34 4.583-1.62-.048-3.769-.352-5.83-.7-6.274-2.363-13.185-4.011-18.169-4.793.091-.082.183-.164.265-.244 9.15-4.158 19.748-.103 28.168.915Zm-26.701-9.676s-10.37-14.319-14.114-18.692c0 0 10.641 7.33 14.114 18.692Zm-44.749-27.357c6.482-13.067 7.917-28.166 4.038-40.606 2.988 3.782 5.432 8.082 5.928 12.427 0 0-1.142-17.193-14.925-27.039a22.4 22.4 0 0 0-2.075-1.366c-.002-.009-.011-.008-.011-.008-8.484-4.947-22.045-5.672-33.846-2.146-2.765-.451-5.767-.491-7.49.632-2.587 1.666-4.749 2.556-7.117 3.299-.28.094-.574.161-.853.207 3.449-7.331 11.798-18.388 31.284-21.3 6.996.948 15.601 4.139 17.005 14 0 0 .138-10.058-4.871-14.814 6.228-.004 11.747.661 16.599 1.914 5.636 3.412 15.809 11.84 12.087 26.609 0 0 6.144-9.387 4.006-18.317 5.801 5.16 9.556 12.154 11.569 20.618-1.611 6.266-6.442 18.871-20.049 25.689 0 0 14.443-1.967 21.621-13.012.013 4.31-.482 8.722-1.303 13.064-4.323 8.333-12.688 20.394-27.028 27.048.877-.24 13.534-3.783 22.092-9.456-4.245 11.765-9.127 20.352-9.127 20.352-.165.161-1.423.807-3.413 1.525-.086-.291-.56-.623-1.731-1.012-3.999-1.288-5.044.01-6.715.638-1.679.639-2.406.511-5.898.971-3.483.459-2.296-.214-2.708-1.329-.433-1.121-1.473-.95-4.081-2.419-.661-.368-1.027-.851-1.209-1.375 1.822-2.723 4.489-7.273 8.221-14.794Zm18.928 26.266s-1.922 7.795-2.008 7.275c-.086-.52-1.409-4.214-1.409-4.214s-22.225 6.502-34.358-5.543c.724.51 14.358 9.627 37.775 2.482Zm-102.43-22.289c3.879 2.242 7.632 5.106 10.14 8.576-1.072-1.589-10.243-14.531-23.772-18.314-.209-.051-.419-.112-.619-.165-.229-.058-.456-.106-.684-.155a10.513 10.513 0 0 0-.714-.168c-8.276-1.538-17.897 2.135-24.157 8.908-2.133.484-4.204 1.407-4.813 2.919-.91 2.239-1.94 3.687-3.189 5.085-.144.167-.313.3-.482.432-1.336-7.363-1.196-19.492 10.635-28.174 5.224-1.413 12.668-1.389 18.585 6.508-.556-.948-5.28-8.727-10.72-11.056 4.235-1.975 8.343-3.157 12.283-3.615 5.566 1.126 16.746 5.123 21.639 18.97 0 0-.539-9.994-6.487-16.98 4.997 1.963 9.203 6.822 13.434 11.954 3.492 4.233 5.956 9.294 6.82 14.713.756 4.712.485 10.137-2.735 15.723 0 0 8.861-6.266 8.206-18.007a85.988 85.988 0 0 1 4.457 8.701 56.525 56.525 0 0 0-13.49 17.789c-3.261-8.86-8.266-17.184-14.337-23.644Zm13.15 50.044c.7-13.594 5.018-26.716 16.203-39.031l.015.093.621-.808c4.573-4.903 10.254-9.682 17.239-14.304 3.063-2.021 5.92-3.617 8.57-4.845.057 0 12.816.609 14.04 2.306.644.896 1.748 3.719 2.75 6.101a4.634 4.634 0 0 0-.409.878c-1.285 3.779-3.099 6.959-3.205 9.332-3.425 3.474-6.033 5.248-6.033 5.248s-5.255 8.468-2.355 13.8c0 0 15.962 13.809 42.975 1.273 1.01-.471 1.697-1.453 1.829-2.562l1.067-9.228c.028-.062.057-.115.083-.186l7.412 5.21c-.371.881-.434 1.655-.077 2.55.806 1.995.505 4.458-1.085 4.939-1.581.479-3.652-.22-3.707 3.443-.056 3.31.142 3.468-.861 4.33-.405.324-.826.66-1.229.994a678.79 678.79 0 0 0-2.572 2.054c-10.265 8.11-23.844 17.643-39.349 25.623-1.741.315-3.453.578-4.906.731 16.92-9.806 38.001-28.997 38.655-29.601-13.355 10.317-39.039 25.763-45.26 29.467-1.3-.368-2.465-.605-2.874-.366-.547.328-1.801 2.795-2.835 2.25-1.043-.543-.788.254-2.08.343-1.291.098-1.467.48-3.204-.742-5.939-9.601-12.156-27.313-3.18-53.517-.378.606-14.289 23.596-2.78 54.107.413 1.115-.517 5.551-2.717 6.619-2.188 1.076-16.831-31.838-8.074-48.476-.971 1.753-10.901 21.169 3.219 48.884.002.01.002.01-.007.011-.99 1.346-1.279 2.548-2.715 4.663-2.102.442-4.22.848-6.35 1.179-2.863-6.502-7.516-19.291-6.814-32.762Zm15.295 58.382c-3.878-3.397-5.818-15.183-5.818-15.183s3.971 8.246 5.443 9.254c1.472.998 1.774 2.14 3.666 3.489 1.882 1.35 8.828 4.604 8.828 4.604-1.04.171-8.221 1.229-12.119-2.164Zm6.626 82.846s6.104-13.797 7.602-24.346c.602.645 1.23 1.276 1.912 1.879.633 1.47 1.554 2.892 2.707 4.277-1.279 4.751-4.432 12.138-12.221 18.19Zm7.055-40.301c-2.849-6.009-5.516-14.794-2.649-23.222 2.701.3 6.653-.036 11.276-.864-1.413 2.074-3.74 5.385-6.118 8.438-2.253 2.89-2.803 8.818-2.509 15.648Zm3.602 216.027c.186-.26-5.709 2.695-10.943 9.089-2.696-6.119-9.67-23.916-10.024-45.484 1.5-2.593 4.06-6.859 5.36-8.294 1.913-2.109.93-.144 3.125.21 1.912.315 3.718-2.682 7.518-1.037 1.093.727 1.794 1.05 1.794 1.05-10.078-20.892-5.147-57.524-5.531-56.727-6.072 12.256-8.357 22.077-8.486 29.872-2.694-6.224-5.797-16.789-2.572-28.032-.193.509-3.224 8.639-4.136 11.327.459-5.151-2.799-38.737 29.88-78.105 3.461 1.672 8.984 1.784 11.968 7.627 4.556 8.904-6.091 17.067-6.091 17.067s12.334.574 13.008-12.597c.215-4.204-.187-6.704-.967-8.426.405.143.84.348 1.32.66 3.614 2.306 12.716 8.114 13.143 8.388-.343-.345-11.513-11.527-14.219-19.505-.835-2.467-1.923-4.673-3.062-6.603 2.478 1.491 4.983 2.976 7.428 4.501 8.78 7.789 14.429 14.691 15.3 21.435.872 6.744-.239 12.975 4.542 13.857 4.771.875 4.452 7.576 4.028 8.59-.432 1.025 4.185-6.737.07-10.934-4.105-4.189-7.119-2.272-5.465-7.409.852-2.649 1.605-6.245 1.619-9.463 20.091 21.973 16.381 44.925 16.267 45.621.51-.781 13.894-21.757 11.61-43.808a79.575 79.575 0 0 0-2.304-12.49c4.134 4.423 9.805 11.932 8.926 19.279.116-.334 2.097-5.916 5.873-18.042 3.884-12.506 1.3-19.684 3.088-31.139.155-1.027.305-2.082.444-3.154.67 3.724 1.662 6.852 3.162 8.026 4.26 3.334 9.459 8.956 7.378 17.931 0 0 4.378.692 2.081-8.975-2.296-9.658-2.059-5.9-4.599-11.654-2.542-5.763-3.261-1.495-2.292-8.59.22-1.677.205-3.277.036-4.766a20.827 20.827 0 0 0 5.508 3.844c12.384 5.984 17.486 6.089 17.486 6.089-.011-.008-.023-.025-.034-.033-18.121-16.782-13.887-50.753-13.889-61.599-.003-.6-.017-1.151-.038-1.682 2.276 1.6 5.578 4.739 5.941 9.783.56 7.749-2.245 15.508.255 20.439 2.501 4.94 6.868 9.849 7.745 13.034.886 3.183 1.96 11.907 1.96 11.907s3.69-10.033-.581-19.756c-4.27-9.714-5.948-16.659-4.639-22.789 1.308-6.139 1.161-11.324 1.161-11.324s-2.364 1.868-3.269 6.109c-.027.005-.222-.192-1.163-4.921-.455-2.301-1.084-4.62-1.845-6.517.15-.015.292-.02.443-.035 5.22 2.565 14.469 8.217 12.568 15.388-2.618 9.885 1.13 13.933 1.13 13.933s5.156-7.908 4.114-18.411c-.723-7.351-5.466-14.488-8.452-17.85 5.748-12.021 9.518-22.21 18.202-23.754 8.627-1.544 26.31-17.962 26.856-18.472-.63.4-18.364 11.704-29.493 12.648 21.6-14.411 22.713-33.673 22.624-38.561 13.639-7.721 24.646-16.945 25.159-17.42-.496.348-9.324 5.77-20.359 10.534-1.309-1.168-4.035-3.066-9.459-5.188 38.238-23.56 69.343-18.482 84.592-13.294 4.578 1.736 12.546 4.708 15.458 10.458 0 0 .238-2.606-.551-5.49 8.267 1.367 24.588 5.187 33.274 7.306-.625.551-1.266 1.353-1.822 2.551-.177.372-.364.804-.516 1.268-2.198 6.238-6.424 8.612-1.011 12.691a298.816 298.816 0 0 1 4.279 3.283c1.039.802 1.93 1.524 3.368 2.67l-3.055 5.95c-3.18 1.201-14.101 11.002-12.637 24.593l-1.155 2.251c-4.066-2.04-13.373-7.062-21.154-13.88-10.098-8.841-7.662-26.899-7.577-27.543-2.469 3.774-3.826 8.92-4.425 14.437-2.317-4.455-5.172-7.601-5.172-7.601 8.636 27.197-41.245 51.596-41.245 51.596 16.329-2.507 32.579-11.926 34.186-12.19.873-.144 5.991.931 10.561 2.096 2.096 2.708 3.536 5.657 3.026 8.355 0 0 1.784-1.62 2.451-4.41 1.924 7.4 6.173 21.22 6.996 23.898-3.489 4.19-6.457 10.154-5.532 17.452.066.514.143 1.045.234 1.593l-40.318 77.571c-1.517.059-14.733-2.459-22.932-7.93-4.157-2.769-7.295-6.364-10.691-10.126 5.254.623 12.298.818 17.912-.077 0 0-13.318-2.845-23.488-5.75-1.853-1.755-3.894-3.489-6.261-5.122-3.778-2.612-5.967-4.083-7.7-5.343 6.853.14 14.908-1.748 14.908-1.748-13.651.291-26.384-8.278-30.009-10.944a.453.453 0 0 0 .037.109c-.272-.22-.536-.449-.79-.672.173.134.425.325.751.566-.175-.566-.257-.905-.257-.905l-.767.126.036.028-.035-.026a483.298 483.298 0 0 0-12.748-10.275c.113.688 10.079 15.102 15.761 19.48a83.814 83.814 0 0 1 6.411 5.451c-3.724-2.278-17.822-7.083-18.266-7.229.343.344 8.619 8.435 14.649 10.581 3.18 1.127 7.525 3.006 11.324 4.756.013.027.035.042.058.067 1.797 2.051 5.589 5.901 9.825 10.078-3.497-.321-7.526-.345-10.799.232-.483.08 6.194 2.1 10.641 4.258.082.149 1.861 3.367 3.626 6.091-2.368-.011-4.869.21-4.869.21s3.796 1.617 7.158 2.914c.069.074.14.158.208.223 2.014 1.977 6.088 5.056 7.561 8.553 1.463 3.498 6.871 10.449-.084 22.269-6.953 11.828-28.907 23.455-34.349 26.669-5.424 3.211-8.893 7.693-18.202 8.691-9.316 1.009-12.597-3.803-21.961-.124-9.361 3.687-14.981 7.273-16.765 10.057-.642 1.021-.367 1.882-.008 2.672 0 0 4.889 2 12.681.946l-15.085 3.056c-3.513 1.313-10.736 2.988-15.959 4.115 5.713-12.121 6.958-27.102 6.65-26.307-6.643 17.367-16.577 28.761-27.293 36.621 4.194-5.756 5.522-13.911 1.186-27.335 0 0-.708 21.838-25.996 36.331-25.279 14.493-19.946 36.051-19.946 36.051s.965-15.345 17.413-26.81c-5.809 6.031-8.744 11.847-9.086 12.552 2.979-5.489 37.273-19.223 49.831-30.734.364.359.753.753 1.152 1.145 2.735 7.516 7.742 25.303.931 41.296-4.287 10.064-9.384 17.466-13.525 22.44l-.009.002c-2.349-4.994-8.357-6.142-8.357-6.142 5.404 8.602 1.548 13.167 1.444 13.289l-.008.011c-3.543-2.107-7.056-3.456-9.672-4.284-2.465-.777-4.138-1.084-4.334-1.118 10.17 6.033 17.474 18.883 22.138 29.772-2.798-1.295-6.775-3.025-10.205-4.101a37.972 37.972 0 0 0-1.682-.486c-4.412-1.306-16.892-4.737-30.449-3.469 0 0 10.388 2.373 17.615 4.026-1.073.148-2.32.277-3.825.353-7.832.402-8.055.439-19.118.343-10.441-.094-12.099 3.975-18.169 11.261 1.78-8.898 5.524-20.056 13.329-30.937Zm292.751-308.909s-1.62-3.93-2.429-6.182l1.095-2.155c4.04-1.19 14.57-2.933 15.931-3.242-1.567.448-15.137 4.647-15.716 4.952-.629.352 1.157 6.163 1.119 6.627Zm-.588-9.776 5.873-11.432c2.595 2.025 5.152 3.941 7.297 5.792a53.8 53.8 0 0 1 1.282 1.124c-4.551 1.846-9.474 3.467-14.452 4.516Zm2.571 39.556-.101.198a67.747 67.747 0 0 0-.129-.608c-.109-.488-.199-.864-.241-1.058.059.181.168.497.306.932.056.163.105.346.165.536Zm-35.001 62.702s-3.351-11.726-3.037-15.498c.292-3.787-1.398-8.26-1.535-9.096 0 0 3.238 8.024 3.176 11.24-.063 3.215 1.396 13.354 1.396 13.354Zm2.679 15.576s-5.44 15.862-10.669 21.941c-.946 1.091-2.038 2.511-3.205 4.114-5.27 7.278-11.949 18.222-12.422 18.882.146-.329 3.637-6.589 8.055-14.347 7.488-13.157 17.586-30.626 18.241-30.59Zm-9.392-54.794c-.038.111-.079.213-.106.342.002.009.002.009-.006.02-.1.379-.152.874-.201 1.445-.191 2.55.152 6.662.598 10.757l.077.646a285.214 285.214 0 0 0 1.757 12.064s-1.315-4.916-2.496-10.588a10.295 10.295 0 0 1-.109-.545l.014-.031c-.635-3.043-1.211-6.259-1.502-9.006-.031-.309-.054-.621-.084-.921l-.03.053a.088.088 0 0 0 .002-.048c-.143-1.56-.16-2.941-.029-4.002.72-5.938 5.828-8.696 7.117-9.786l-.397.772c.001.009-.007.02-.014.031-1.161 1.87-3.47 5.751-4.591 8.797Zm-.35-36.784c4.991 2.909 12.107 6.908 15.032 8.334l-5.209 10.139c-1.242-1.808-3.147-4.518-4.858-7.728-1.345-2.545-3.25-6.877-4.965-10.745Zm-8.062-12.066c-.007.02.007.047.01.065l-.018-.054.008-.011Zm-151.606 369.88 3.768-7.241c3.167 4.344 9.064 12.236 10.747 13.361l-1.007 1.883c-2.106-.455-4.433-.74-7.001-.517a9.12 9.12 0 0 1-.97.016c-1.619-2.07-4.19-5.635-5.537-7.502Zm2.731 7.087c-1.686-.391-3.528-1.032-5.486-1.797l1.813-3.475c.991 1.497 2.506 3.632 3.673 5.272Zm3.34-18.77 4.731-9.098c2.222 2.601 5.6 7.826 7.528 10.552-3.773.497-7.817 1.077-9.896 1.543-.869-1.107-1.667-2.129-2.363-2.997Zm-14.364 14.679c-4.428-1.866-8.985-3.701-12.897-4.173a11.267 11.267 0 0 0-2.994-3.466c-.111-1.432-.379-2.828-.339-3.741.071-1.481-1.555-5.162-5.089-8.549.066-.755.003-1.66-.16-2.654-.481-2.916-1.798-6.573-3.004-9.379.892-4.726 1.253-12.674-2.577-22.785 5.98-8.177 25.483-35.388 20.745-64.171a53.746 53.746 0 0 0-3.202-11.397c.408 1.03 15.501 11.757 32.039 10.695 0 0-5.263 1.582-11.433 1.882 0 0 18.456 18.588 29.134 21.447l5.234 8.85-45.457 87.441Zm-29.78-65.184c-.309-9.126 10.821-27.394 10.737-26.226-1.044 13.422-10.737 26.226-10.737 26.226Zm72.301-42.236c-.249-1.399-.359-2.707-.246-3.813l14.889 1.26-4.849 9.316-9.794-6.763Zm8.078 10.07-2.615 5.038c-.012-.017-2.814-5.623-4.506-11.211 3.089 2.945 7.11 6.165 7.121 6.173Zm1.155-21.148 7.835-4.848s-27.341-2.788-34.925-3.256c1.374.002 14.861-.062 23.239-5.266 0 0-25.14-3.904-38.244-9.855 0 0 9.252 1.091 21.82-.501 0 0-17.827-6.014-26.721-8.413 1.65-.348 3.879-.772 7.009-1.344 9.51-1.747 15.906 1.474 23.567-2.811 7.67-4.287 21.813-14.628 26.212-16.067 4.39-1.438 13.146-3.414 21.61-11.571 8.445-8.153 12.611-12.054 17.368-19.953.935-1.566 1.771-3.325 2.493-5.199 2.53-3.173 6.203-6.068 9.094-8.098l-49.978 96.141c-.234.373-10.379 1.041-10.379 1.041Zm114.286-187.974c.059.181.098.366.149.558 1.399 5.541 3.208 11.663 4.956 17.242L312.916 775.284c-4.342-.592-8.808-.83-11.04.215l137.657-264.826Zm-225.52 361.575c-12.856-16.209 5.906-38.243 6.387-38.799-7.998 5.19-12.526 12.336-14.802 19.14-5.014-8.609.878-32.273 1.033-32.899-5.336 3.11-9.085 10.643-11.181 18.019a52.505 52.505 0 0 1-2.502-8.479c-1.913-9.473 5.11-.307 2.217-14.521-2.893-14.215 12.659-22.775 12.659-22.775-11.955 2.015-17.224 11.153-20.543 21.764-.715 2.264-1.167 4.093-1.466 5.698-1.562-1.899-3.065-4.714-3.194-8.566-.276-8.168-.888-9.746 1.714-15.03 2.592-5.291 7.771-14.51 16.511-18.438 0 0-7.782 1.462-11.147 4.143-1.997 1.598-10.307 8.317-12.491 14.753.622-5.902 1.648-12.768 3.153-14.284 2.751-2.762 7.262-6.709 12.449-8.813 5.177-2.102 12.157.317 16.571.125 4.423-.194 5.577-1.815 17.564-2.014 8.163-.132 14.079 4.398 17.029 7.309.342.917.662 1.818.953 2.657-1.821.243-5.005.366-9.345.079-6.722-.439-5.104-2.842-19.795-4.812-14.418-1.939-23.792 16.107-24.13 16.774.415-.488 7.305-8.529 17.688-9.78 10.711-1.286 12.855 5.248 23.248 6.38 7.801.853 8.993 2.994 9.404 4.567-6.586-.023-15.476 1.603-24.505 5.398-15.319 6.442-14.164 17.05-14.164 17.05 22.434-17.286 38.413-12.237 42.747-10.308-2.623.117-5.666.58-9.23 1.529-24.222 6.486-28.293 31.243-28.293 31.243 27.458-32.374 37.633-23.47 40.853-21.758-6.02 5.674-11.69 15.041-15.642 20.127a19.33 19.33 0 0 0-1.366 2.018c.078-.394.996-5.191-.517-3.082-1.572 2.157-18.823 24.963-17.867 35.585Zm12.479-19.874c-1.921 4.848-3.647 9.777-4.869 13.365.9-3.744 2.862-8.751 4.869-13.365Zm8.7 51.407c.994 1.811 2.937 5.211 4.863 8.567-2.245-.136-6.384-.361-9.104-.428l4.241-8.139Zm1.095-2.098 2.454-4.735c.081.025.143.053.203.072a486.185 486.185 0 0 0 7.437 4.442l-5.307 7.456c-1.688-2.546-3.436-5.168-4.787-7.235Zm-6.361 12.237c1.457.161 3.897.379 6.23.586-.277 2.202-.915 7.077-1.442 9.205-2.996-1.396-6.198-2.882-7.993-3.645l3.205-6.146Zm-69.715 71.802s7.978-26.182 11.709-34.285c0 0 14.089-.583 29.021-1.667-4.674 2.84-10.085 6.306-7.512 5.768 3.723-.794 22.152-6.022 27.92-7.372.435 2.762-22.633 32.363-61.138 37.556Zm64.52-35.9c.41-1.107 1.899-5.101.896-7.654-.996-2.574-1.783-4.229-2.339-6.159-.311-1.075-.324-3.763-.27-5.928 2.43 3.349 6.159 8.326 8.077 10.881-3.144 4.658-6.616 9.532-6.364 8.86Zm4.557-17.987-5.907-5.343 2.217-4.266c.817.504 1.785 1.108 2.85 1.782.015 1.371.425 4.843.84 7.827Zm6.385 1.992c-.3.555-.817 1.413-1.476 2.447l-2.018-1.824c-.559-2.932-1.275-6.706-1.676-9.14 2.603 1.671 5.364 3.439 7.234 4.657l-2.064 3.86Zm4.129-7.72c-.858-.402-1.914-.906-3.082-1.448l1.099-10.016c1.53.139 2.875.252 3.735.32a952.35 952.35 0 0 1 2.176 3.772l-3.928 7.372Zm5.649-10.593c-.662-1.007-1.498-2.262-2.414-3.657l6.224-8.723c.726.415 1.433.823 2.147 1.221l-5.957 11.159Zm58.776-83.195c-3.105 2.228-7.871 6.018-8.139 8.619-.404 3.863-6.202 13.498-10.193 15.967a37.408 37.408 0 0 0-4.916 3.633c-2.702 2.362-5.221 5.372-6.484 8.88-.824 2.301-.895 4.011-1.217 5.476 0 0 .002.009-.006.02-.251 1.138-.65 2.139-1.687 3.139-.887.871-2.222 1.74-4.327 2.745-7.514 3.554-7.66 8.176-5.457 15.531.051.192.112.392.175.601.071.198.097-.34.212-1.323l-.002-.009 6.513-12.128c6.62-2.845 10.005-5.11 11.988-9.405 1.993-4.296 3.764-9.996 6.793-12.164 3.65-2.633 12.469-9.732 11.894-12.995-.602-3.364 2.195-12.276 5.104-16.342.665.625 1.369 1.425 2.166 2.439 3.968 5.041 6.495 7.936 6.29 13.292-.156 4.157-3.066 5.256-5.061 7.33-.479-.36-2.145-.63-3.672-.808a54.477 54.477 0 0 0-2.943-.259c.185.198 3.17 3.38 5.029 5.401l.002.009c.516 3.197 3.329 6.55-3.27 9.286-6.94 2.869-10.564 3.857-12.622 5.674l-5.977-2.355c.157.203 2.784 3.415 4.302 5.741-.297 3.178.706 7.992-.461 11.628-1.434 4.5-.316 6.252-4.442 6.798l-.019.003c-3.396-1.511-13.197-5.879-13.882-6.157-.614-.252 4.084 4.355 6.899 6.562-.505.408-1.119 1.024-1.942 1.932-4.073 4.525-2.566 6.032-13.825 4.336a10.676 10.676 0 0 1-.697-.123c-.53-.495-4.486-2.505-6.51-3.498-3.289-1.615-8.298-4.224-13.082-6.747a806.864 806.864 0 0 1-5.277-2.794c-3.598-1.917-6.538-3.494-7.75-4.134-4.065-2.154-7.304-9.548-6.586-17.584 4.635-9.282 21.234-41.271 31.452-46.015 8.288-3.835 7.093-6.109 17.836-.303.116.067.21.118.325.175 1.861.991 3.66 1.84 5.409 2.554 6.024 2.519 11.306 3.605 15.401 4.199 1.535.225 2.895.373 4.081.511.633.078 1.233.131 1.776.185 2.932.309 4.671.557 6.799 2.477Zm-5.818-15.994a390.578 390.578 0 0 0-5.323-7.127l8.648.904-3.325 6.223Zm6.969-13.061c-.71.088-1.515.182-2.365.294-2.17-2.696-6.534-8.111-9.564-11.858l1.328-2.536c3.899 1.895 10.186 5.144 13.846 8.023l-3.245 6.077Zm5.491-10.281c-3.356-2.653-9.147-6.947-13.558-8.71l2.341-4.497c2.608.372 6.101.846 9.568 1.163 1.037 2.586 2.395 6.026 3.443 8.686l-1.794 3.358Zm2.538-4.749a464.585 464.585 0 0 0-1.914-7.107l1.317.699.32-.606c1.424.071 2.79.085 4.003.038l-3.726 6.976Zm6.277-11.765a133.218 133.218 0 0 0-3.644-.697l129.863-243.32a635.14 635.14 0 0 0 1.529 4.709c.003.019.014.026.016.036L319.684 776.469Zm137.243 12.752c-.424.376-.858.752-1.3 1.14-.871.77-1.706 1.542-2.522 2.314a68.477 68.477 0 0 0-9.044 1.748c-4.331 1.154-8.648 2.802-12.785 5.086a152.113 152.113 0 0 1 7.017-7.764 108.095 108.095 0 0 1 3.512-3.468c1.961-.6 3.891-1.166 5.789-1.688 6.887-1.916 12.839-3.306 17.973-4.342a152.844 152.844 0 0 0-8.64 6.974Zm27.124 5.087a100.984 100.984 0 0 0-5.803-1.072 62.773 62.773 0 0 1 2.932-1.615c2.296-1.179 4.5-2.105 6.565-2.712l.019-.003a53.69 53.69 0 0 0-1.497 4.005c-.005.029-.009.058-.025.08-.182.567-.35 1.137-.515 1.706a93.292 93.292 0 0 0-1.676-.389Zm50.221-79.099c.01.008.021.016.034.033.179 6.772 4.39 20.645-15.101 36.799-4.885 4.057-9.322 6.886-13.602 9.164 1.324-2.736 3.041-5.575 5.395-7.966 6.19-6.266 9.812-14.684 10.134-15.567-.736 1.094-13.48 12.455-20.416 17.259-3.973 2.753-6.97 8.016-9.536 12.827-3.967 1.692-8.107 3.547-12.626 6.056-19.11 1.142-57.875 2.667-90.192 25.454-7.539 5.314-13.175 10.429-17.367 15.212a180.04 180.04 0 0 1-5.153-8.529c.971-7.2 4.355-20.139 15.913-18.655 15.825 2.021-3.552 11.974-3.552 11.974s22.448-5.374 17.503-14.843c-3.847-7.38-28.149-4.801-37.086 6.276-1.1-3.148-1.764-6.082-1.758-8.534.993-.631 2.202-1.231 3.694-1.782 10.071-3.728 34.455-11.366 42.322-11.211 7.859.166 41.149-2.462 53.289-6.597 9.484-3.23 46.798-15.544 68.024-36.285l.084-.014c1.699-.28 6.216-5.698 9.997-11.071ZM468.751 572.21s2.398 14.573 6.476 19.119c4.07 4.558 3.953 8.136 8.351 23.323 4.398 15.188 5.616 39.914 5.616 39.914 4.256-7.35 3.593-21.464 3.593-21.464s2.64 5.957 6.285 13.666c3.189 6.744 10.069 20.493 14.364 27.227.937 7.954 1.668 18.766-.561 24.875l5.143-11.12c.013.828.034 1.711.113 2.652.449 5.631 5.937 14.458 6.146 20.595.097 2.903-1.883 6.349-4.181 9.541-13.373 9.165-10.503 10.314-22.815 16.596 1.344-2.616 2.204-5.906 3.294-10.53 1.276-5.4 3.645-11.351 5.155-14.872-3.806 8.115-9.909 18.211-8.457 9.186.06-.392.116-.801.17-1.23 1.084-9.06-.148-26.571-.592-32.165.685 13.605-8.073 40.202-9.841 44.643-1.851 4.635-4.684 7.591-12.274 10.51-7.601 2.911-18.386 6.585-22.492 7.604-4.114 1.03-19.89-1.105-32.442-5.21-12.352-4.044-29.675-7.517-30.216-7.619.672.433 29.325 18.955 37.216 20.069 1.827.263 3.968.406 6.251.479-14.818 2.067-34.937 6.409-50.351 6.885-10.232.311-23.828-3.642-31.971-6.404-.856-1.604-2.179-3.848-2.434-7.832-.296-4.692.523-6.963 2.952-10.693 2.44-3.721 6.944-7.076 11.116-12.036 3.374-4.019 3.433-9.571 5.148-11.789 8.82 2.297 20.837 5.584 24.023 7.264 5.203 2.749 13.056 1.37 17.61.23 4.562-1.142 18.376-8.09 21.427-9.785 0 0-11.559.481-20.81 2.004-9.241 1.521-13.817-1.761-24.183-2.668-10.356-.909-14.767-7.538-15.811-8.082-1.043-.544 2.823-3.078 5.363-4.918 2.548-1.85 3.505-1.769 9.976-1.403 6.478.355 9.79-1.144 18.504-4.477 8.705-3.331 16.89-11.327 16.89-11.327-20.245 11.173-29.012 5.49-35.554 6.138-6.541.657-3.656-6.333-5.076-10.612a4.832 4.832 0 0 1-.2-2.142l2.168-4.039c1.934-2.045 5.065-4.001 9.027-5.836 7.856-3.62 13.239-10.965 13.239-10.965-7.901 6.767-13.639 3.667-15.063 3.357l32.977-61.548c5.522-2.559 14.343-6.863 24.915-18.906.859-.981 1.656-1.875 2.405-2.714l-.12.544c.54-.604 10.043-5.287 13.583 3.183.928 8.185 1.093 13.767 1.093 13.767 4.333-6.886 4.855-20.985 4.855-20.985Zm-1.435-72.234-11.083 20.76-.093.187-.056-.163c-1.715-5.613-2.897-11.4-3.701-16.867 4.632-1.125 9.877-2.465 14.645-3.87.108-.037.207-.072.317-.1l-.029.053Zm3.455-2.772c-.984.457-1.964.876-2.931 1.264-8.42 3.437-15.643 4.531-15.643 4.531l-.928-7.555c.268 1.978 1.003 6.035 2.563 5.721 1.43-.293 9.638-2.359 14.491-3.587.119-.029.22-.056.321-.082l-.014.031c1.071-.271 1.988-.499 2.627-.671.211-.053.386-.092.54-.136l-1.026.484Zm4.764-13.3c-6.84 3.415-15.562 7.045-24.392 8.746-.097-1.224-.16-2.416-.221-3.541-.012-.189-.013-.37-.023-.549l17.289-33.649c.009.056.027.11.036.166 2.124 8.846 5.519 19.678 8.063 27.424l-.752 1.403Zm.665-10.222c-1.363-4.688-4.377-15.229-5.982-22.549a.558.558 0 0 0-.029-.119c-.505-2.311-.868-4.283-.986-5.637-.193-2.163.201-4.46.814-6.593l.007-.01c.117-.392.245-.775.373-1.159 1.405-4.152 3.536-7.431 3.634-7.59-.009.059-.09.377-.242.965l.002.009c-.044.198-.1.436-.162.695-.467 1.86-1.288 5.277-2.465 10.469-.399 1.745-.375 4.269-.093 7.142.008.046.004.085.012.131.835 8.257 3.788 19.419 5.117 24.246Zm9.425 3.829.002.009a.79.79 0 0 1-.021.223c-.02.051-.104.122-.204.206-.924.762-4.604 2.808-6.617 3.903-.148.091-.289.162-.411.23.318-.272.752-.649 1.26-1.095 1.625-1.374 3.88-3.319 4.618-3.994.554-.52.44-2.486.145-4.45.607 2.065 1.191 4.221 1.228 4.968Zm14.393-40.002.001.01-15.081 28.572c-2.446-8.192-3.867-16.83-4.694-24.344 6.193-1.497 13.663-3.404 19.666-5.355.032.367.064.733.108 1.117Zm32.979 53.21s-5.323-5.505-5.137-13.416c.183-7.928-.431-4.24-.933-3.814-.478.403-6.818 8.477-7.275 16.947.067-3.942.555-14.944 3.636-19.697 3.407-5.263 2.384-7.89 2.154-8.358.683 1.023 7.842 11.826 8.428 15.908.627 4.275-4.183.956-.873 12.43Zm-10.36-35.412c-.267-1.158-.633-2.395-1.078-3.476l.918.65s3.146 3.584 3.482 3.71c.051.02.252.083.588.151.352 1.907.46 3.549.314 3.879-.182.402-.804 1.258-1.472 2.074-.626.77-1.281 1.489-1.691 1.776-.444.321-.875-1.602-1.377-3.494.399-.59.73-1.131.843-1.427.126-.335-.076-1.971-.527-3.843Zm32.475-88.825c1.365 1.865.003 10.798-1.461 12.804-1.453 2.004-7.631 5.272-8.498 10.032-.861 4.74-1.258 4.004-4.448 5.721-3.182 1.707-5.366 1.475-6.077 4.75-.711 3.274-.129 6.985-3.819 9.719-3.673 2.723-10.522 6.139-11.66 8.559-1.108 2.367-3.421 9.873-3.471 10.092.422-.28 14.104-9.591 17.669-12.505 3.626-2.953 3.687-13.533 7.742-15.613 4.053-2.097 4.731 2.084 7.711-3.863 2.974-5.927 7.207-12.605 7.84-12.996.635-.371-1.841 5.684-.939 14.12.895 8.448-2.631 21.687-5.801 26.712-3.18 5.016-11.647 16.226-11.647 16.226s12.394-4.158 16.124-13.138c3.486-8.377 4.713-11.011 5.574-17.831 2.081 1.279 5.967 3.797 9.847 6.965 3.89 3.175 7.763 7.002 9.837 10.906 5.115 9.632 8.415 25.392 5.648 34.318 0 0 5.172-5.382 3.631-14.744a91.64 91.64 0 0 1-.757-5.933c.798 2.644 3.657 6.743 4.381 12.996.521 4.503.26 10.508.035 14.065-3.122-2.625-6.282-3.45-6.282-3.45s5.701 9.775 3.983 17.708c-1.551 7.152-4.966 10.862-12.598 12.538 4.492-7.483 6.064-16.766 6.19-17.855-.21.578-3.78 9.951-17.036 13.278-13.686 3.436-.028-1.56-.028-1.56s21.859-24.661 8.315-50.554c0 0-1.789 28.131-10.926 37.533-9.128 9.392-13.433 4.911-17.133 2.659-3.024-1.85-11.713-16.274-14.782-21.473a24.938 24.938 0 0 0 6.95-1.592c7.247-2.796 17.65-14.124 17.65-14.124-18.304 10.091-36.809 8.883-34.663 8.129a9.235 9.235 0 0 1-2.081.342c-.123-.113-.237-.228-.356-.313a37.252 37.252 0 0 0-1.509-.935l-.011-.007c-2.445-1.525-5.973-3.663-7.714-5.427-1.192-1.216-2.978-2.734-4.032-4.793-.529-1.067-.879-2.269-.856-3.637a8.223 8.223 0 0 1 .398-2.336c.07-.269.157-.55.23-.801.195-.786.33-1.533.404-2.241.134-1.272.028-2.437-.313-3.469-.426-1.427-1.31-2.627-2.658-3.626-.068-.065-.143-.119-.219-.174a10.915 10.915 0 0 0-1.835-1.062c-.1-.031-.196-.092-.298-.132-2.714-1.242-7.863-3.552-12.282-6.23l-4.877-3.49c-1.449-1.269-2.489-2.547-2.877-3.8-.027-.11-.067-.237-.098-.365-1.374-5.221 2.499-9.446 3.8-9.889.082-.023.294-.01.63.059 1.007.206 3.093.826 5.733 1.679 5.631 1.811 13.8 4.674 19.715 6.762 2.321.83 4.286 1.527 5.625 2.012.922.326 1.54.548 1.765.635-.209-.109-.815-.371-1.703-.778a500.856 500.856 0 0 1-5.406-2.478c-5.717-2.684-13.584-6.492-18.499-9.461-2.3-1.396-3.958-2.601-4.435-3.41a7.575 7.575 0 0 1-.3-.552c-2.038-3.976-2.681-11.301-.884-12.379 1.892-1.142 4.965-2.296 7.389-2.113.56.041 2.713.717 5.742 1.735 5.411 1.809 13.514 4.73 19.838 7.047 2.123.785 4.033 1.492 5.571 2.087.987.372 1.803.696 2.445.943a92.809 92.809 0 0 1-2.322-1.182c-1.47-.76-3.277-1.712-5.274-2.776-5.792-3.082-13.198-7.1-18.523-10.01a1077.846 1077.846 0 0 1-5.228-2.841 176.374 176.374 0 0 1-1.645-.893s-1.578-6.113.387-9.069c1.962-2.975 5.806-8.311 6.181-8.172.07.017 1.008.559 2.566 1.447 1.332.792 3.098 1.837 5.147 3.045 5.431 3.208 12.705 7.582 18.256 11.056a231.754 231.754 0 0 1 5.052 3.223c1.331.897 2.335 1.609 2.854 2.039 0 0-.413-1.525-2.038-3.805-.976-1.356-2.367-2.968-4.368-4.69-.256-.224-.544-.463-.822-.704a2335.453 2335.453 0 0 0-10.034-8.05c-1.684-1.363-3.303-2.68-4.722-3.82-.528-.429-1.033-.832-1.497-1.214-1.681-1.345-2.839-2.299-3.086-2.525-.685-.622 1.834-2.067 5.631-3.169.884-.25 1.847-.485 2.853-.689.276-.064.562-.121.841-.167 1.604-.283 3.776-.411 6.115-.348 3.832.104 8.156.699 11.301 1.898.631.24 1.209.507 1.743.791.955.53 1.715 1.149 2.183 1.845.513.745 1.281 1.697 2.211 2.774.26.301.53.609.823.943 4.368 4.918 11.225 11.631 12.272 13.061Zm-14.213-48.095s3.297 8.262 3.222 11.575c-.062 2.872 1.025 11.098 1.31 13.235.035.328.066.514.066.514s-.054-.211-.165-.593c-.666-2.485-3.179-12.011-2.892-15.369.333-3.889-1.399-8.498-1.541-9.362Zm7.012 33.035c-.325-.29-.652-.598-.99-.915.381.29.718.597.99.915Zm-9.137-48.091c-.167.438-.273 1.066-.334 1.858-.216 2.744.153 7.301.653 11.731a277.827 277.827 0 0 0 1.75 12.428s-1.341-5.074-2.53-10.907c-.688-3.312-1.311-6.863-1.614-9.865-.214-1.997-.267-3.763-.108-5.058.824-6.584 6.896-9.338 7.619-10.278-.444.665-3.949 6.088-5.436 10.091Zm75.726-144.69c2.248-.37 8.96 2.446 10.106 3.497.777.721 2.751 5.471 3.941 8.471-5.816-3.173-11.302-5.609-15.721-7.076.095-2.257.486-4.697 1.674-4.892Zm-167.237 12.503c-3.934 1.363-6.499 3.808-8.436 5.424-1.857 1.584-5.918 4.847-6.18 5.052.117-.334 2.791-7.385 7.891-10.189 5.22-2.882 12.751-4.713 12.751-4.713-2.062 2.6-2.099 3.074-6.026 4.426Zm11.739-17.004c-2.016-2.511-3.687-4.03-3.687-4.03s2.018.031 3.732 1.056a927.082 927.082 0 0 0 3.94 2.318c-2.024.686-1.967 3.176-3.985.656Zm6.354 8.694s1.203-3.528 3.859-3.965c2.666-.439 7.704 2.061 7.704 2.061-4.758-.046-11.563 1.904-11.563 1.904Zm116.622 31.257c-3.035-1.17-11.343-8.35-13.798-11.733-2.459-3.401-11.786-2.343-18.941-6.87-7.153-4.508-7.037-8.095-7.037-8.095s5.863 2.355 12.942 6.417c7.068 4.055 5.09-.837 9.248-.091 4.156.737 16.745 15.264 16.745 15.264-2.7-14.666-23.787-21.937-24.334-23.755-.536-1.81-5.224-2.936-8.233-2.441-3 .494-5.116-.827-6.343-1.093-1.237-.273-2.854-2.85-6.545-5.104-3.697-2.234-3.969 1.846-7.278 1.914-3.307.076-3.352-1.586-7.528-3.893-4.186-2.307-21.936-1.942-27.082-8.688-4.259-5.595-19.528-11.772-24.649-13.734 2.271.991 6.189 3.236 7.684 7.273 2.15 5.818-22.587 5.578-22.587 5.578 1.146-17.55 18.318-25.776 18.318-25.776s-17.462 5.011-21.146 11.551c-3.665 6.537-4.276 19.401-8.763 24.595-4.498 5.186-4.601 2.36-15.768 13.451-11.184 11.104-6.418 12.99-8.666 13.36-2.182.36.845-11.386 1.018-12.072-.356.621-6.035 10.742-10.155 16.429-3.867 5.31-4.017 17.145-4.014 19.31-.264-8.962.195-21.534.195-21.534-4.452 8.946-12.981 51.131-13.043 52.257.006-.02.022-.042.026-.071.644-2.348 7.986-16.911 8.448-17.817-3.986 12.351-8.432 24.578-11.459 32.612.011-17.373 3.523-38.632 7.284-54.495 3.924-16.558 10.983-51.565 10.983-51.565-12.073 17.527-13.528 34.651-13.528 34.651-1.604-16.755 2.342-28.193 2.589-28.892-15.184 25.804-16.01 68.247-14.267 97.962a376.018 376.018 0 0 0-1.637-7.162c-4.328-17.89-16.484-68.441 1.161-118.012-.22 6.895.364 11.893.364 11.893 1.468-14.789 14.906-41.117 15.818-42.879 23.883-33.112 61.568-50.934 92.808-60.274 0 0-28.671 2.459-55.558 17.206.832-.68 33.462-27.191 64.76-22.908-2.848 3.159-6.494 8.595-7.958 16.678-13.675 2.518-61.21 16.714-90.969 94.226.595-1.08 10.381-18.478 15.35-21.843-.278.456-9.155 15.081-9.152 17.885-.007 2.854 9.405-14.96 12.975-19.23 0 0-2.148 7.117-3.876 11.799 0 0 26.659-35.658 42.85-50.887 0 0-8.129 12.28-8.57 16.092-.271 2.41-.888 4.515-1.326 5.618 2.136-2.785 10.872-12.417 14.081-14.653-.474.593-15.689 19.429-15.56 26.591 0 0 15.544-15.913 23.278-25.2 7.734-9.286 9.9-9.108 12.628-15.252 2.727-6.153 4.752-8.977 5.587-9.295.808-.305 1.93 8.077 5.324 16.876-.387-1.31-.769-3.86.205-7.627.194.369.396.727.593 1.057.029.062.119.2.232.362.101.155.194.312.294.457 1.526 2.315 5.788 8.969 7.461 13.625 1.973 5.494 3.139 19.068 3.139 19.068s2.074-10.406.986-17.83a150.97 150.97 0 0 0-1.327-7.594c2.653 1.977 5.15 5.153 7.028 11.979 5.89 21.353-3.421 16.713 8.66 23.749 12.079 7.026 10.17 1.169 15.693 11.659 5.524 10.49 2.713 9.522 13.932 14.801 11.219 5.28 43.933 27.673 43.933 27.673s-4.898 9.592-6.794 16.792c-.418 1.576-.733 3.431-.976 5.369-1.619 2.451-3.625 5.099-5.753 4.286Zm-3.447 46.051c4.061-1.174 14.652-2.898 16.35-3.245-1.968.563-15.521 4.692-16.109 4.999-.659.347 1.149 6.345 1.122 6.817 0 0-1.659-4.048-2.48-6.374-.254-.674-.419-1.21-.457-1.442-.034-.204.573-.457 1.574-.755Zm-11.353 14.194c-.185-2.221.227-4.588.869-6.773l.017-.013c1.423-4.803 4.046-8.803 4.15-8.982-.016.079-.162.637-.423 1.72-.487 1.912-1.349 5.421-2.581 10.746-.421 1.844-.397 4.482-.112 7.488.809 8.51 3.799 20.008 5.158 24.965-1.395-4.827-4.451-15.685-6.064-23.223-.523-2.422-.903-4.497-1.014-5.928Zm-12.919 80.425c-2.252-6.669-3.708-13.718-4.648-20.298 5.682-1.355 12.257-3.019 17.86-4.742l-13.212 25.04Zm14.296-27.089c-9.913 4.513-19.143 5.87-19.143 5.87l-.889-7.542c.298 2.097 1.039 5.963 2.583 5.661 1.794-.343 13.963-3.377 17.609-4.291l-.16.302Zm-20.171-4.778c-.093-1.263-.16-2.483-.209-3.648l17.946-34.93c2.234 9.458 5.863 21.128 8.473 29.16-7.206 3.628-16.652 7.616-26.21 9.418Zm35.517-15.176c-.244.489-4.706 2.94-7.026 4.2-.736.397-1.263.675-1.368.73.124-.115.852-.731 1.787-1.543 1.665-1.419 3.971-3.402 4.726-4.089.603-.566.427-2.855.088-5.032-.277-1.853-.669-3.6-.786-4.135.154.471.601 1.914 1.092 3.56.794 2.684 1.679 5.915 1.487 6.309Zm14.694-36.951c-.216.255-.444.55-.664.891-1.711 2.59-4.203 6.921-4.672 8.42-.143.462-.266.988-.38 1.512l-8.822 16.706c-2.973-9.193-4.607-19.122-5.503-27.636 7.566-1.789 16.987-4.189 23.547-6.528l-3.506 6.635Zm13.402-25.387c-6.878 3.994-19.622 10.604-32.699 13.281l13.315-25.916.205-.377.307-.051c3.373 1.486 7.282 3.619 11.172 6.098 3.025 1.916 5.866 3.938 8.274 5.869l-.574 1.096Zm-4.553-12.014c-4.966-3.161-9.745-5.656-13.618-7.222-.01.002-.011-.007-.011-.007a52.402 52.402 0 0 0-2.273-.828l.413-.793c1.138.309 2.431.744 3.838 1.295-.256-.282-2.642-2.894-2.216-4.424.439-1.618 4.67-20.305 4.67-20.305s1.725-3.604 4.257-6.654c.004.028.567 4.028-2.649 8.888 0 0 5.278-2.652 2.548 2.958-2.738 5.621-1.222 15.874-1.222 15.874s3.213-9.686 8.023-15.067c4.817-5.39 2.916-11.488 2.916-11.488s1.053-.383 2.71-.694c1.206 3.56 3.03 11.282-.879 20.101 0 0 7.232-11.464 7.937-18.888 5.114 2.898 10.67 6.4 14.61 9.358-.863 3.395-2.79 10.351-4.992 14.472 0 0-.607-6.702-.11-12.202 0 0-4.88 4.953-6.591 11.884-1.712 6.93-7.563 15.372-7.563 15.372s-.542-5.844.314-9.858c-.661 2.704-2.712 11.455-1.938 11.986.873.61 2.637 3.906 4.116 5.475-3.072-2.842-7.346-6.088-12.29-9.233Zm15.732 7.598.076-.346s11.038-20.686 18.555-29.202c-.178 5.41-12.218 23.017-18.631 29.548Zm18.003-42.523c.035-2.915.128-6.231.128-6.231l-3.449 3.964a129.873 129.873 0 0 0-6.683-4.09c1.679-1.039 4.143-2.589 4.934-3.292 1.251-1.093 10.681 3.231 10.624 5.024-.04 1.037-1.791 4.015-3.309 6.268a78.407 78.407 0 0 0-2.245-1.643Z"
    fill="#535353"
  />
  <path
    d="M171.993 965.445c-2.57 7.721 11.683 13.844 12.984 7.379 1.302-6.463-5.367-2.561-3.806-6.647s6.454 1.072 8.846.908c3.292-.226 5.3-5.478.414-9.146-4.885-3.667-15.867-.214-18.438 7.506ZM496.85 687.525c-.088-1.12-.146-1.775-.146-1.775.072.56.115 1.159.146 1.775ZM505.726 711.733a81.216 81.216 0 0 0 1.389-3.121s-.57 1.21-1.389 3.121ZM446.414 687.489c-3.951-8.135-5.812-6.465-9.318-13.337-3.505-6.872-7.082-11.032-8.78-17.876-1.699-6.843 2.182-5.541-4.6-11.806-6.783-6.265-13.375-13.132-13.375-13.132.399 2.425 6.452 11.786 7.584 17.224 1.133 5.439-2.25 2.197 5.665 12.054 7.914 9.857 8.409 12.862 11.748 18.724 3.339 5.861 5.286 14.801 8.936 18.949 3.651 4.148 6.091-2.665 2.14-10.8ZM465.473 724.652c5.167-1.064 4.859-6.183 3.049-7.439-1.809-1.256-2.235-6.005-4.004-8.097-1.768-2.092-4.304-2.348-5.407-.4-1.105 1.95 1.974 2.26 1.431 4.37-.542 2.11-3.245-1.331-3.881-2.677-.635-1.346-2.86-1.498-5.418.892-2.557 2.39 3.086 6.228 6.111 9.46 3.024 3.233 6.065 4.314 8.119 3.891ZM454.817 727.049c-.045-.02-.079-.03-.097-.027-.02.003.023.013.097.027ZM454.817 727.049c.653.28 4.046 2.697 7.017 2.541 3.178-.167 8.161.972 10.137-1.668 1.976-2.641 1.998-4.668 1.998-4.668-2.016 1.821-2.856 3.206-6.816 4.037-3.664.767-11.416-.077-12.336-.242ZM462.649 688.025c-.505 2.336-.602 7.161-.602 7.161s3.156-3.547 8.998-7.002c5.842-3.455 13.761-5.114 15.159-10.686 1.398-5.573-1.393-14.955-3.628-22.043-.291-.923.508 3.084-1.669 10.418-2.176 7.334-.848 7.827-6.315 11.398-5.468 3.571-11.437 8.417-11.943 10.754ZM466.105 645.189c-3.825 5.972-5.012 7.414-10.279 12.199-5.267 4.784-8.52 13.155-8.52 13.155s3.795-5.076 9.233-8.821c5.438-3.744 13.998-8.003 15.569-13.603 1.572-5.601-3.339-20.287-3.339-20.287.511 4.191 1.161 11.385-2.664 17.357ZM462.029 608.462c.748-3.447 1.744-10.259 1.744-10.259s-7.037 13.505-11.01 18.434c-3.974 4.927-11.19 8.253-14.725 9.071-3.535.82-2.835 6.641-3.367 7.737l.18 1.098s16.733-7.978 19.843-11.34c3.11-3.36 6.586-11.293 7.335-14.741ZM354.993 751.273c.373 1.185 4.348 6.942 7.206 8.074 2.857 1.132 22.287 2.329 22.287 2.329s-14.602-3.594-19.826-5.406c-5.225-1.81-9.667-4.997-9.667-4.997ZM364.892 727.027c-2.46 2.363-6.015 7.457-4.08 5.864 1.934-1.593 8.62-8.214 9.747-8.577 1.128-.364 7.686-.553 7.686-.553-2.829-.958-7.707-3.183-8.314-3.262-.607-.078-2.579 4.164-5.039 6.528ZM477.955 612.964c-.095-.578 1.192-8.625-2.454-14.911-3.647-6.286-6.073-15.978-6.073-15.978-.216 2.292-3.168 4.558-.365 9.32 2.802 4.763 8.987 22.148 8.892 21.569ZM428.186 840.739c-.108.256-.16.455-.14.578.073.44.083.202.14-.578ZM341.033 844.981c.009.057.022-.072.04-.329-.03.168-.047.291-.04.329ZM400.009 789.273s12.203-5.926 17.967-9.131c5.765-3.205 20.931-5.552 20.931-5.552-29.86-2.535-38.898 14.683-38.898 14.683ZM369.649 431.723c-3.078 5.823-7.3 10.465-16.707 18.232-9.406 7.766-16.004 24.539-16.004 24.539s11.909-12.305 19-20.239c7.09-7.934 13.711-22.532 13.711-22.532ZM362.429 433.306c1.421-2.91 2.387-14.347 2.387-14.347l-1.818 4.82c-.256 2.051-.367 4.259-3.291 9.582-2.923 5.322-5.445 10.723-5.445 10.723s6.747-7.869 8.167-10.778ZM522.532 448.994c-.14.027-.241.055-.323.083.11-.031.209-.047.323-.083ZM522.517 446.604c2.216.685 16.498-1.492 17.644-1.661-1.156.148-12.696-.06-16.241-1.123-3.582-1.074-8.333-3.972-8.333-3.972.077.462 4.554 6.021 6.93 6.756Z"
    fill="#535353"
  />
  <path
    d="m540.161 444.943.039-.005c.064-.011.044-.007-.039.005ZM553.633 833.545c-34.23 16.88-12.33 61.735-12.33 61.735s10.715-.741 19.883-7.158c0 0-14.98-22.684 3.188-35.285 18.169-12.601 36.996-6.294 43.555-2.467 0 0 6.404-2.086 11.945-10.661 0 0-32.01-23.045-66.241-6.164ZM679.347 778.631s17.704 39.288 22.215 114.493c-72.689 19.832-115.582 15.657-115.582 15.657-13.657 10.631-22.524 12.496-21.546 12.749 50.057 12.883 156.23-13.336 157.634-13.685l.013.009-.001-.011-.001-.003c-.118-1.443-9.317-110.417-37.564-153.701-.55-.847.525 8.148-5.168 24.492Z"
    fill="#535353"
  />
  <path
    d="M578.339 885.503c-41.329 33.384-93.949 24.256-93.949 24.256-1.608 7.626-12.645 20.075-12.645 20.075 76.732 10.271 124.913-32.421 124.913-32.421-9.811-3.701-18.319-11.91-18.319-11.91ZM429.258 862.604s69.953-5.652 99.111-23.13c0 0-2.527-18.667-14.937-27.803 0 0-9.337 2.901-13.906 9.923 0 0 4.5 4.153 5.078 9.313 0 0-34.943 18.762-75.384 12.408-.002.001-4.008 7.96.038 19.289Z"
    fill="#535353"
  />
  <path
    d="M491.293 857.709c-8.033 3.367-17.558 1.281-17.627 2.221-7.205 97.014-110.28 79.493-110.28 79.493-2.27 6.917-8.475 14.141-8.475 14.141 136.582 19.23 136.382-95.855 136.382-95.855ZM347.645 905.073s10.038.529 18.209-5.314c0 0-4.994-34.483 33.27-39.691 0 0-1.818-8.561.806-15.809 0 0-55.072 5.793-52.285 60.814Z"
    fill="#535353"
  />
  <path
    d="M332.947 912.673c-5.631 7.197-1.437 17.97-.345 17.778 59.217-10.429 76.636-35.924 76.636-35.924-8.223-18.14-29.26-24.9-29.858-24.393-5.875 4.984-8.543 14.355-8.543 14.355 5.703 1.515 12.65 10.595 12.65 10.595-24.709 19.289-50.54 17.589-50.54 17.589ZM362.095 927.027c-2.723 2.084-18.716 4.307-18.716 4.307-25.999 47.015-67.631 7.745-67.631 7.745s10.133 34.231 45.538 26.972c35.405-7.258 40.809-39.024 40.809-39.024ZM576.318 850.87c-12.21 2.83-15.352 13.569-15.352 13.569 59.634 64.762 118.533 14.021 119.262 13.392l.006.004s30.05-72.734-50.909-108.683c0 0-9.167 6.416-7.933 18.889 0 0 52.373 17.553 43.722 63.142l-12.98-10.542-7.602 11.575-.003-.002-8.532 10.917 14.144 8.917c-40.411 22.806-73.823-21.178-73.823-21.178Z"
    fill="#535353"
  />
  <path
    d="m642.32 850.643.003-.001.003.003s11.085-17.166 15.355-29.728c0 0-4.888-11.054-14.865-14.524 0 0-8.236 20.778-17.059 32.351l-.004-.002c-8.132 12.067-25.183 26.54-25.183 26.54 6.485 8.338 18.522 9.424 18.522 9.424 10.366-7.947 22.841-23.577 23.228-24.063Z"
    fill="#535353"
  />
  <path
    d="M624.782 832.876c6.347-7.997 6.27-14.732 6.27-14.732-5.728-4.987-17.736-20.799-11.624-42.048 6.112-21.248 32.402-14.33 32.402-14.33 3.139-10.74.407-21.128.407-21.128s-49.508-6.368-54.527 31.468c-5.018 37.835 27.072 60.77 27.072 60.77Z"
    fill="#535353"
  />
  <path
    d="M662.673 663.675s-8.255 14.445-14.962 18.412c0 0 25.512 46.918 7.136 96.767 0 0 10.503 5.427 17.154 13.534 0 0 24.996-59.321-9.328-128.713ZM570.553 725.371c-5.187 6.58-6.446 15.666-6.446 15.666 12.63 8.827 31.123 5.237 31.123 5.237 7.209-33.221-9.857-101.295-9.857-101.295-12.029-.201-18.284 6.145-18.284 6.145 18.982 36.27 12.408 75.384 12.408 75.384-5.073 1.107-8.944-1.137-8.944-1.137Z"
    fill="#535353"
  />
  <path
    d="M597.072 687.9c-.867.367 4.161 8.721 3.546 17.409 0 0 109.077-36.697 47.084-159.911 0 0-4.854 8.194-10.678 12.561 0 0 49.635 92.021-39.952 129.941ZM600.244 573.01c2.916-9.613-.803-18.952-.803-18.952-53.011 14.996-40.847 69.019-40.847 69.019 6.025-4.808 14.717-5.83 14.717-5.83-7.332-37.915 26.933-44.237 26.933-44.237Z"
    fill="#535353"
  />
  <path
    d="M609.193 615.783s18.567-24.674 9.465-84.107c-.168-1.096-11.716-1.616-16.73 6.025 0 0 9.891 23.924-.461 53.511 0 0-10.829-3.67-14.091-8.586 0 0-8.023 5.53-10.861 12.693-.287.729 12.86 18.489 32.678 20.464ZM648.753 509.545c-4.473-35.864-40.145-34.49-40.145-34.49s50.541 26.849 14.341 66.546c0 0 3.02 15.861 1.919 19.109 0 0 28.357-15.3 23.885-51.165ZM317.311 946.871s9.522-1.771 13.454-10.188c0 0-15.475-33.83 15.314-50.64 0 0 .802-13.763 7.137-19.168 0 0-59.455 13.943-35.905 79.996Z"
    fill="#535353"
  />
  <path
    d="M629.312 511.928c-70.116-1.136-64.268 59.652-64.268 59.652 3.09-7.733 15.869-12.904 15.869-12.904 6.055-34.553 43.059-30.738 43.059-30.738 6.713-6.421 5.34-16.01 5.34-16.01Z"
    fill="#535353"
  />
</svg>
