<svg
  width="807"
  height="881"
  viewBox="0 0 807 881"
  fill="none"
  xmlns="http://www.w3.org/2000/svg"
>
  <path
    d="m640.285 227.816 35.748-11.753c-1.517.281-27.878.431-34.785 1.008 2.418-26.101 4.944-47.389 4.944-47.389-18.358 68.865-8.121 137.584-8.523 134.551-1.925-14.477.073-46.982 2.616-76.417ZM748.849 261.83c6.456 20.899 7.381 77.193 7.381 77.193s2.206-13.482 1.251-33.467c-.956-19.984-8.632-43.726-8.632-43.726ZM732.905 348.133c2.349.885 7.684-4.391 8.982-5.725-1.729 1.33-11.046 4.973-18.102 7.628 3.831-1.282 7.836-2.386 9.12-1.903ZM723.785 350.037c-4.182 1.4-8.158 3.015-8.158 3.015s3.606-1.302 8.158-3.015ZM741.887 342.408c.153-.118.262-.222.289-.301 0 0-.103.11-.289.301Z"
    fill="#535353"
  />
  <path
    d="M757.256 348.901c-.069.694-5.576 51.18-23.535 72.595 1.198-1.349 10.94-12.489 16.466-23.535-5.378 23.283-14.187 44.693-28.604 54.464a54.214 54.214 0 0 1-2.878 1.821l-7.07-42.337c6.609-3.949 22.886-13.661 26.85-15.837-2.673 1.127-10.514 4.058-11.008 4.242l20.476-15.22-34.417 19.075a22.429 22.429 0 0 0-.088-.861c.018.327.04.62.05.874l-2.883 1.604-9.568-57.281.968 13.415-21.778 7.469 16.313-2.606-20.705 10.353c.075-4.256-6.811-27.387-7.028-28.111.255 2.922-.047 23.885 2.075 30.584l-6.785 3.392 7.092-2.546c1.541 3.47 6.206 17.613 9.494 27.759-.264-1.552-.418-2.783-.412-3.54.018-4.96-3.682-19.881-4.345-25.919l26.604-9.555 2.821 39.142c-4.527 1.81-13.6 5.174-21.971 8.229-.624-1.945-1.584-4.92-2.696-8.358.391 2.327 1.032 5.384 1.784 8.692-8.354 3.057-15.798 5.735-17.005 6.173a64.966 64.966 0 0 1-1.076-3.108c.056.242.173.71.36 1.376.139.497.317 1.099.536 1.797 1.541 4.905 5.132 14.424 11.92 23.204 6.796 8.781 16.788 16.84 31.139 18.826 2.063.286 4.075.221 6.055-.136 1.425 3.391 4.117 9.826 4.121 9.466.009-.323-.641-6.386-1.058-10.279 29.693-10.435 48.617-91.248 41.068-153.213.029 1.422.293 17.184-1.282 37.89Zm-91.777 74.196 17.54-3.843c2.192 9.389 4.945 19.812 5.278 21.058l-4.133-21.315 21.624-4.74 3.19 44.173c-25.725 6.799-39.64-24.81-43.499-35.333Z"
    fill="#535353"
  />
  <path
    d="M739.369 395.631c-.045-.006-.356.151-.88.438.619-.261.966-.426.88-.438ZM673.637 300.614l-35.441 9.717s16.211-2.644 20.705-3.064c4.495-.42 14.736-6.653 14.736-6.653ZM645.776 317.401c.851.118 2.362-.22 4.211-.805-3.312.367-5.204.668-4.211.805Z"
    fill="#535353"
  />
  <path
    d="m753.967 341.634-41.954 17.148c-.353-12.707-.611-23.038-.611-23.038 1.776-.837 2.942-1.443 2.942-1.443 9.162-4.525 18.055-15.33 15.395-39.4a65.76 65.76 0 0 0-.395-3.014l21.07-9.337-21.648 5.891c-3.183-16.446-10.622-25.343-16.961-30.072a13.105 13.105 0 0 0-8.382-2.604c.179-.057.32-.1.405-.125-.138.018-.416.069-.795.134-.938.069-1.864.239-2.766.502l-2.066-12.457 11.257-3.441c-1.173 6-1.996 10.19-1.996 10.19s2.349-5.17 4.389-10.924l21.979-6.712-21.397 5.05c.914-2.697 1.706-5.42 2.115-7.719.853-4.726 1.72-15.236 2.253-22.668l15.96-4.233-15.818 2.295c.258-3.691.412-6.241.412-6.241a553.112 553.112 0 0 1-1.194 6.349l-23.727 3.439-12.803-76.939 16.278 124.924c-4.899 1.108-10.668 2.763-13.001 4.823-4.021 3.567-9.88 24.978-7.156 47.415-2.701.411-6.033.826-7.415.635-1.921-.266-12.089 4.561-18.345 6.538 7.128-.791 20.851-1.888 26.479-2.337.021.111.034.213.055.314 4.408 24.222 14.278 24.947 19.408 25.82 2.256.385 6.095-.754 9.679-2.143 1.008 8.169 6.713 54.577 7.835 65.054-.335-6.055-.874-24.075-1.315-39.989l41.834-21.685Zm-56.168-100.199-4.592-27.586 22.554-5.974c-1.645 8.56-4.14 21.371-5.957 30.728l-12.005 2.832Zm-12.093 71.354c-.068 4.015.345 7.87.972 11.295-2.76-8.222-5.29-19.733-4.476-33.316 0 0-1.997 10.523-1.359 23.902-.053-.332-.116-.657-.169-.998-3.079-18.958 1.711-44.442 5.047-49.052.993-1.378 3.023-2.74 5.376-3.966-2.238 2.415-5.821 7.901-7.387 19.215 0 0 2.496-5.519 5.396-10.369-2.187 5.896-3.711 13.715-3.428 23.995.711 25.966 4.183 38.302 10.503 42.244-7.605-4.119-10.475-22.95-10.475-22.95Zm15.248-5.027c1.297 2.237 3.514 5.711 3.514 5.711-3.737-1.617-8.232-3.503-7.456-7.997.616-3.543 1.3-9.727 1.343-10.037-.002.081-.045.454-.117 1.175-.443 4.378 1.42 8.912 2.716 11.148Zm.07-10.6 3.412 6.174c-.92-.127-2.14.345-2.621-1.788-.474-2.123-.791-4.386-.791-4.386Zm5.083 30.812c-2.742-1.967-10.914-8.178-8.364-8.285 2.553-.126 4.81 6.512 8.175 5.083 3.366-1.438 4.573-3.319 6.576-7.49 2.002-4.162 3.138 1.382 2.526-5.668-.602-7.058 1.024-8.249-1.373-8.265-2.388-.024-3.672 1.233-3.496-2.387.193-3.619-2.729-7.668-4.042-6.262-1.294 1.4-2.883-.877-1.493-12.098 1.398-11.211 3.489-19.476.869-14.298-2.612 5.187-3.989 14.028-5.693 11.41-1.696-2.607-3.199-13.588-1.404-16.191 1.786-2.604 1.055-3.977 5.823-4.265 8.581-.526 21.83 17.439 21.977 32.355.156 14.918 1.374 24.434-1.928 27.622-3.284 3.191-.597-1.356-5.621 2.867-5.014 4.215-3.081 5.114-6.209 5.944-3.12.84-3.589 1.885-6.323-.072Z"
    fill="#535353"
  />
  <path
    d="M727.742 183.658a388.977 388.977 0 0 1 5.022 19.706c4.452 19.551 9.131 46.868 8.142 72.354 0 0 2.11-32.004 2.166-49.838 11.317 39.38 15.002 75.383 15.002 75.383-3.379-94.393-36.507-142.277-52.754-162.27C689.073 118.999 676.26 128 676.26 128c22.582 6.785 39.28 29.15 51.482 55.658Z"
    fill="#535353"
  />
  <path
    d="M734.889 294.769s11.117-2.475 12.461-3.029c1.344-.554 4.791-4.09 4.791-4.09l-17.252 7.119ZM686.132 247.614c-1.399-.194-41.472 13.064-41.472 13.064s15.098-2.238 22.512-3.907c7.415-1.671 18.96-9.157 18.96-9.157ZM698.118 200.74s4.583-15.844 4.694-18.68c.11-2.837.039-15.523.039-15.523.066 1.277-4.741 21.209-5.152 22.421-.411 1.21.419 11.782.419 11.782ZM661 338.184c-1.005 6.219-4.163 16.365-4.561 19.469-.397 3.104 7.21 28.663 7.21 28.663s-3.821-25.438-3.447-28.142c.375-2.705.798-19.99.798-19.99ZM663.689 407.342c-.253-.644-.721-1.623-1.32-2.801l1.32 2.801ZM652.151 384.725c.89 2.162 1.593 3.847 1.811 4.317.621 1.333 5.778 10.333 8.406 15.499l-15.78-33.473s3.358 8.296 5.563 13.657ZM658.306 188.774l.405-34.802s1.666 7.625 1.879 9.133c.214 1.509 2.989 14.99 3.044 13.097.054-1.894 1.749-12.645 1.749-12.645s-4.988-11.253-4.891-12.718c.097-1.466 2.261-9.469 2.261-9.469l.02-.145c-.02.145-.338.796-.816 1.71-1.575 3.019-4.879 8.91-4.879 8.91s-.227 11.165.14 12.906c.368 1.741 1.088 24.023 1.088 24.023Z"
    fill="#535353"
  />
  <path
    d="M766.92 289.949c-5.072-48.106-16.882-92.326-33.26-124.521-16.686-32.768-36.236-49.287-55.034-46.512 0 0-.009-.001-.019.007-3.924.584-7.71 1.991-11.317 4.19-8.6 3.205-19.545 7.32-23.234 8.876-5.186 2.205-33.171 40.198-32.387 125.749v.011c-35.669-7.08-58.031 1.034-63.513 3.408a43.012 43.012 0 0 0-4.617-6.147c1.798-4.556 3.469-1.722 3.421-7.853-.047-5.93-2.508-17.589-8.76-19.884.058-.039.11-.074.165-.113 5.303 1.882 8.285 3.758 11.653 2.098 1.193-.588 2.411-1.491 3.409-2.553l.001.002.011-.008c.192-.09 2.26-1.212 5.576-5.409.756-.97.954-2.268.508-3.412-.739-1.835-1.967-4.892-3.441-8.326-2.379-5.562-5.38-12.103-7.871-16.012-5.376-12.726-10.553-31.324-23.541-45.762l-.002-.002c3.259-8.614 10.693-33.046.012-54.484-13.228-26.548-34.021-23.51-34.021-23.51 16.096 16.895 3.708 48.032-1.073 58.326-7.399-1.565-15.854-2.267-25.555-1.867-40.385-35.399-9.043-77.51-8.512-78.212-.009-.001-.009-.001-.019.006-.028.006-.049.02-.078.035-61.881 23.313-49.495 67.533-34.368 92.534l.003.006c-4.371 5.045-15.855 29.405-17.604 34.857 0 0-6.376 7.91-4.724 20.392l.014-.003.003.001.009.001c.384.161 7.192 2.854 21.612 4.082 1.316 3.279 4.665 10.493 4.869 18.363-3.415 4.567-11.01 13.022-21.238 14.487 7.136-8.34 8.059-19.507 8.059-19.507-2.473 10.003-12.321 16.515-18.613 19.713-3.916.147-7.47.58-10.652 1.259 7.855-7.603 13.692-12.511 17.174-18.228 5.313-8.725 4.405-18.254 4.405-18.254l-5.792-.801c-.859 3.518-1.957 6.86-3.799 10.313-4.224 2.384-13.283 7.729-27.294 15.887-20.45 11.905-22.644 27.763-22.904 29.639-.259 1.875 10.903-17.726 21.221-23.587 6.955-3.95 14.289-7.223 19.957-10.2-3.144 3.152-7.078 6.562-12.058 10.369-11.053 8.451-20.542 20.249-24.032 34.066-2.966 2.719-10.343 7.929-14.12 14.889-3.191 5.88-5.658 11.472-6.5 13.43-11.056.109-23.18 2.305-34.246 8.555-9.555 5.396-15.578 14.544-19.373 23.613-5.822 1.421-22.665 5.694-30.185 9.331-9.17 4.435-20.711 14.564-35.085 26.834-10.425 8.901-21.087 15.93-26.161 19.123-2.158-1.887-4.237-3.331-6.045-3.932-8.18-2.716-15.289-4.017-16.288.915-.9 4.44-8.83 11.467-8.375 18.207-2.399 1.639-14.219 10.72-14.297 17.393-.046 3.887-.504 6.7.09 9.769l-.012-.027c.013.038.015.084.028.121.3 1.874-1.621 9.375-8.167 20.948-6.711 11.856-19.693 23.188-21.314 31.842-.851 4.583-3.449 10.188-8.662 15.647-1.333-1.392-3.76-3.644-7.983-6.79-7.66-5.708-26.61-7.696-40.91-2.07-14.299 5.627-14.807 24.569-11.078 34.263 3.144 8.175 11.996 14.084 14.693 15.737l.002.008c2.836 12.564 9.23 33.578 14.931 38.211 7.665 6.23 13.057 11.668 17.558 10.044 4.501-1.624 4.857-4.579 9.183-2.401 4.319 2.176 9.616 6.537 13.853 5.589 1.572-.351 3.259-.551 4.952-1.119-.579 2.003-.775 3.598-.439 4.6 2.322 6.915 30.776-10.588 28.738-13.261l.022.011.009.001c2.117 1.006 12.731 6.065 27.592 13.102-2.653 10.37-3.269 20.949-.904 29.614 4.364-3.89 8.375-7.576 12.517-11.108 2.006-1.716 4.129-3.371 6.429-4.659 1.682-.94 3.283-1.946 4.763-3.058a344.1 344.1 0 0 0 1.956.921c-3.076 1.947-6.008 4.167-8.798 6.595-16.491 14.329-28.366 31.687-34.373 52.925-2.552 8.985-4.167 18.046-4.721 27.334-.565 9.296 1.743 18.178 4.86 26.694 4.151 11.338 9.091 22.389 13.91 33.467 5.362 12.309 14.295 21.756 24.568 30.124 14.381 11.681 30.944 18.935 48.379 24.65 15.311 5.023 30.851 8.843 46.817 10.962 4.262.563 8.566.951 12.864 1.121 4.441.181 8.887.003 13.229-.01-5.506-7.484-10.795-14.45-15.813-21.614-1.342-1.909-2.913-2.487-4.967-2.636-12.636-.946-24.987-3.431-36.733-8.205-16.462-6.681-31.988-14.775-44.917-27.563-13.05-12.886-22.019-28.139-28.71-44.854-6.174-15.435-6.836-31.451-1.297-47.16 2.339-6.597 6.213-12.819 10.222-18.643 5.837-8.476 12.865-15.903 21.777-21.492 5.198-3.269 10.639-5.357 16.314-6.395 2.085.974 4.169 1.948 6.237 2.912a.036.036 0 0 1 .009.004c-1.88.248-3.783.644-5.716 1.241 3.569 9.835 7.032 19.375 10.478 28.874 6.849 1.258 14.972.05 23.217-3.597-1.118-3.943-2.165-8.017-3.439-12.02a145.968 145.968 0 0 0-1.246-3.717 2919.306 2919.306 0 0 0 18.575 8.468c-1.301 2.281-2.869 4.342-4.889 6.128-8.077 7.136-17.754 9.22-28.127 9.039-14.672-.256-25.636-7.702-34.915-18.308-.756-.863-1.525-1.715-2.781-3.127-6.286 6.302-11.992 12.8-16.86 20.698 1.288 1.38 2.503 2.893 3.928 4.172 10.04 9.009 21.885 14.741 34.597 18.85 8.39 2.712 16.978 4.793 25.818 3.781 11.876-1.359 23.536-3.724 33.504-11.069 6.359-4.687 11.327-10.575 15.673-17.716-.545-.58-1.094-1.145-1.64-1.715l.02.008.008.002c3.234 1.412 6.719 2.96 10.434 4.601a159.25 159.25 0 0 1 2.36 2.51c9.77 10.573 19.621 21.086 28.747 32.201 5.308 6.437 9.251 14.001 14.401 21.969-3.565-.123-6.107-.142-8.648-.295-14.312-.897-28.025 1.572-39.503 10.387-20.166 15.453-25.527 32.097-16.554 57.429 6.895 19.478 20.902 33.281 38.178 43.665 14.746 8.843 30.634 14.913 48.106 15.923 8.01.467 15.948-.166 23.618-2.326 7.303-2.048 14.418-4.826 21.484-7.638 2.368-.945 4.292-1.156 6.558-.058 16.046 7.733 33.11 11.43 50.78 12.585 5.114.338 10.231.658 15.345.734 2.116.031 4.272-.483 6.337-1 4.133-1.043 6.561-3.927 7.206-7.998.567-3.638-.608-7.013-3.74-9.161-3.552-2.431-7.352-2.885-11.019.018-.251.182-.617.221-1.111.397-4.579-8.574-9.005-17.271-13.805-25.748-9.738-17.2-20.335-33.788-34.922-47.437-9.362-8.766-19.671-16.228-31.11-22.043-6.332-3.213-12.922-5.92-19.336-8.991-1.244-.597-2.576-1.602-3.217-2.773-2.451-4.517-4.493-9.265-6.972-13.777a.11.11 0 0 1-.008-.015c2.389.498 4.716.772 6.959.87l.004.009c3.964 8.524 9.347 14.349 18.597 17.857 12.429 4.724 22.895 13.264 32.825 22.027 8.555 7.554 16.553 15.744 24.558 23.88 2.569 2.62 5.048 3.685 8.72 3.354 11.538-1.03 22.916.211 33.579 4.845 10.05 4.377 19.258 10.342 27.695 17.374 10.557 8.797 20.833 17.933 31.434 26.672 3.498 2.884 7.086 5.32 10.763 7.309a76.838 76.838 0 0 1-8.556-11c-4.557-7.108-10.003-13.591-16.362-19.145-.185-.16-.369-.331-.555-.492-8.586-7.522-16.571-15.736-26.36-21.801-9.981-6.181-20.386-11.122-32.362-11.56-5.626-.22-11.25-.267-16.866-.169-2.026.035-3.288-.564-4.648-2.078-12.24-13.586-25.916-25.538-40.899-36.056-9.12-6.405-18.997-11.381-28.279-15.444-.852-2.184-1.613-4.319-2.354-6.398l-.002-.006a51.096 51.096 0 0 0 10.983-3.429l.005.002c5.834 2.563 13.295 5.573 21.385 8.707l-14.747 5.863 11.32 4.383s6.66-3.079 12.518-6.77c12.512 4.728 25.608 9.466 36.028 13.154-10.228 3.705-29.745 7.264-29.745 7.264 7.157-.03 10.739 8.129 10.739 8.129l32.593-10.651c3.693 1.264 6.089 2.053 6.64 2.189 7.722 1.899 76.414 6.955 77.847 6.973a1.346 1.346 0 0 1-.361-.131l.361.131s-.009-.001-.025-.021a6.763 6.763 0 0 0-.521-.352c-.355-.24-.863-.587-1.499-1.019-4.447-3.07-19.537-14.649-24.375-16.329-.008-.01-.007-.01-.016-.012-3.2-2.135-8.55-4.928-14.88-7.961l-10.513-5.625c2.719-2.583 8.017-7.852 14.789-15.73-.154 4.9.482 14.1 6.477 20.811 8.548 9.569 19.925 12.5 19.925 12.5l-3.99-10.295c-11.957-9.981-15.831-25.167-16.768-29.794a308.751 308.751 0 0 0 7.01-9.016c13.589-18.166 4.101-32.547.363-37.027 4.232-6.234 6.748-12.163 6.833-15.299.161-5.986-4.18-15.557-6.78-20.731.68-1.322 1.121-2.498 1.258-3.483.686-4.963 1.858-19.911-5.397-21.118.378-2.097.479-3.675.48-4.596.002-1.741-.463-3.363-1.128-4.811.142-9.319-.679-41.433-5.638-55.511a66.99 66.99 0 0 0 .212-6.717c3.98-6.479 7.322-14.398 9.56-24.094a.264.264 0 0 0 .007-.03c8.932-12.417 13.961-25.724 14.339-35.508 5.334-7.377 7.272-12.623 7.865-19.947a42.04 42.04 0 0 0 2.41-9.753c7.987-16.38 13.495-36.821 13.067-58.895l.001-.002.004.004c3.19 2.47 12.481-1.635 12.551-1.666 1.309.514 2.461.927 2.723 1.18.232.221.456.423.65.585 2.142 1.803 9.83 3.165 15.269 3.169 20.287 102.93 49.199 122.983 93.641 123.529 18.808-2.775 34.316-24.476 43.668-61.094 9.195-35.969 11.461-82.274 6.378-130.374ZM640.37 139.725c3.409-4.815 11.51-6.573 10.8-6.327-5.765 1.954-8.404 7.922-8.404 7.922-22.696 27.545-23.481 69.085-23.352 78.64-1.785-47.084 17.592-75.485 20.956-80.235Zm-37.114 209.394c-.142-.146-.304-.475-.477-.924.271.453.537.887.805 1.294-.125-.143-.242-.268-.328-.37Zm.758-15.324c-.021-.111-.041-.222-.069-.343-1.016-4.597-1.677-9.535-2.04-14.466 1.8.231 6.566.151 11.158-.116.019.192.049.367.119.512.714 1.687.976 5.531 2.354 6.984.984 1.038.832 4.22.627 6.547-4.194.314-9.089.422-12.149.882Zm10.379-22.121a32.392 32.392 0 0 0-1.258-.039c.614-1.765 1.183-3.013 1.315-1.424.037.456.005.948-.057 1.463ZM603.5 289.46c1.053-4.348 3.796-6.765 6.682-8.189.28 4.424.389 10.619.389 10.619s1.432-4.737 1.556-4.133c.073.38-.171 3.449-.224 6.312-4.595.672-9.467 1.586-9.656 2.688.32-2.708.742-5.175 1.253-7.297Zm9.138 11.414c.525 2.861 1.04 6.505.75 7.294-.146.404-.521 1.877-.891 3.441-4.197-.12-8.669-.144-10.923.762a118.38 118.38 0 0 1 .148-9.282c2.532.09 7.172-1.1 10.916-2.215Zm-66.097-37.888c1.69 3.463 3.305 8.012 3.777 13.301-4.386-6.367-9.419-11.278-12.745-13.978 2.53-1.284 4.219-2.876 5.285-5.443.884 1.191 2.307 3.297 3.683 6.12Zm-2.622 69.321c.269-23.515-10.058-34.698-15.972-45.015 1.969 1.31 4.093 2.318 6.267 2.732 8.028 1.53 11.869 10.413 13.008 11.337 1.14.924-2.389-12.505-13.513-18.481-5.086-2.732-8.267-5.729-10.295-8.264-.504-3.213-.463-5.934-.21-8.083 1.356-.05 2.863-.296 4.547-.797 1.418-.422 2.711-.807 3.911-1.183 14.721 11.479 18.862 25.394 22.238 41.224 1.778 8.334-4.286 18.578-9.981 26.53Zm-35.812 33.368c2.213-4.26 4.124-8.676 5.4-13.022 4.349-14.806 3.349-27.177-2.647-36.952-.717-4.773-2.383-10.086-4.822-16.547-4.235-11.222 1.268-23.825 1.268-23.825s-5.598 5.341-7.603 18.307c-.605 3.908-.221 7.487.641 10.613-8.414-8.865-5.027-25.598-2.99-32.905h.004c.523 0 1.007-.041 1.431-.108 1.717-.277 3.199-1.073 4.392-2.334l.007-.008c2.319.014 5.007-.052 7.23-.329.09 3.024 1.489 7.367 5.222 13.718 3.575 6.081 7.677 11.366 11.44 16.262 2.042 5.008 4.16 11.921 3.586 18.668-.841 9.885-7.868 19.199-10.176 21.717 2.739-2.041 12.392-8.521 15.167-18.09.825-2.849.99-5.727.773-8.439 3.374 6.881 3.954 13.795-1.345 22.175-9.752 15.417-22.273 27.009-26.978 31.099Zm-8.559.035c-1.408-4.661-4.9-10.473-12.835-16.553-18.505-14.18-28.533-12.702-29.362-29.989-.031-.63-.04-1.27-.04-1.912 1.828 1.734 4.323 3.176 7.712 4.106 3.613.991 7.248 2.011 10.782 3.117 10.493 7.614 18.294 21.263 18.294 21.263-.626-7.725-2.554-12.762-4.662-16.041 8.56 4.183 14.803 9.775 15.702 18.206-1.454 5.685-3.456 11.855-5.591 17.803Zm-76.975-59.939c-2.749-1.141-8.847-3.829-14.06-7.234-1.166-3.614-2.917-7.166-5.496-10.355 3.911-3.379 10.688-8.99 18.168-14.095 1.794 4.404 4.663 12.996 5.152 20.365a50.942 50.942 0 0 0-3.764 11.319Zm-44.925-28.598c1.015-4.943 3.666-11.425 10.565-13.475 2.675-.794 6.233-2.18 10.162-3.986-2.466 5.856-4.826 13.584-3.132 16.684.946 1.731 1.783 4.249 2.46 6.723-5.736-4.203-12.904-5.79-20.055-5.946Zm56.297-67.267.003.008c3.766 8.578 7.883 16.059 12.161 22.57l.001.002c-1.807 8.47-6.736 23.045-21.136 15.702 0 0 12.397 16.724 24.035-7.631.27 6.909-1.407 14.629-11.817 18.743-15.347 6.064-30.292 18.629-35.643 27.196a29.052 29.052 0 0 0-1.969-1.875c-.06-2.761-.229-6.154-.635-9.773-.564-5.027 4.081-13.366 8.162-19.554 11.133-6.159 22.406-14.5 24.521-22.074 1.794-6.431 2.273-15.772 2.317-23.314Zm7.182-6.1s.001-.009-.008-.01l.002-.009a148.832 148.832 0 0 1-1.333-3.342c8.907-.41 16.758-2.049 23.854-3.972.009.002.009.002.011-.007l.006-.002-.003.003c-7.29 6.459-17.857 8.864-19.008 9.549-1.151.686 8.084 1.119 14.647-.508 5.07-1.257 12.539-7.215 17.103-10.961-1.271 4.814-1.204 9.804-.279 14.795l.001.006c-1.667 3.226-3.557 8.222-.796 13.162 3.64 6.529 6.931 10.189 7.129 13.368.189 3.178-2.373 5.669.542 7.5 2.917 1.831 1.676.672 5.286.732 3.609.069.855 2.973 1.764 4.446.9 1.471-6.516 2.447-.728 5.26 5.786 2.811 5.727 4.167 8.154 3.347-.015 2.89-2.483 4.09-9.027 2.959-14.92-2.569-27.286-17.977-36.003-33.033-.005-.007-.007-.014-.01-.02 7.527 9.463 19.017 21.212 31.341 25.979 0 0-31.336-35.267-42.639-49.23a.023.023 0 0 1-.006-.012Zm41.282 12.29c2.729 2.317 15.096 13.683 16.547 30.584-.265-.623-8.34-20.368-16.28-30.076l-.11-.209-.157-.299Zm50.737 14.103c.385-.198.784-.409 1.185-.626.849 3.296 2.296 11.252-2.568 14.06-4.993 2.882-10.865 3.084-14.159 4.039 1.504-2.723 3.243-5.493 5.067-7.673 5.229-6.248 7.064-8.054 10.475-9.8Zm-20.291 24.3c-1.052 1.035-2.848 3.373-.84 5.891.38.478.79.98 1.233 1.485-1.862 1.211-4.658 2.695-7.854 3.299 1.91-5.229 1.375-13.49-2.737-23.705a9.034 9.034 0 0 0 6.274-.783c2.774-1.42 6.301-3.203 9.104-4.316-3.176 4.865-4.634 13.262-5.18 18.129Zm-5.441 78.067c.029.792.015 1.638-.033 2.526-2.571-5.898-8.032-13.253-19.471-14.713-13.63-1.739-24.582-6.868-29.433-14.098.789-4.054 1.893-8.03 3.063-11.627 1.15 3.076 3.156 5.767 5.865 7.573 4.497 2.997 10.6 3.548 10.574 7.177-.023 2.993 12.375 7.489 16.73 8.977-3.28-1.218-10.946-4.779-12.677-11.931-2.218-9.162-9.897-4.045-13.627-9.156-1.947-2.669-3.404-6.478-4.405-9.518.911-2.34 1.744-4.29 2.374-5.704 4.017 4.9 9.801 10.232 17.981 15.901.208.474.445.918.728 1.312 5.316 7.39 21.662 15.212 22.331 33.281Zm-61.692-71.106c5.219-2.921 8.681-7.231 8.813-17.581l.011.013a105.04 105.04 0 0 0 6.729 7.382c-1.849 2.747-5.428 9.933-1.38 20.161-2.069 2.179-6.177 5.55-8.378 15.587-2.943-7.116-6.13-17.337-5.795-25.562Zm-14.212 24.11c-1.407-4.268-4.307-10.629-6.153-14.224 1.34-.844 2.689-1.657 4.036-2.424 3.55-2.023 7.001-3.373 10.154-4.649.218 2.424.707 6.04 1.792 10.398-2.285 1.976-6.131 5.669-9.829 10.899Zm50.862-18.639c-.046 3.042-1.648 10.029-7.238 11.894 0 0 6.544-.766 11.241-3.445-1.765 5.784-3.442 13.168-2.949 18.635-2.683-2.279-6.325-6.038-12.386-11.564-8.046-7.336-5.571-19.461-3.62-25.538l.002.001c5.3 4.469 10.395 7.736 14.95 10.017ZM444.6 284.725a74.9 74.9 0 0 0 5.682 11.267c-.033.469-.067.934-.094 1.422-.466 8.54-.994 16.028-.395 22.657-2.631-5.207-5.374-12.315-6.133-18.93 0 0-7.303 13.822-3.792 20.367-5.527-3.9-10.487-10.27-10.699-20.695 2.763-6.809 7.532-12.738 15.431-16.088Zm94.532-32.641c-1.753.454-4.519.781-8.312-.5 0 0 .208 3.375 1.972 4.8-4.286 1.224-7.427-1.153-10.235-1.19-2.852-.038-6.534-.727-8.189-1.067a93.75 93.75 0 0 1 1.121-2.375c2.007-.352 5.223 2.946 13.858-2.115 5.529-3.24 9.278-8.411 10.584-12.86l.003.009c-.001-.001 4.166 9.122-.802 15.298Zm8.192-36.235-.003-.001c.785 1.482 2.845 10.051.511 10.89-2.335.839-3.35-3.632-6.828-3.69-3.478-.059-1.645.297-4.745.293-6.362-.009-7.849-6.252-9.809-8.883 0 0-3.25 8.844 4.119 10.716a60.675 60.675 0 0 0-7.705 5.97c-3.245-.388-9.404-.49-12.687 3.588-2.949 3.663-6.102 5.062-7.985 5.597l-.002-.003c-2.07-4.924-4.966-10.278-8.801-15.942-11.969-17.699-7.952-29.188-4.073-35.121a46.577 46.577 0 0 1 4.212-.572c9.968-.84 21.131-1.966 30.204.472.002 0 .004 0 .006.002l-.19.051c-6.872.134-17.487.451-17.487.451 2.569 1.418 6.272 2.678 8.865 3.413-1.034.902-2.405 2.312-3.837 3.583-2.605-.336-6.082-1.175-9.084-3.25 0 0 3.137 3.491 6.927 4.963-.796.539-1.569.936-2.269 1.066-2.927.545-10.048 1.619-10.048 1.619s1.959 5.311 7.345 4.17c5.387-1.141 2.514-3.281 9.498.062s20.693 1.596 20.693 1.596-2.372-9.196-7.635-10.085c0 0 8.02 1.583 8.474 4.022.321 1.72 3.509 2.575 5.368 2.932 2.147 3.651 4.689 8.088 6.966 12.091ZM509.79 84.301c.995 3.761 1.841 10.189-2.08 14.83 0 0 5.591-3.082 7.577-8.632a41.954 41.954 0 0 1 4.075 6.868c-3.667 8.584-12.519 11.467-12.519 11.467s11.546 1.501 15.86-1.25c.36 1.797.611 3.588.769 5.359-.354 1.128-1.043 2.591-2.388 3.751-2.848 2.457-9.104 4.629-9.104 4.629s8.978-2.599 11.403-3.946c-5.442 6.238-17.561 6.844-17.561 6.844 2.905 1.68 11.673 4.679 16.983 4.16a76.258 76.258 0 0 1-3.422 13.181c-2.37-3.345-7.452-9.508-12.079-12.013 0 0 1.386 3.3 3.284 6.584a62.787 62.787 0 0 0-9.779-4.748c-.002-.002-.004-.002-.007-.003 2.423-6.245 5.317-17.315 5.317-17.315-.971 2.893-3.853 7.589-6.324 11.358 9.433-24.205 1.852-47.362 1.852-47.362 3.108 1.944 5.802 4.038 8.143 6.238Zm-89.938 31.092c4.748 3.614 11.706 5.975 21.451 3.696 0 0-16.832-3.906-24.597-16.793-.616-6.656.571-12.827 2.862-18.44.011-.008.002-.01.002-.01a.054.054 0 0 1 .005-.01c4.724 7.968 14.513 9.174 14.513 9.174-8.547-5.419-9.6-13.338-8.858-19.293l.001-.013c-.007-.01-.007-.01.003-.018 2.591-3.666 5.569-6.989 8.61-9.934 3.899-3.457 9.746-6.861 12.95-8.629a5.675 5.675 0 0 0-.139.162l-.028.033c-1.884 2.093-12.405 12.599-12.95 25.383 0 0 2.013-2.832 4.257-6.015-1.8 11.594.552 24.771 5.443 37.201a.105.105 0 0 0 .004.017c.001.005-.001.009.003.013l.001.002c1.646 7.563 3.888 15.9 5.976 19.33 2.453 4.032 1.496-1.614.273-6.979 12.891 19.186 33.778 23.936 13.171 29.15-13.933 3.531-23.248.69-30.915-10.476v-.001c9.046 2.264 20.569-4.083 20.569-4.083-13.291 1.049-21.699-3.075-26.694-7.316a.008.008 0 0 0-.002-.005c-2.012-4.627-3.968-9.987-5.914-16.139l.001-.008.002.001Zm-12.958 73.878-.002-.001.878-3.778s17.555 3.485 30.032 3.099c.583-.018-5.133-1.642-11.595-3.422 19.704-1.117 51.996-5.154 80.769-18.906.802-.384-29.928 11.814-64.575 13.266-2.436-1.194-7.816-3.093-7.816-3.093-.938-.092-5.47-2.729-8.101-2.089-2.631.641-4.513-.643-5.891.153-1.377.797-2.322 1.458-3.662.481-1.122-.819-3.235-1.161-4.127-.674 2.928-5.15 7.203-12.471 10.924-18.075 2.089 4.143 7.75 10.636 23.11 14.795-1.262-.437-11.896-9.042-15.677-16.585 1.983 2.19 3.607 3.679 4.61 4.285 8.763 5.336 31.14 11.915 40.878-1.155 9.73-13.063-1.038-22.691-1.038-22.691s26.932-6.839 45.119 35.819c0 0-1.093-14.335-8.503-23.056 2.361 2.69 18.083 20.854 24.684 35.022-5.446-4.128-12.352-8.151-19.718-9.288 0 0 12.691 7.458 15.697 11.682 0 0-8.99-3.69-18.519-5.053-9.05-1.297-14.77-1.89-30.213 2.325l-.007.001c.001-.001.005-.003.005-.005l-.012.007c-.811.22-1.65.454-2.519.701-.172.051-.35.095-.525.151-6.692 1.171-22.771 2.727-31.784 2.605 4.533.296 11.624.763 16.776 1.122-.009 0-.018.007-.018.007-13.762 2.95-28.349 4.82-39.666 4.319-8.69-.381-15.316-1.262-19.514-1.969Zm-22.878 52.617c14.565-2.554 28.86-3.203 38.35-11.427-.054.094-.1.19-.155.284-8.131 13.717-32.911 18.754-42.593 29.183-5.607 6.041-8.78 12.93-10.458 17.662a78.358 78.358 0 0 0-6.702 1.07c-2.159-6.57-3.638-18.174 6.314-29.659.659-.761 1.307-1.494 1.949-2.216 3.548-2.167 7.906-3.953 13.295-4.897ZM55.188 484.648c19.912-8.019 37.127 3.447 36.898 5.106-.143 1.034-5.886 7.057-10.185 11.439.09-2.502 1.62-7.554 1.62-7.554-1.617 2.523-5.563 6.625-7.688 8.232-1.882 1.423-8.808 7.921-10.37 9.39 1.46-1.362 7.607-6.944 9.977-6.64-.807.446-1.496.88-2.051 1.316-2.127 1.681-5.171 3.597-8.219 5.602-.011.017-.021.025-.021.025-3.146 2.072-6.298 4.251-8.401 6.35-2.206-3.608-6.1-11.781-3.788-21.743 0 0-4.145 13.935-2.808 23.038-6.914-10.795-10.796-28.185 5.036-34.561Zm51.072 92.802c-1.657.042-3.254-.477-4.683-1.171-1.677-2.938-1.678-19.17-1.657-21.405.02-2.235-2-3.353-2-3.353s-2.658 6.895-3.02 11.401c-.258 3.294.308 7.812.635 10.013-1.434-.009-3.21 1.415-5.937 2.608-1.188-2.628-3.53-8.194-4.514-13.482-1.355-7.225-1.334-10.832-1.892-12.082-.549-1.248-1.69-4.086-1.916-4.867-.21-.768-.826 12.418-.536 15.283.193 2.066 1.296 8.371 2.457 12.24-2.312-2.593-4.903-6.236-7.595-9.406-.808-2.701-1.588-5.408-1.903-6.921-.798-3.747-6.25-19.966-6.883-20.55-.64-.593 3.38 14.895 3.92 17.514.304 1.449.898 3.814 1.719 6.355-6.032-7.917-15.398-30.994-14.686-37.247.495-4.424 14.196-12.742 24.324-18.379l.048-.02.025-.015 8.731-3.393h.007c6.22-1.783 13.344-3.846 18.942-5.372 3.12 1.577 10.808.864 18.698 2.849 5.452 4.743 11.153 11.46 14.495 14.051.895.701 1.679 1.685 2.346 2.869l.02.041a78.626 78.626 0 0 0 2.304 6.047c-.001 0-.008-.001-.001.008.231.871.432 1.765.607 2.655-2.356 2.478-5.259 5.478-7.542 7.89h-.001c-3.459-1.346-9.895 12.633-16.932 21.629-7.13 9.136-13.154 24.109-17.58 24.21Zm71.44-95.714c1.919-1.087 5.813-4.194 7.168-5.892v-.004c1.289-.575 2.721-1.522 4.405-2.913 6.661-5.505 21.668-16.812 21.19-23.295.031-.004.064.005.095 0 8.554-1.713 17.044-14.877 20.902-21.647h.001c1.171.27 2.522.548 4.047.813 6.054 1.045 14.79 1.812 25.402.691 17.607-1.858 40.376-8.939 64.669-28.657-4.638 10.627-10.093 23.902-11.076 29.703-1.759 10.431 7.502 23.64 11.527 33.481 4.025 9.841 5.754 24.787 26.704 55.575l.01.013c.117.284 9.355 22.61 6.066 37.27-3.308 14.752-5.743 16.317-6.005 27.371-.225 9.494-10.778 11.017-2.261 18.065-1.834 3.352-3.749 7.695-4.542 10.535l-.01-.001c-5.09-2.4-10.402-4.895-15.873-7.475-.632-10.95-2.872-21.627-6.639-31.902-6.283-17.119-13.619-33.742-25.05-48.29.664-2.254 1.554-4.45 1.912-6.71.942-6.024 2.489-12.116 2.321-18.139-.497-17.401-7.157-32.786-16.823-47.044-3.62-5.336-6.87-10.92-10.174-16.457-.887-1.476-1.363-3.194-2.132-5.069l-4.769-3.096c.974 11.873 6.765 21.138 12.93 30.183 4.612 6.774 8.348 13.877 10.042 21.98 1.34 6.419.945 12.861.33 19.264-.797 8.236-1.32 16.581-4.368 24.388-1.288 3.313-.136 5.548 1.79 8.124 5.238 7.013 10.955 13.814 15.123 21.446 7.016 12.8 12.011 26.519 14.705 40.959.358 1.917.705 3.842 1.024 5.771-2.574-1.214-5.184-2.44-7.818-3.681a72.341 72.341 0 0 0-1.092-5.997c-2.822-12.534-7.951-24.18-14.04-35.398-7.518-13.87-16.288-26.912-26.371-39.071-9.499-11.429-20.879-20.736-32.714-29.547-3.713-2.769-7.433-5.557-11.4-7.929-3.956-2.379-5.52-2.099-8.754 1.26-7.221 7.519-11.576 16.498-12.69 26.891-.588 5.423-.704 10.892-1.025 16.342-.457 7.868.232 15.605 1.701 23.243-1.16-.549-2.304-1.086-3.43-1.62-.093-.429-.179-.855-.273-1.284-.48.141-.961.292-1.438.478-11.483-5.432-20.96-9.91-27.378-12.946l-.005-.003c2.945-6.717 8.905-16.741 5.132-19.392-4.236-2.977-9.708-4.656-13.059-1.807-2.205 1.875-6.309 4.096-9.708 6.352a134.946 134.946 0 0 1-2.658-2.625c2.265-2.485 6.148-8.259 8.701-11.261 1.325-1.557 2.438-3.993 3.169-6.662 1.105-1.336 2.256-2.8 3.174-4.09 2.625-3.662 6.584-8.735 9.335-10.294Zm154.276-73.486c.016.084.037.177.053.262.134.668.27 1.351.419 2.066l-.001.009c-2.001 21.828 8.137 62.731 7.949 64.095-.201 1.451-8.821-23.299-11.446-38.694-1.814-10.679 1.236-22.688 3.026-27.738Zm33.943 56.078c-1.017-.8-2.869-2.156-5.007-3.724-4.716-3.477-10.844-8.024-12.731-10.099-2.288-2.509-4.798-16.905-6.003-23.974 2.433 8.366 10.607 20.694 16.88 29.151 3.01 4.072 5.584 7.251 6.861 8.646Zm-.735 157.505c.394-2.606 1.962-6.272 4.976-2.716 2.166 2.555 2.532 4.872 3.415 6.646l-.004-.001c-2.651-1.241-5.448-2.548-8.387-3.929Zm-132.442-87.251c-.327-4.746-.872-9.477-1.395-15.089 1.603.998 2.601 1.416 3.334 2.122 3.575 3.436 7.492 6.622 10.539 10.49 8.623 10.911 17.274 21.879 23.824 34.199 2.241 4.216 4.093 8.632 5.888 13.067-12.889-6.087-25.653-12.112-37.679-17.791-2.428-8.8-3.88-17.798-4.511-26.998Zm-65.636-9.26c-.924.372-1.924.742-2.53.869-1.361.287-1.945 1.078-2.278 3.487-.334 2.41-.36 3.132-1.187 4.833-2.668 1.375-5.9 3.127-8.499 4.792.044-.104.092-.2.134-.305 2.424-6.123 4.293-10.632 6.161-10.314 1.869.319 9.662-11.728 9.946-10.725.248.878-1.054 4.802-1.747 7.363Zm210.613 160.686c-.986-1.543-2-3.071-3.046-4.568a1815.605 1815.605 0 0 0-3.268-4.684c3.885 1.719 7.762 3.438 11.613 5.144a202.69 202.69 0 0 1 3.378 5.971l.002.003a233.204 233.204 0 0 1-8.679-1.866Zm21.607 3.102c1.257.552 2.513 1.104 3.752 1.654a537.69 537.69 0 0 1-3.195-.503 32.307 32.307 0 0 0-.557-1.151Zm-11.624 50.036c6.744 2.837 13.2 5.995 19.023 10.536 14.073 10.97 26.179 23.833 37.4 37.611 9.842 12.072 19.603 24.214 31.491 34.412.539.472.874 1.177 1.322 1.789-.468.315-.618.492-.714.461-2.729-.622-5.469-1.226-8.181-1.908-12.775-3.203-24.214-8.818-33.446-18.451-1.602-1.665-3.315-3.237-5.019-4.808-11.237-10.271-21.737-21.378-34.306-30.11-13.973-9.728-27.735-19.816-42.972-27.6-10.078-5.148-11.951-4.983-20.622 2.452-1.975 1.693-3.716 3.771-5.196 5.93-.941 1.385-1.215 3.234-1.826 4.98 1.079.483 1.653.77 2.252 1.006 18.222 7.457 35.024 17.154 49.654 30.492 4.879 4.455 10.269 8.341 15.412 12.508 1.371 1.11 2.687 2.302 4.492 3.861-1.798.545-2.833.916-3.908 1.182-10.104 2.536-20.24 2.631-30.528.946-10.12-1.653-18.953-6.024-26.735-12.316-9.518-7.696-13.925-18.239-15.194-30.252-.781-7.398 1.217-13.627 6.597-18.919 9.038-8.917 20.108-11.59 32.317-11.01 10.038.486 19.477 3.344 28.687 7.208Zm114.457-18.598c-1.957-.271-62.241-21.526-91.398-34.394l-.119-.053c-5.621-2.483-11.478-5.08-17.488-7.743-5.585-2.478-11.288-5.018-17.05-7.583-4.335-1.926-8.704-3.867-13.063-5.814a28927.036 28927.036 0 0 1-55.262-24.717l-.026-.013a6335.72 6335.72 0 0 1-13.228-5.926c-14.52-6.503-24.654-11.054-27.042-12.115-2.297-1.013-9.453-4.457-19.369-9.276-11.296-5.479-26.179-12.744-41.538-20.229-1.757-.857-3.516-1.714-5.281-2.581-8.987-4.365-18.006-8.762-26.452-12.863-10.882-5.277-20.818-10.08-28.497-13.732-.305-.665-.512-1.19-.5-1.405.033-1.15-.651-5.007-.704-6.909-.051-1.91 3.465-4.437 5.444-8.44 1.98-4.003 1.966-2.733 4.592-3.389 2.625-.648 2.13-1.7 5.13-1.6 3 .1 4.989-1.691 7.322-2.316 2.334-.624 4.927.844 7.811 1.713 2.008.611 5.688 1.211 8.814 1.509l.017.002c3.197 1.552 6.738 3.278 10.595 5.138 2.944 1.418 6.066 2.914 9.324 4.475 1.159.558 2.334 1.126 3.519 1.696a9377.018 9377.018 0 0 0 31.908 15.224 9865.024 9865.024 0 0 0 38.582 18.242l.009.001c13.157 6.179 25.311 11.84 35.019 16.277 2.945 1.346 5.661 2.579 8.108 3.676.221.103.441.205.653.298 4.537 2.035 10.116 4.612 16.444 7.589 40.121 18.849 110.314 53.517 136.48 66.342 0 0 76.573 38.976 84.356 44.086-14.169-1.276-52.373-4.514-57.11-5.17Zm-13.044-36.969c-1.397-.716-2.886-1.48-4.46-2.284.686-1.53 1.762-3.735 2.618-4.608.852-.869 7.778-3.972 16.119-7.272-5.284 5.123-11.394 11.258-14.277 14.164Zm30.262 15.931-2.185-1.169c-8.582-4.951-14.83-8.446-15.734-8.687-.348-.093-1.68-.711-3.783-1.75l-.009-.005c4.703-1.751 9.481-7.508 13.414-13.415 4 .421 10.125.899 16.695-.719 6.994-1.723 17.244-8.017 22.649-11.557-2.057 4.753-5.108 9.892-8.412 16.824-5.878 12.334-16.772 18.138-22.635 20.478Zm33.421-45.085c-4.012 2.945-22.244 15.655-39.962 17.332 1.691-2.715 3.17-5.331 4.341-7.46.634-.218 1.264-.434 1.885-.641 3.461-1.158 6.34-3.796 8.716-7.087 9.1-2.202 17.23-8.948 23.257-16.233 1.958 5.588 2.387 9.986 1.763 14.089Zm-5.686-52.612c-8.254 14.198-69.995 66.496-66.671 65.372 3.324-1.124 42.157-30.608 52.791-41.813 5.985-6.305 12.267-13.07 16.762-18.834.288.679.619 1.408.992 2.172.706 3.963.466 9.34-2.888 13.545-4.173 5.231-8.155 18.306-6.176 14.143 1.979-4.163 9.963-14.912 11.239-18.409.418-1.145.508-2.881.444-4.698a32.918 32.918 0 0 0 2.389 3.188c5.531 6.47-4.812 15.813-10.111 22.051-2.702 3.179-9.003 7.998-14.535 11.962 4.199-8.688 5.917-18.393 6.014-19.092.163-1.175-4.275 14.865-16.837 21.684-12.563 6.818-11.45 4.119-22.079 9.937-10.628 5.818-20.782 14.66-21.462 14.309l.021.017h-.001c-5.851-3.029-12.332-6.398-18.974-9.843l-.009-.001-.004-.003c10.127-2.712 24.015-12.771 24.015-12.771-8.432 2.692-26.192 5.558-35.987 6.542l-.009-.002a7074.301 7074.301 0 0 0-24.697-12.796c16.879 2.725 39.994 4.181 64.119-1.509 0 0-44.831 1.085-61.46-4.702-16.628-5.787-22.009-5.832-25.154-10.578-1.314-1.982-3.669-4.464-6.341-6.931 19.288 7.109 42.577 10.338 65.392-1.884 0 0-2.175.044-5.831-.003 9.258-.94 17.397-.286 25.697-1.05 11.001-1.013 9.853.412 19.386-2.071 2.149-.56 3.962-1.082 5.533-1.583-13.03 12.412-23.97 21.086-23.97 21.086 43.552-16.587 61.108-37.782 68.104-52.543 2.217 3.984 3.892 8.927.298 15.108Zm-7.358-28.199c-4.951 9.168-12.534 18.831-20.698 27.842-5.142 3.786-12.85 8.674-18.478 11.479 10.971-10.49 23.334-34.497 25.379-38.55-3.117 5.677-24.472 32.556-39.863 35.909-16.01 3.488-28.567 4.92-37.144 2.782-8.577-2.138-32.889-25.677-41.103-32.729 0 0 15.421 28.959 30.862 35.748 2.877 1.264 6.12 2.203 9.576 2.878-.052.029-.111.049-.162.08-1.992 1.181-4.329 2.397-6.559 3.494-17.239-.817-43.929-3.528-58.771-12.288-23.144-13.66-24.345-14.143-21.992-24.275 2.353-10.131 4.633-26.611 5.795-35.006.597-4.316.567-9.554.089-13.885 15.468 16.541 28.614 22.14 29.143 22.358-25.457-20.116-40.145-52.4-41.025-54.381 5.026 8.798 29.703 22.489 30.482 22.922-11.616-13.473-29.243-41.202-30.39-43.021 9.217 14.043 38.109 20.549 38.109 20.549-19.61-11.186-25.406-25.503-26.898-30.565 7.775 5.948 17.631 11.083 30.517 15.691-.59-.433-19.331-14.377-18.789-23.045.566-8.791 11.1-5.556 10.266-14.793a52.843 52.843 0 0 0-.451-3.653l.001-.005c7.356 8.059 15.424 14.354 23.391 16.396 24.162 6.196 49.036 2.983 62.053-1.771.397-.145.766-.307 1.15-.461l.098-.018c15.052-2.906 19.275-13.159 19.275-13.159s-3.847 2.994-7.208 5.299c3.438-3.395 5.707-7.017 7.237-10.057a.044.044 0 0 1 .008.011c2.343 3.022 5.455 5.177 9.523 5.964 9.735 1.889 20.909 1.865 31.757-.703l.005-.001c-6.982 3.384-15.177 6.394-23.31 7.162 0 0 18.316-.374 35.896-7.636-7.653 11.508-22.818 29.484-48.385 41.4 0 0 24.373 2.507 47.357-22.4-5.835 12.014-13.096 25.888-18.403 31.477 0 0 6.325-2.328 13.97-8.636-5.005 9.909-17.842 27.802-48.489 39.773 0 0 22.362.908 40.612-15.961-2.742 12.626-11.693 38.147-38.536 57.444 0 0 25.295-1.887 38.367-27.648a107.77 107.77 0 0 0 4.02-8.898c1.001 4.455 2.794 8.913 3.422 15.421.481 4.949-.671 14.273-1.706 21.466Zm46.331-219.789c.198-1.037-1.793 34.606-11.968 53.165 0 0 11.396-50.077 11.968-53.165Zm8.307-12.036c-1.739-.531-2.776-1.968-3.797-3.726l-.001-.007a120.178 120.178 0 0 0-4.831-19.796s-7.781 55.323-24.935 86.892c-.957 1.771-4.968-1.328-9.608 2.47-4.648 3.795-6.821 11.733-6.323 16.557.505 4.824 2.929 7.063-1.42 10.26-4.342 3.207-19.969 12.792-32.891 11.31-4.681-.54-8.925-6.838-12.428-14.648l-.006-.012c3.075 2.321 8.312 5.201 16.303 6.307 0 0-12.568-5.729-18.391-11.311l-.001-.002a142.509 142.509 0 0 1-2.536-7.163c6.855-2.797 22.937-10.929 22.937-10.929-9.869 3.835-19.774 6.135-24.171 7.057-2.681-8.852-4.231-16.166-4.231-16.166s-.437 2.637-.798 6.747l-.001.009-.002.017c-1.896-8.751-4.714-19.301-8.82-26.323 0 0 8.733 27.352-4.379 46.532 0 0 4.313-.252 7.325-7.135 0 0 1.047 10.75-5.3 21.121 0 0 7.529-6.629 9.105-14.268 1.258-6.099 1.793 4.583 1.164 11.852-7.864 17.293-29.232 24.562-50.657 23.178 1.221-.939 2.017-2.105.327-4.917-3.219-5.357-10.721-11.835-16.279-10.596-5.558 1.237-4.444 2.342-8.175 1.826-3.731-.516-6.417-.571-3.448 3.167 1.067 1.345.793 2.606.389 3.775a64.977 64.977 0 0 1-2.487-1.213c-29.143-15.048-37.557-58.594-37.557-58.594l-.848.421.003-.003c5.898-4.678 18.886-5.354 27.591-14.408 0 0-29.454 7.004-52.457 6.393 21.485-6.668 39.16-37.758 39.16-37.758s-40.353 38.101-90.026 19.231c0 0 13.434 14.671 33.11 18.736a.014.014 0 0 0-.003.004c-4.196 5.87-18.791 23.258-48.953 31.4-3.3.897-6.774 1.679-10.452 2.307-2.072.372-4.209.69-6.412.963-6.452.785-13.434 1.164-20.989.993 0 0-.001.009-.009-.001a22.442 22.442 0 0 1-1.443-1.309c-4.902-4.802-12.155-15.631-9.952-29.925 0 0-3.811 15.893-.041 27.557-5.296-4.493-10.689-9.582-10.689-9.582a33.665 33.665 0 0 0 5.44 12.222 71.201 71.201 0 0 0-6.357-4.353c-8.672-5.287-16.286-13.316-16.286-13.316s5.832 11.295 11.84 18.253c4.508 5.219 5.72 10.34 5.728 14.103-3.737 3.103-7.098 5.594-9.114 6.545-6.54-11.229-21.009-30.107-21.587-30.855 2.41 4.258 21.389 37.555 14.43 43.657-3.76 3.296-19.273 17.167-21.72 13.443-1.736-2.637-10.777-20.22-15.256-30.232 2.866 10.955 7.433 31.349 11.311 34.337 1.118.86 2.119 1.594 3.069 2.182l-.001.002c-1.734 1.844-4.533 5.373-7.153 6.445-1.989.816-4.547 1.04-6.837.632-2.951-3.061-10.577-7.147-15.564-10.237-5.835-3.605-7.787-20.071-8.105-21.17-.326-1.101 1.412 22.201 7.785 24.987 6.383 2.778 11.314 13.755 10.956 19.408-.279 4.427-8.113 2.685-11.318 2.9-1.22-2.47-3.562-4.454-7.8-5.122-14.342-2.247-24.177-4.455-23.833-6.943.246-1.779-.477-7.699 1.198-12.7l.006-.014c.862 3.305 5.818 8.871 10.269 10.704 4.597 1.894 15.147.105 12.295-2.191-2.851-2.297-10.735-4.866-16.252-7.742-2.125-1.108-3.355-2.985-4.071-4.874l.001-.002c.324-.388.69-.753 1.088-1.086 5.742-4.853 16.161-15.989 17.739-21.328 1.587-5.339 4.565-17.666 4.565-17.666l-.002-.002c.001.002.003.003.003.005 4.93 7.08 19.575 40.096 19.575 40.096s-9.321-30.589-12.82-47.129c-2.323-10.986 2.735-18.251 6.397-21.896 7.303 11.461 31.027 39.389 31.027 39.389s-19.002-30.619-20.501-41.157c-1.5-10.537-2.639-17.57 2-17.505 4.318.061 29.364 15.022 32.798 17.085-2.057-1.697-9.594-12.048-16.489-18.258 8.62-3.509 30.776-13.152 42.075-23.806 14.213-13.402 23.815-17.393 31.618-19.339 3.986-.993 10.73-2.811 14.132-3.733-2.912 10.198-3.287 18.496-3.287 18.496s9.324-35.317 36.17-48.413c26.846-13.096 54.896-6.04 54.896-6.04-2.626-.984-6.042-2.013-10.021-2.888.452-.57 1.138-1.445 1.842-2.377l4.486-2.602c8.939-4.057 21.745-7.893 31.606-2.822 16.857 8.671 21.122 39.683 21.122 39.683s3.409-13.179-.246-26.037c4.601 4.444 10.245 9.913 12.792 12.381-.592 8.628 1.03 18.508 6.497 29.474 0 0-3.869-14.707-1.906-29.539.36 5.401 2.179 11.808 8.574 13.415 7.45 1.873 14.522 5.225 18.205 7.131a27.076 27.076 0 0 0 2.689 4.355c-.123 6.83-1.806 16.934-6.897 20.933 0 0 11.945-5.54 12.366-15.387a44.965 44.965 0 0 0 5.608 3.825c18.749 10.9 28.779 18.753 27.386 33.184-3.645 8.979-6.619 15.428-6.619 15.428s11.574-12.774 19.729-27.886c3.105-.475 12.091-2.198 20.381-7.122-.705 2.963-1.332 6.392-1.563 10.038-.4 6.324-6.51 14.985-6.51 14.985s6.546-6.308 9.371-14.589c1.303-3.82 2.215-8.913 2.734-13.153 4.674-3.582 8.715-8.407 10.752-14.88 12.664-6.326 15.049-15.03 16.393-33.552 2.979 1.875 9.768 8.199.134 23.423-5.466 8.637-10.891 12.487-13.284 26.734-2.394 14.245 7.477 19.626 7.477 19.626-7.426-19.619 3.452-29.522 15.826-48.724 9.817-15.232-3.673-24.383-9.775-28.288a36.401 36.401 0 0 0-.649-6.467c1.368.815 2.899 1.391 4.449 1.605 3.938.545 10.74 11.824 11.179 11.257.439-.566-2.464-11.251-9.453-13.779-2.86-1.035-5.64-3.235-7.936-5.473a49.48 49.48 0 0 0-2.352-5.437c-.053-4.494-.821-10.762-3.788-17.356 15.5-3.209 29.211-3.365 40.313-2.281-6.199 1.375-12.556 3.505-16.736 6.894 0 0 26.596-3.088 36.125-3.394.257.071.522.141.772.211-6.079 2.171-15.661 6.539-21.081 10.262l14.986-1.816-.002.001c-1.451 1.288-2.774 2.567-3.834 3.71-.412.439-.795 1.054-1.148 1.781a21.759 21.759 0 0 0-2.277 2.373c-3.428 4.163-2.815 6.586-3.053 8.564-.188 1.553 1.622 4.384 1.927 6.998-.055.66-.093 1.331-.134 2.011-.471 1.514-1.045 2.21-1.659 2.794-.614.592-1.269 1.087-1.903 2.209-1.259 2.253 1.777 3.205 3.167 4.237.025.021.039.051.063.072-.042 3.693.006 7.327.146 10.685-.704 1.374-1.776 2.985-2.278 4.593-.761 2.43 1.144 4.706 2.6 6.377.31.368.595.913.846 1.579a48.304 48.304 0 0 0 1.195 4.993c.223 1.448.363 2.848.415 3.91l.007.145v.011c-1.104-.349-2.716-.479-4.781-1.11Zm19.411 8.897c-7.856-1.583-7.407-2.026-8.47-9.473 2.95.137 7.546-.282 11.614-.919.242.99.463 1.932.576 2.679.32 2.255.399 6.831 1.378 7.453.472.3.827 1.062 1.242 1.525a1030.8 1030.8 0 0 1-6.34-1.265Zm7.481 1.487c.208-.134.438-.364.705-.724.056.305.116.594.173.9a90.122 90.122 0 0 0-.878-.176Zm135.384 67.031c-8.88 34.771-23.173 55.314-40.25 57.841a25.06 25.06 0 0 1-6.108.129c-15.224-1.547-30.972-17.034-44.933-44.464-16.13-31.708-27.775-75.347-32.788-122.904-5.023-47.549-2.805-93.249 6.247-128.673 7.743-30.327 19.617-49.824 33.859-55.982.712 8.607 3.709 55.939 8.377 81.469.663 3.62 1.312 7.21 1.947 10.709-5.292 1.144-26.987 8.283-28.338 8.728l28.763-6.45c4.034 22.167 7.262 39.982 6.866 37.041-.463-3.502-5.198-55.803-7.58-69.764-2.16-12.624-8.727-53.972-9.967-61.768a25.575 25.575 0 0 1 6.33-1.803 24.127 24.127 0 0 1 6.092-.141c15.24 1.559 30.981 17.036 44.95 44.476 14.881 29.253 25.944 68.688 31.504 111.971 2.219 24.911 1.791 60.473 1.791 60.473s1.213-7.655 1.701-19.921c1.575 36.66-1.307 71.052-8.463 99.033Z"
    fill="#535353"
  />
  <path
    d="M449.316 185.793c-2.643-.173-4.419-.287-4.419-.287 1.102.174 2.625.263 4.419.287ZM474.96 228.168c.276-1.229-7.274-5.443-7.708-3.073-.433 2.37 4.486 7.276 5.625 10.496 1.139 3.221 3.594 3.032 5.733 1.322 2.138-1.711-4.465-5.109-3.65-8.745ZM495.282 174.574l24.338 3.368c-1.801-.724-12.65-6.029-24.338-3.368ZM494.641 174.485s-11.049 2.75.64.089l-.64-.089ZM501.026 225.596s6.386.455 10.862-2.118c4.475-2.573 10.147-9.552 10.147-9.552-1.412 1.389-10.894 9.9-21.009 11.67ZM519.754 339.574c-.015.105.265-.132.735-.645-.453.337-.723.557-.735.645ZM514.979 287.363s-2.351.523-.482 8.387c1.869 7.865 6.328 10.926 5.225 17.746-1.102 6.818-1.697 14.069-1.697 14.069s7.835-12.943 4.324-21.245c-3.512-8.304-7.166-12.802-7.37-18.957ZM532.984 389.001s-32.302 15.113-34.046 15.505c-1.744.392 23.723-2.736 34.046-15.505ZM539.388 454.772c1.17-2.238-15.604 12.004-22.782 15.024 0 0 15.886-1.831 22.782-15.024ZM440.347 377.545c13.848-.46 27.784 8.123 27.784 8.123-18.953-14.823-27.784-8.123-27.784-8.123ZM433.662 369.527s-8.595-4.077-19.492-5.585c-10.898-1.508-20.277.082-20.277.082s6.647 1.2 14.983 3.938c8.335 2.738 22.692 2.031 24.786 1.565ZM409.682 385.027s8.565 6.414 16.869 6.137c8.305-.277 18.418-5.057 18.418-5.057-3.833-.531-11.914 4.055-18.133 3.195-6.218-.861-17.154-4.275-17.154-4.275ZM494.709 318.381c.922.342 1.498.5 1.498.5s-.571-.184-1.498-.5ZM417.962 566.795s4.868 15.203 43.782 21.01c0 0-6.57-3.385-9.49-4.831 2.611.401 12.298-.594 16.843-5.56 0 0-35.476-1.643-51.135-10.619ZM460.589 547.295c-18.07-3.768-46.679-15.332-46.679-15.332 4.43 4.626 15.001 9.502 16.229 9.429 6.391-.386-18.965 1.178-18.965 1.178 30.003 12.178 51.015 5.058 49.415 4.725ZM455.945 507.569c-4.825-.245-24.486-9.304-29.974-12.387-5.489-3.084-5.014 4.165-5.014 4.165 13.293 7.755 36.881 8.318 34.988 8.222ZM477.623 536.976c2.65-10.197-2.67-30.891-2.67-30.891 2.359 15.015-5.24 36.346-6.586 41.44-1.346 5.096 3.416 15.05 9.059 19.633 5.642 4.583 2.155 26.846 2.894 25.329 5.016-10.291 3.493-26.769 3.398-36.768-.095-9.999-8.746-8.547-6.095-18.743ZM477.851 498.347c4.8-9.264 2.063-25.065 1.821-26.366-.242-1.301-.861 6.218-2.015 14.563-1.155 8.344-.223 12.607.194 11.803ZM297.702 325.959c5.157-5.201 39.112-17 39.112-17s-16.723.24-22.903 2.155c-6.18 1.914-18.607 17.265-16.209 14.845ZM292.718 339.847s5.059-3.737 6.678-5.519c1.62-1.783 8.253-7.731 8.253-7.731s-3.928 1.674-7.071 3.775c-3.144 2.1-5.916 7.631-7.86 9.475ZM201.005 397.953c.173.142.31.228.402.241l-.402-.241ZM111.881 543.3c-1.122 1.243-4.642 4.452-4.642 4.452.676.261 6.016-.009 7.173-3.433 1.154-3.432 3.407-10.955 4.865-15.425 1.465-4.468 6.656-16.279 6.656-16.279s-8.504 12.472-9.739 19.479c-1.238 7.015-3.188 9.958-4.313 11.206ZM87.684 540.222c-1.35 2.838 2.752 8.675 2.983 5.662.285-3.759 3.566-11.273 6.642-16.927 3.087-5.657 10.475-17.133 10.475-17.133s-10.47 12.103-11.756 13.415c-1.287 1.31-6.995 12.145-8.344 14.983ZM77.222 527.673c-.844 1.357-2.022 2.06-3.493 5.882-1.472 3.821-.122 4.342.505 5.051 0 0 3.311-5.9 6.335-10.543 3.026-4.649 8.794-11.973 10.194-14.279 1.404-2.298-12.699 12.538-13.541 13.889ZM69.673 521.957c-1.693 1.053-2.644 5.536-2.644 5.536s3.52-2.777 5.077-4.599c1.56-1.828 6.65-8.439 7.457-10.192.81-1.758-8.188 8.199-9.89 9.255ZM191.449 457.185c-1.958 5.75-4.239 3.533-8.418 7.391 0 0 6.495-.423 8.349-1.848 1.855-1.426 3.113-6.548 3.576-12.188.332-4.038-3.689-14.768-5.834-21.156 1.539 8.094 3.718 23.714 2.327 27.801ZM187.843 424.521c-.128.477.429 2.329 1.279 4.863-.626-3.294-1.147-5.349-1.279-4.863ZM235.066 378.452s6.85-5.073 12.834-7.096c4.537-1.534 13.353-5.903 17.355-7.927-3.795 1.424-7.307.069-12.495 2.578-6.112 2.956-17.694 12.445-17.694 12.445ZM265.255 363.429a10.18 10.18 0 0 0 2.069-1.056s-.791.409-2.069 1.056ZM242.79 362.057c5.138-4.642 14.889-13.274 14.889-13.274s-9.107.817-13.583 3.834c-4.476 3.016-15.672 12.93-18.392 14.269-2.721 1.339-18.629 17.834-18.629 17.834s15.134-10.898 22.663-14.927 7.913-3.095 13.052-7.736ZM307.6 396.411c-1.859 1.222-12.085 11.003-12.085 11.003s14.608-9.386 18.234-12.687c3.625-3.301 7.78-7.374 5.057-7.54-2.724-.165-18.572-7.006-18.572-7.006l-.123.887c1.518 3.531 11.804 7.067 13.126 8.2 1.321 1.134-3.777 5.921-5.637 7.143ZM85.51 488.421s-10.633-6.666-27.529-1.274c0 0 25.07.722 27.53 1.274ZM65.464 511.261l-.318.299.318-.299ZM511.619 709.818c1.206.545 1.896.839 1.993.853-.091-.066-.773-.35-1.993-.853ZM525.957 574.385a6.64 6.64 0 0 0 .297-.593s-.104.211-.297.593ZM351.419 635.492a530.408 530.408 0 0 0-8.438-4.677c-7.007-3.812-16.017-8.596-25.615-13.623-24.161-12.664-52.018-26.84-60.723-30.77-.322-.144-.62-.275-.892-.394-2.29-.994-6.803-3.062-12.609-5.77l-.009-.001a6608.984 6608.984 0 0 1-32.404-15.23c-1.423-.667-2.837-1.34-4.252-2.005-6.546-3.099-12.904-6.117-18.501-8.768-8.773-4.155-15.661-7.445-18.465-8.762 2.667 1.334 9.136 4.53 18.22 9.035a11415.68 11415.68 0 0 1 18.93 9.378c1.428.702 2.879 1.427 4.358 2.154 9.919 4.928 21.004 10.432 32.62 16.208l.009.001c2.354 1.174 4.727 2.35 7.123 3.548 24.405 12.138 50.568 25.196 72.946 36.458a6502.892 6502.892 0 0 1 22.139 11.166c8.887 4.504 16.512 8.402 22.32 11.425 8.165 4.243 12.735 6.752 12.148 6.761-.48.006-4.142-1.63-10.206-4.489-5.159-2.428-12.062-5.747-20.203-9.707a5550.513 5550.513 0 0 1-19.911-9.73c-25.315-12.399-56.647-27.877-85.335-41.989-1.901-.94-3.785-1.868-5.66-2.786-9.453-4.646-18.544-9.108-26.953-13.212a547.803 547.803 0 0 0-4.64-2.267 3692.346 3692.346 0 0 0-21.646-10.493c-13.444-6.453-22.161-10.483-23.146-10.538-5.033-.272-12.028 5.941-12.028 5.941.017.463 12.018 6.003 29.215 13.886 8.332 3.815 17.887 8.187 27.888 12.792 2.68 1.237 5.394 2.487 8.124 3.75 1.518.706 3.036 1.403 4.562 2.111 2.059.962 4.12 1.915 6.179 2.877 20.368 9.495 40.611 19.171 54.677 26.603 12.453 6.568 36.825 17.312 64.469 28.996 4.858 2.061 9.812 4.136 14.819 6.228a3471.173 3471.173 0 0 0 17.824 7.402c46.804 19.333 123.156 48.674 133.266 52.816-12.585-5.685-110.682-49.041-144.382-66.048-7.103-3.58-12.657-6.477-15.818-8.277ZM542.438 800.789c-7.824-7.143-15.665-14.249-24.961-19.521-8.898-5.038-18.368-8.178-28.559-9.411-5.249-.636-10.419-1.739-16.098-.294 5.417 8.814 10.504 17.143 15.684 25.4.55.873 1.668 1.757 2.638 1.934 9.562 1.692 16.9 7.422 24.052 13.305 6.251 5.148 12.188 10.698 18.032 16.318 13.086 12.572 27.98 22.236 45.308 27.745 13.907 4.417 27.808 5.999 41.675 4.851-63.864-12.299-59.005-37.139-77.771-60.327ZM253.89 471.735c3.417 6.4 6.461 13.029 9.147 19.77 1.186 2.971 1.025 6.476 1.568 9.727.23 1.404.301 3.101 1.117 4.116 4.965 6.182 10.122 12.2 15.582 18.712 7.987-16.38 7.799-32.367 1.75-48.705-3.259-8.788-8.225-16.585-12.725-24.687-2.709-4.877-5.264-9.815-7.287-14.957-9.44 1.58-21.262.748-27.367-.314.519 4.268 1.927 8.504 4.493 12.712 4.745 7.776 9.429 15.596 13.722 23.626ZM304.686 716.745c-6.74-2.678-12.569-5.349-18.624-7.322-12.266-3.999-24.686-7.174-37.548-9.111-20.888-3.144-40.82-.138-60.521 6.423-.464.154-.893.415-1.529.715 2.425 9.19 7.118 16.872 12.412 24.212 30.393-7.698 59.91-5.997 89.048 6.309 3.932-8.202 9.662-14.718 16.762-21.226ZM176.482 767.166c-11.65.932-23.148-.707-34.682-1.798-7.763-.735-15.479-.911-23.249.492-11.571 2.089-20.303 8.551-27.702 17.161-2.87 3.34-5.415 6.988-7.263 11.5 19.577 4.961 37.653 3.877 55.158-8.948-7.442-1.742-13.102-5.815-20.439-3.204-5.214 1.854-10.861 2.49-16.314 3.669l-.322-1.21c3.729-3.326 7.948-5.848 12.737-7.372 4.719-1.503 9.181.128 13.632 1.351 9.874 2.708 19.759 5.391 29.574 8.305 14.392 4.272 28.804 3.464 43.265.584.598-.118 1.157-.431 1.636-.616-7.403-6.325-14.627-12.584-21.982-18.681-1.014-.843-2.723-1.339-4.049-1.233Z"
    fill="#535353"
  />
  <path
    d="M243.408 730.282c-2.877-.424-4.796.251-6.517 3.004-4.854 7.768-11.263 14.195-19.26 19.879 6.756 7.078 14.357 11.896 22.88 15.275.97.385 2.77.08 3.53-.618 10.029-9.213 19.107-19.185 24.335-32.055.053-.129-.029-.313-.126-1.119-1.886-.531-4.001-1.352-6.192-1.701-6.201-.987-12.437-1.748-18.65-2.665ZM155.828 763.487c2.461.365 4.066-.203 5.437-2.244 2.019-3.009 4.225-5.895 6.42-8.927l-12.774-26.336c-10.275 9.684-18.262 20.619-22.961 34.537 2.314.334 4.224.652 6.146.878 5.911.694 11.847 1.219 17.732 2.092ZM275.909 702.972c1.421-9.026.681-17.426-2.11-25.774l-24.384 4.286.797 15.216 25.697 6.272ZM239.219 529.423c-.592-.698-2.01-1.065-2.961-.94-.502.066-1.213 1.549-1.163 2.351.575 9.189 1.468 18.34 4.058 28.05l15.647-8.518c-4.463-7.95-10.062-14.426-15.581-20.943ZM358.699 799.884c1.331.381 3.166.471 4.292-.157 4.868-2.715 9.558-5.746 14.38-8.704-3.916-4.776-15.975-13.909-24.202-18.474l-17.064 11.035c5.519 8.093 13.074 13.566 22.594 16.3ZM395.181 764.187c2.199-3.644 3.121-7.57 3.793-11.606.275-1.659-.112-2.839-1.533-3.814-8.284-5.681-17.283-9.726-27.087-11.938-.421-.094-.923.177-1.465.294l-.697 8.967 26.989 18.097ZM447.941 809.145c2.202-1.135 4.465-2.153 7.384-3.546-5.999-7.982-11.938-15.232-20.003-21.396l-12.254 5.448c7.382 6.738 14.083 12.854 20.782 18.972 1.245 1.136 2.553 1.316 4.091.522ZM575.323 748.985c-16.96-1.709-68.176-20.261-107.603-4.7l10.218 9.693s11.254-9.269 41.025-3.875c29.772 5.393 65.962 21.547 79.199 8.73 13.238-12.817-10.561-43.345-7.177-72.408 3.385-29.063 12.337-36.222 12.337-36.222s-34.153 28.192-28.584 56.986c5.569 28.793 17.544 43.506.585 41.796Z"
    fill="#535353"
  />
</svg>
