<svg width="221" height="49" viewBox="0 0 221 49" fill="none" xmlns="http://www.w3.org/2000/svg"><path d="m98.224 35.278-4.602-17.045h2.929l3.766 14.012 3.827-14.012h2.928l-4.601 17.045h-4.247Z" fill="#363636"/><path d="M102.821 35.81h-4.93L93 17.697h3.886l3.435 12.781 3.491-12.78h3.886l-4.877 18.112Zm-4.247-1.068h3.576l4.315-15.973h-1.971l-4.165 15.255-4.099-15.255h-1.978l4.322 15.973ZM108.853 35.278V18.233h2.843v17.045h-2.843Z" fill="#363636"/><path d="M112.154 35.81h-3.745V17.697h3.76l-.015 18.113Zm-2.847-1.068h1.934V18.769h-1.934v15.973ZM114.833 35.278V18.233h2.846v7.858l5.73-7.858h3.473l-6.297 8.405 6.707 8.64h-3.607l-6.002-7.765v7.765h-2.85Z" fill="#363636"/><path d="M128.312 35.81h-4.843l-5.335-6.91v6.91h-3.763V17.697h3.763v6.947l5.067-6.947h4.69l-6.706 8.93 7.127 9.183Zm-4.426-1.068h2.362l-6.289-8.1 5.902-7.873h-2.254l-5.868 8.044 6.147 7.929Zm-8.595 0h1.93V18.769h-1.93v15.973ZM128.953 35.278V18.233h2.847v17.045h-2.847Z" fill="#363636"/><path d="M132.254 35.81h-3.759V17.697h3.759V35.81Zm-2.843-1.068h1.93V18.769h-1.93v15.973ZM134.937 35.278V18.233h2.906l6.546 11.363V18.233h2.887v17.045h-2.887l-6.546-11.363v11.363h-2.906Z" fill="#363636"/><path d="M147.712 35.81h-3.584l-5.849-10.147V35.81h-3.789V17.697h3.588l5.834 10.14v-10.14h3.8V35.81Zm-3.099-1.068h2.172V18.769h-1.971v12.576l-7.251-12.576h-2.187v15.973h1.975V22.166l7.262 12.576ZM156.472 35.65a6.525 6.525 0 0 1-4.985-2.273 8.217 8.217 0 0 1-1.558-2.78 11.765 11.765 0 0 1-.57-3.825 11.02 11.02 0 0 1 .958-4.81 7.188 7.188 0 0 1 2.571-3.022 6.472 6.472 0 0 1 3.584-1.042c1.937 0 3.461.509 4.571 1.526 1.11 1.017 1.856 2.457 2.236 4.32l-2.91.472a5.091 5.091 0 0 0-1.334-2.385 3.293 3.293 0 0 0-2.366-.904 3.729 3.729 0 0 0-2.384.7 4.283 4.283 0 0 0-1.431 2.046 9.192 9.192 0 0 0-.473 3.1 8.964 8.964 0 0 0 .473 3.076c.267.8.765 1.505 1.431 2.024a3.915 3.915 0 0 0 2.384.744 3.65 3.65 0 0 0 1.763-.372c.55-.292 1.01-.73 1.33-1.265.401-.68.665-1.432.775-2.214h-2.385v-2.485h5.399c0 .1.026.283.033.543.008.26 0 .41 0 .45a10.22 10.22 0 0 1-.879 4.343 7.016 7.016 0 0 1-2.481 2.976 6.622 6.622 0 0 1-3.752 1.057Z" fill="#363636"/><path d="M156.471 36.167a6.961 6.961 0 0 1-5.301-2.426 8.727 8.727 0 0 1-1.666-2.976 12.449 12.449 0 0 1-.603-4.023 11.622 11.622 0 0 1 1.017-5.071 7.71 7.71 0 0 1 2.75-3.23 6.903 6.903 0 0 1 3.803-1.116c2.035 0 3.667.55 4.844 1.64 1.177 1.091 1.989 2.643 2.388 4.618l.116.573-3.786.614-.115-.428a4.616 4.616 0 0 0-1.192-2.135 2.88 2.88 0 0 0-2.079-.782 3.318 3.318 0 0 0-2.135.61 3.821 3.821 0 0 0-1.256 1.809 8.603 8.603 0 0 0-.439 2.89 8.422 8.422 0 0 0 .439 2.87 3.788 3.788 0 0 0 1.256 1.786 3.56 3.56 0 0 0 2.142.658 3.226 3.226 0 0 0 1.576-.335c.477-.25.874-.63 1.148-1.094.253-.423.441-.882.558-1.361h-2.257v-3.554h6.263l.059.45c.024.203.036.407.037.61v.47a10.88 10.88 0 0 1-.931 4.598 7.619 7.619 0 0 1-2.656 3.174 7.04 7.04 0 0 1-3.98 1.161Zm0-17.756a6.095 6.095 0 0 0-3.353.975 6.76 6.76 0 0 0-2.395 2.82 10.446 10.446 0 0 0-.898 4.547c-.022 1.23.159 2.454.536 3.625.309.955.802 1.84 1.453 2.604a6.089 6.089 0 0 0 4.665 2.12 6.257 6.257 0 0 0 3.547-.996 6.597 6.597 0 0 0 2.306-2.757 9.64 9.64 0 0 0 .823-4.093v-.462h-4.564v1.414h2.485l-.108.64a6.667 6.667 0 0 1-.856 2.426 3.917 3.917 0 0 1-1.517 1.44 4.006 4.006 0 0 1-1.956.42 4.334 4.334 0 0 1-2.608-.83 4.832 4.832 0 0 1-1.598-2.261 9.53 9.53 0 0 1-.514-3.29 9.81 9.81 0 0 1 .51-3.307 4.87 4.87 0 0 1 1.602-2.289 4.193 4.193 0 0 1 2.638-.785 3.73 3.73 0 0 1 2.653 1.031 5.437 5.437 0 0 1 1.348 2.206l2.027-.33a6.933 6.933 0 0 0-1.933-3.454c-1.036-.919-2.478-1.413-4.293-1.413Z" fill="#363636"/><path d="M170.078 35.278V18.233h2.846V32.27h6.483v3.007h-9.329Z" fill="#6fadbf"/><path d="M179.865 35.81H169.62V17.697h3.763v14.039h6.482v4.074Zm-9.314-1.068h8.413v-1.938h-6.483V18.768h-1.93v15.973ZM180.141 35.278l4.601-17.045h4.244l4.605 17.045h-2.928l-4.099-15.032h.544l-4.038 15.032h-2.929Zm2.761-3.553v-3.007h7.947v3.006h-7.947Z" fill="#6fadbf"/><path d="M194.213 35.81h-3.886l-.969-3.55h-5l-.953 3.55h-3.89l4.899-18.113h4.914l4.885 18.113Zm-3.219-1.068h1.989l-1.676-6.162v3.665h-.991l.678 2.497Zm-10.231 0h1.971l.667-2.482h-.958v-3.743l-1.68 6.225Zm9.262-3.557h.373v-1.939h-.894l.521 1.939Zm-5.38 0h4.423l-.529-1.939h-3.38l-.514 1.939Zm-1.289 0h.332l.518-1.939h-.85v1.939Zm5.85-3.006h1.989l-2.541-9.418h-3.58l-2.523 9.425h1.96l1.863-6.936-.421-1.54h1.792l-.414 1.537 1.875 6.932Zm-3.756 0h2.798l-1.408-5.165-1.39 5.165ZM195.473 35.278V18.233h6.024a4.1 4.1 0 0 1 4.057 2.556c.304.705.461 1.465.462 2.232a4.552 4.552 0 0 1-.57 2.382 2.78 2.78 0 0 1-1.564 1.265v-.592a3.23 3.23 0 0 1 2.116 1.489c.475.771.72 1.661.708 2.567a6.846 6.846 0 0 1-.496 2.686 3.988 3.988 0 0 1-1.512 1.816 4.607 4.607 0 0 1-2.553.659l-6.672-.015Zm2.887-10.392h3.096c.297.006.591-.06.857-.19.254-.13.462-.336.596-.588.159-.317.234-.67.22-1.023a2.025 2.025 0 0 0-.428-1.314 1.49 1.49 0 0 0-1.245-.532h-3.096v3.647Zm0 7.36h3.491a1.865 1.865 0 0 0 1.733-1.057 2.832 2.832 0 0 0 .037-2.27 1.726 1.726 0 0 0-.667-.744 2.03 2.03 0 0 0-1.118-.28h-3.491l.015 4.35Z" fill="#6fadbf"/><path d="M202.145 35.81h-7.131V17.697h6.483a4.728 4.728 0 0 1 2.846.811 4.781 4.781 0 0 1 1.621 2.047c.331.773.503 1.604.507 2.444a5.157 5.157 0 0 1-.652 2.687 3.523 3.523 0 0 1-.373.513c.368.28.681.628.92 1.023.531.867.806 1.865.794 2.88a7.437 7.437 0 0 1-.548 2.925 4.461 4.461 0 0 1-1.699 2.046 5.018 5.018 0 0 1-2.768.737Zm-6.214-1.068h6.214a4.22 4.22 0 0 0 2.333-.592 3.457 3.457 0 0 0 1.322-1.585 6.2 6.2 0 0 0 .447-2.448 4.17 4.17 0 0 0-.618-2.255 2.607 2.607 0 0 0-1.006-.96 3.135 3.135 0 0 1-.622.272l-.578.19v-1.95l.548.13c.194.046.384.104.57.175.211-.18.39-.393.529-.632.348-.634.517-1.35.488-2.073a5.142 5.142 0 0 0-.414-1.99 3.84 3.84 0 0 0-1.285-1.612 3.938 3.938 0 0 0-2.362-.643h-5.566v15.973Zm5.92-1.96h-3.949v-5.426h3.949c.463-.014.921.105 1.319.343.373.231.67.568.853.967a3.411 3.411 0 0 1-.048 2.794 2.444 2.444 0 0 1-.883.983 2.344 2.344 0 0 1-1.241.338Zm-3.033-1.069h3.033a1.49 1.49 0 0 0 .812-.216c.227-.141.411-.343.529-.584.134-.286.199-.6.19-.915a1.878 1.878 0 0 0-.164-.822 1.248 1.248 0 0 0-.477-.536 1.685 1.685 0 0 0-.89-.216h-3.033v3.29Zm2.638-6.295h-3.554v-4.715h3.554a1.92 1.92 0 0 1 1.576.704 2.6 2.6 0 0 1 .555 1.678c.014.455-.087.907-.294 1.313-.18.34-.459.615-.801.789a2.303 2.303 0 0 1-1.036.23Zm-2.638-1.068h2.638a1.49 1.49 0 0 0 .674-.145.899.899 0 0 0 .395-.372c.11-.232.16-.488.146-.744a1.442 1.442 0 0 0-.306-.946 1.081 1.081 0 0 0-.909-.372h-2.638v2.579ZM214.489 35.65a6.661 6.661 0 0 1-3.018-.67 5.745 5.745 0 0 1-2.21-1.916 6.717 6.717 0 0 1-1.091-2.977l2.98-.495c.154.882.613 1.681 1.297 2.259.628.519 1.42.8 2.235.793.465 0 .926-.084 1.36-.25a2.61 2.61 0 0 0 1.081-.744c.285-.331.437-.757.424-1.194a1.853 1.853 0 0 0-.067-.503 1.374 1.374 0 0 0-.223-.457 1.715 1.715 0 0 0-.447-.402 3.162 3.162 0 0 0-.727-.343l-3.912-1.302a11.44 11.44 0 0 1-1.017-.402 4.437 4.437 0 0 1-1.118-.744 3.718 3.718 0 0 1-.905-1.283 4.876 4.876 0 0 1-.373-2.017 5.008 5.008 0 0 1 .764-2.854 4.654 4.654 0 0 1 2.038-1.693 6.917 6.917 0 0 1 2.824-.543 6.644 6.644 0 0 1 2.783.603 5.435 5.435 0 0 1 2.049 1.685c.583.809.989 1.73 1.193 2.705l-3.074.592a3.242 3.242 0 0 0-.618-1.396 2.989 2.989 0 0 0-1.07-.863 3.268 3.268 0 0 0-1.304-.32 3.098 3.098 0 0 0-1.259.209 2.33 2.33 0 0 0-.961.666c-.248.29-.381.66-.373 1.041-.014.33.093.653.302.908.213.239.473.43.764.562.305.14.62.259.942.354l2.608.803c.393.12.825.276 1.297.47.49.202.949.473 1.363.803a3.94 3.94 0 0 1 1.077 1.358c.306.667.452 1.395.425 2.128a5.316 5.316 0 0 1-.507 2.396c-.32.66-.786 1.24-1.363 1.693-.58.45-1.238.79-1.941 1.001a7.648 7.648 0 0 1-2.228.339Z" fill="#6fadbf"/><path d="M214.488 36.167a7.168 7.168 0 0 1-3.2-.71 6.238 6.238 0 0 1-2.381-2.077 7.284 7.284 0 0 1-1.188-3.23l-.075-.535 3.838-.64.1.469c.13.761.526 1.452 1.118 1.95a3.04 3.04 0 0 0 1.978.695c.416 0 .829-.074 1.219-.22.347-.125.659-.335.905-.61.194-.224.295-.514.283-.81a1.249 1.249 0 0 0-.044-.34.87.87 0 0 0-.135-.271 1.318 1.318 0 0 0-.324-.287 3.064 3.064 0 0 0-.633-.297l-3.905-1.299c-.359-.12-.713-.26-1.058-.416a4.923 4.923 0 0 1-1.237-.819 4.383 4.383 0 0 1-1.032-1.462 6.347 6.347 0 0 1 .451-5.451 5.099 5.099 0 0 1 2.236-1.86 7.255 7.255 0 0 1 2.98-.581 7.128 7.128 0 0 1 2.951.644 5.929 5.929 0 0 1 2.235 1.83 7.729 7.729 0 0 1 1.289 2.917l.131.57-4.005.788-.097-.487a2.674 2.674 0 0 0-.511-1.153 2.497 2.497 0 0 0-.909-.745 2.84 2.84 0 0 0-1.143-.279c-.375-.019-.75.042-1.1.179a1.94 1.94 0 0 0-.782.536.974.974 0 0 0-.238.666.74.74 0 0 0 .164.524c.171.19.38.343.614.447.286.133.581.245.883.335l2.608.803c.399.123.842.283 1.33.484a6.151 6.151 0 0 1 1.491.863c.511.415.926.938 1.214 1.53.348.75.515 1.572.488 2.4a5.966 5.966 0 0 1-.57 2.664 5.392 5.392 0 0 1-1.49 1.86 6.45 6.45 0 0 1-2.079 1.072 8.039 8.039 0 0 1-2.37.353Zm-5.778-5.648c.153.784.462 1.53.909 2.192a5.325 5.325 0 0 0 2.03 1.76 6.925 6.925 0 0 0 4.956.312 5.636 5.636 0 0 0 1.803-.927 4.383 4.383 0 0 0 1.222-1.518 4.78 4.78 0 0 0 .443-2.128 4.183 4.183 0 0 0-.372-1.86 3.449 3.449 0 0 0-.939-1.18 5.238 5.238 0 0 0-1.259-.744 13.139 13.139 0 0 0-1.263-.454l-2.608-.807a6.706 6.706 0 0 1-.995-.372 2.713 2.713 0 0 1-.917-.678c-.3-.36-.457-.818-.439-1.287-.009-.518.17-1.02.503-1.418a2.855 2.855 0 0 1 1.143-.8 3.603 3.603 0 0 1 1.42-.234 3.67 3.67 0 0 1 1.46.372c.482.234.905.574 1.237.994.269.346.472.738.6 1.157l2.161-.417a6.19 6.19 0 0 0-.943-1.924A4.988 4.988 0 0 0 217 19.014a6.343 6.343 0 0 0-2.608-.562 6.42 6.42 0 0 0-2.661.51 4.162 4.162 0 0 0-1.836 1.522 4.37 4.37 0 0 0-.667 2.523 4.43 4.43 0 0 0 .305 1.767c.178.423.444.803.779 1.116.3.274.641.502 1.01.674.319.14.647.265.979.372l3.916 1.306c.291.093.568.225.824.39.218.138.411.313.57.518.14.193.245.41.309.64.063.217.094.443.093.67a2.32 2.32 0 0 1-.563 1.577 3.087 3.087 0 0 1-1.263.86 4.043 4.043 0 0 1-3.994-.614 4.166 4.166 0 0 1-1.363-2.106l-2.12.342Z" fill="#6fadbf"/><path d="m69.349 25.453-1.175.647.759 1.373 1.175-.648-.759-1.372Z" fill="#363636"/><path d="M81.844 23.457a.638.638 0 0 0-.773-.128 6.097 6.097 0 0 1-4.159.635 6.07 6.07 0 0 1-3.573-2.208l.848-.478a.558.558 0 0 0 .3-.375.629.629 0 0 0-.054-.481l-.445-.799 1.992-1.088a.634.634 0 0 0 .246-.856l-1.542-2.772a.636.636 0 0 0-.849-.244l-1.981 1.09-.452-.806a.636.636 0 0 0-.862-.244l-1.126.615-.974-1.966a.635.635 0 0 0-.819-.302l-7.268 3.042a.649.649 0 0 0-.38.51.629.629 0 0 0 .263.586l2.519 1.784-.832.447a.693.693 0 0 0-.306.375.628.628 0 0 0 .06.48l.445.81L53 26.088c.132.413.232.836.297 1.265l.37-.2 9.064-4.965.93 1.664-8.962 4.918-.382.21c.339.27.592.63.73 1.037l.344-.191 8.885-4.88.437.813a.661.661 0 0 0 .87.247l.865-.479a6.01 6.01 0 0 1-.032 4.185 6.058 6.058 0 0 1-2.76 3.162.634.634 0 0 0-.303.719c.05.15.15.28.286.364a.3.3 0 0 0 .102.047 13.443 13.443 0 0 0 11.534-.655 13.338 13.338 0 0 0 4.423-3.914 13.236 13.236 0 0 0 2.288-5.43.63.63 0 0 0-.142-.548Zm-19.942-6.631 5.675-2.39.732 1.494-4.324 2.37-2.083-1.474Zm3.625 7.78-2.435-4.378 7.508-4.117 2.435 4.372-7.508 4.123Zm9.15 7.654a12.06 12.06 0 0 1-9.307.985 7.28 7.28 0 0 0 2.473-3.805 7.24 7.24 0 0 0-.268-4.522l4.648-2.544a7.288 7.288 0 0 0 3.874 2.677 7.256 7.256 0 0 0 4.38-.097 11.954 11.954 0 0 1-2.16 4.236 12.036 12.036 0 0 1-3.646 3.07h.006ZM14.777 25.357l-.785 1.36 1.165.67.784-1.36-1.164-.67Z" fill="#363636"/><path d="M.014 23.766a13.238 13.238 0 0 0 2.194 5.471 13.353 13.353 0 0 0 4.359 3.994 13.477 13.477 0 0 0 11.535.862.378.378 0 0 0 .104-.044.682.682 0 0 0 .293-.36.628.628 0 0 0-.289-.726 6.057 6.057 0 0 1-2.7-3.206 6.006 6.006 0 0 1 .038-4.179l.85.494a.64.64 0 0 0 .636 0 .659.659 0 0 0 .236-.224l.454-.807 8.803 5.035.342.2c.145-.406.406-.762.751-1.024l-.38-.221-8.88-5.08.958-1.648 8.994 5.147.367.21c.073-.429.18-.852.321-1.264l-9.05-5.172.461-.8a.645.645 0 0 0 .068-.481.693.693 0 0 0-.299-.382l-.826-.461 2.548-1.739a.634.634 0 0 0 .273-.582.644.644 0 0 0-.35-.537l-7.217-3.187a.642.642 0 0 0-.826.285l-1.008 1.954-1.117-.633a.64.64 0 0 0-.866.23l-.469.795-1.968-1.124a.641.641 0 0 0-.862.228l-1.594 2.74a.628.628 0 0 0 .23.86l1.976 1.125-.47.795a.643.643 0 0 0-.06.478.554.554 0 0 0 .292.381l.85.496a6.08 6.08 0 0 1-3.62 2.144 6.109 6.109 0 0 1-4.152-.711.64.64 0 0 0-.777.116.618.618 0 0 0-.153.552Zm18.139-5.391-4.286-2.449.76-1.475 5.638 2.487-2.112 1.437Zm-9.107 2.021 2.518-4.33 7.442 4.254-2.513 4.337-7.447-4.261Zm-7.538 4.34a7.423 7.423 0 0 0 4.56.126 7.374 7.374 0 0 0 3.762-2.56l4.606 2.631a7.237 7.237 0 0 0-.35 4.52 7.279 7.279 0 0 0 2.407 3.85 12.184 12.184 0 0 1-9.306-1.157 12.075 12.075 0 0 1-3.592-3.137 11.978 11.978 0 0 1-2.087-4.274Z" fill="#363636"/><path d="M59.85 43.083c-2.401-1.514-6.055-4.443-6.4-7.501a.342.342 0 0 1 .066-.24.356.356 0 0 1 .212-.135l.72-.14a.35.35 0 0 0 .193-.093.337.337 0 0 0 .1-.186c.28-1.201.367-2.438.254-3.666a.616.616 0 0 1 .099-.409c1.144-1.816-.224-2.565-.696-3.923a22.8 22.8 0 0 1-.705-2.455.255.255 0 0 1 .03-.184.264.264 0 0 1 .15-.116l.907-.283a.546.546 0 0 0 .345-.296c.53-1.043.04-1.665-1.03-1.958a44.467 44.467 0 0 0-8.386-1.464l-3.395-.078a.524.524 0 0 0-.417.18l-.21.237a.681.681 0 0 1-.51.24l-5.847.243-.227.01c-.18 0-.184-.024-.025-.088.029 0 .058-.02.09-.035a37.835 37.835 0 0 1 6.557-2.074c-2.25-.706-1.033-1.192.299-1.362 0-.287-.255-.593-.781-.92a.305.305 0 0 1-.153-.166.297.297 0 0 1 .005-.223c.57-1.856.227-3.472-1.03-4.848-.118-.133-.104-.24.061-.317l.626-.328a.25.25 0 0 0 .149-.15.24.24 0 0 0-.026-.21l-.457-.942c-.098-.205-.029-.328.21-.332 3.895-.137 10.578 4.862 10.528 8.816a.366.366 0 0 1-.087.22.379.379 0 0 1-.203.124c-.21.04-.401-.205-.458-.282-.507-.614-.979-2.404-1.31-3.085-.036-.074-.149-.305-.18-.293-.032.013.014.158.02.193.123.771.202 1.55.237 2.33a.814.814 0 0 1-.105.71c-.146.167-.365.184-.706.204-.43.04-.858.1-1.29.129-.56.032-1.117.095-1.67.188-.564.098-.89.154-.892.225 0 .16 1.608.061 3.619.45.77.147 5.53 1.125 6.263 1.34.303.088.432-.025.378-.325a2.267 2.267 0 0 0-.209-.667 1.854 1.854 0 0 0-.706-.784 2.365 2.365 0 0 0-.511-.253.503.503 0 0 1-.349-.41 6.626 6.626 0 0 0-.148-.574 6.83 6.83 0 0 0-.367-1.023 8.176 8.176 0 0 0-1.328-2.121.266.266 0 0 1-.082-.198.262.262 0 0 1 .092-.193c2.355-2.559.18-8.026-1.526-10.397a.179.179 0 0 0-.127-.088c-.086-.019-.22.118-.266.166-.288.376-1.46 4.187-1.793 5.062-.14.396-.301.784-.482 1.164a3.11 3.11 0 0 0-.249.434c-2.77-1.894-6.263-2.864-9.2-1.072a.267.267 0 0 0-.13.307l.125.628c.04.172-.031.243-.209.204-4.566-1.023-4.948-6.136-5.146-9.849a.138.138 0 0 0-.065-.12.16.16 0 0 0-.223.034 19.18 19.18 0 0 0-2.495 4.615c-.944 2.798-1.952 6.736-.695 9.691a5.823 5.823 0 0 0 2.564 2.852c.208.123.238.205.083.264a.466.466 0 0 1-.144.029l-.526.07-.178.022a.47.47 0 0 0-.377.282l-.224.511-.031.07-.192.442c-.06.133-.147.252-.255.351l-.054.047-.518.459a.75.75 0 0 0-.223.405l-.149.963-.292 1.941a.33.33 0 0 0 .159.342c.354.213.756.338 1.171.364a.233.233 0 0 1 .154.088.201.201 0 0 1-.054.268c-.59.364-1.102.84-1.503 1.4-.474.641.253 1.036-.121 2.184-.191.465-.476.889-.837 1.245a3.832 3.832 0 0 1-1.265.827.782.782 0 0 1-.145.04c-.567.17-1.344.41-1.68 1.023-.288.534-.25 1.357.15 1.776.209.227.568.368.557.632a.424.424 0 0 1-.12.256.536.536 0 0 1-.502.182l-1.922-.3a.24.24 0 0 0-.22.063.255.255 0 0 0 0 .36c4.491 4.477 9.395-2.848 11.85-5.691.6-.694 1.274-1.322 2.011-1.874a12.27 12.27 0 0 1 1.065-.712c.513-.31 1.045-.589 1.593-.836l.887-.27a22.97 22.97 0 0 0-1.791 1.593s-.418.422-.835.872c-1.925 2.117-7.366 9.99-11.416 11.187a4.852 4.852 0 0 1-2.614.135c-1.092-.277-1.616-.898-1.72-.79-.195.205 1.167 2.772 3.087 2.933 1.044.09 2.01-.566 2.8 0a.95.95 0 0 1 .378.497c.175.637-.587 1.287-.687 1.375-.779.665-1.812.638-2.056.632-.54-.012-.813-.147-.836-.076-.066.15.98 1.072 2.214 1.113 1.273.043 1.724-.888 2.35-.614.798.348.197 1.907 1.426 3.4.319.378.702.7 1.132.95 1.413.879 3.006.912 3.056.74.038-.123-.76-.221-1.474-.982a3.567 3.567 0 0 1-.855-1.678c-.038-.17-.167-.797.05-1.908a7.443 7.443 0 0 1 .868-2.358c1.917-2.954 4.48-5.34 6.37-8.884.054-.102.104-.102.159 0a.424.424 0 0 1 0 .266c-.224 1.996-.804 3.651-1.733 4.977-.545.775-3.758 5.756-2.205 8.632.773 1.431 2.779 2.432 4.353 2.53.466.03 1.336 0 1.34-.06.005-.059-.592-.077-1.06-.222-1.378-.424-2.004-2.07-2.422-3.13 0 0-.808-2.428-.05-4.84a.153.153 0 0 1 .061-.085.159.159 0 0 1 .2.016.152.152 0 0 1 .046.094 7.797 7.797 0 0 0 1.342 3.657 8.214 8.214 0 0 0 3.07 2.535c.58.29.943.384.964.347.02-.036-.48-.235-.716-.736a1.46 1.46 0 0 1-.115-.51s-.042-.431.121-.623a.086.086 0 0 1 .048-.035.117.117 0 0 1 .121.029c2.162 2.11 4.806 3.164 7.934 3.164a8.205 8.205 0 0 1-4.357-4.06.169.169 0 0 1 .014-.184.198.198 0 0 1 .27-.03c.077.058.687.381 1.902 1.024a6.165 6.165 0 0 0 2.07.638c.675.082 1.189.02 1.195-.043.006-.063-.357-.06-.664-.348-.054-.05-.34-.32-.265-.577a.528.528 0 0 1 .325-.29c.452-.143.86.409 1.462.75 1.196.667 2.691.228 2.714.046.015-.15-.967-.205-1.18-.796a.498.498 0 0 1 .023-.434c.13-.174.435-.163.804-.114.752.1 1.094.272 1.579.392.59.155 1.206.183 1.808.084a2.876 2.876 0 0 0 1.104-.384c.337-.203.627-.471.852-.79a.272.272 0 0 0-.107-.39ZM48.492 9.933l1.253-4.03a.17.17 0 0 1 .309-.03c.339.594.588 1.234.739 1.9.35 1.562.377 2.066.09 2.51-.05.08-.176.268-.337.263-.221 0-.447-.374-.522-.683-.041-.17-.025-.258-.069-.27-.106-.03-.417.49-.524.951-.177.735.115 1.414.349 1.819-.042.049-.418-.186-.535-.26-.116-.074-.835-.579-.889-1.432a1.632 1.632 0 0 1 .136-.738ZM27.127 32.262c-.417 0-1.167-.117-2.087-1.05 1.114.4 1.879.299 2.363.148 1.76-.557 2.505-2.678 4.652-4.775a4.569 4.569 0 0 1 3.056-1.344 6.902 6.902 0 0 0-2.194 1.326 7.371 7.371 0 0 0-1.313 1.636c-1.042 1.549-2.681 4.022-4.477 4.059Zm3.111-22.585c-.042.018-.044.096-.046.129-.133 2.311.86 3.729.86 3.729.229.322.488.622.775.896.998.976 1.948 1.334 1.917 1.401-.032.067-1.596-.125-2.773-1.064-3.641-2.904-.662-10.407.056-11.275.105-.126.176-.13.21-.126.325.03.404 1.307.799 4.09 0 0 .154 1.077 1.252 3.202.03.06.082.141.163.153a.256.256 0 0 0 .21-.094l.227-.225a.338.338 0 0 1 .403-.082c1.421.58 2.847 1.123 4.278 1.65.17.06.316.173.417.32a3.062 3.062 0 0 1 .428 2.85c-.046.165-.13.173-.244.047l-.835-.954a.654.654 0 0 0-.389-.204c-4.674-.738-5.846-1.69-5.846-1.69-1.265-1.014-1.649-2.839-1.862-2.753Zm-1.461 32.417c-.128-.112 1.72-1.767 4.175-5.7.848-1.359 1.174-2.046 3.16-5.374.7-1.18 1.287-2.148 1.682-2.796.144-.266.324-.57.388-.548.19.071-.78 2.98-1.023 3.67-2.181 6.21-8.163 10.945-8.386 10.748h.004Zm21.65-12.99c.372-.571.938-.73 1.714-.508a.185.185 0 0 0 .232-.084.174.174 0 0 0-.069-.233l-.417-.325a.368.368 0 0 1-.165-.332l.044-2.544c-.001-.076.028-.15.08-.205a.29.29 0 0 1 .398 0l.522.508a.629.629 0 0 1 .198.409 8.65 8.65 0 0 0 1.192 3.3.362.362 0 0 1-.184.53.383.383 0 0 1-.213.02 7.256 7.256 0 0 0-2.946-.025.376.376 0 0 1-.265-.043.352.352 0 0 1-.121-.468Zm-5.092-2.686c.048-.22 2.856-.391 3.614.95.177.332.25.707.209 1.079-.019.235-.12.583-.846 1.411-.668.765-1.482 1.491-1.56 1.422-.02-.019.034-.094.472-.79.23-.33.423-.683.575-1.053.125-.249.15-.534.069-.8a.717.717 0 0 0-.103-.18 5.58 5.58 0 0 0-.968-.961 12.447 12.447 0 0 0-1.084-.819c-.313-.198-.384-.214-.378-.26Zm-4.708 8.795a8.072 8.072 0 0 0 .334-2.045 5.323 5.323 0 0 0-.209-2.105c-.221-.708-.482-.967-.61-1.761a6.3 6.3 0 0 1 0-1.457 3.418 3.418 0 0 1 .652-1.732c.237-.327.53-.61.869-.837a5.46 5.46 0 0 1 1.104-.6 5.93 5.93 0 0 0-.547.985c-.169.39-.274.805-.313 1.227-.09.867.115 1.67.432 2.487.52 1.334.706 1.228.99 2.138.536 1.73.087 3.273.041 3.273a1.348 1.348 0 0 0-.223-.712c-.044-.057-.24-.3-.417-.26-.178.041-.21.262-.24.348-.253.847-.99 1.767-1.201 2.031-.468.583-1.159 1.056-1.32.935-.16-.12.322-.804.658-1.915Zm-1.357 4.402c-.023-.063-.088-.239-.044-.266.044-.026.167.099.236.172.367.224.792.34 1.223.332.36 0 1.128-.123 1.203-.504.048-.247-.209-.57-.501-.666-.399-.13-.758.182-.835.077-.077-.104.14-.382.384-.568.276-.2.612-.302.954-.29.293.03.59.008.875-.066 1.462-.393 1.722-2.032 3.616-4.224a6.82 6.82 0 0 1 1.71-1.447c.266-.16.545-.296.835-.409v-.01a.622.622 0 0 0 .349-.307l.173-.315a.462.462 0 0 1 .303-.243.483.483 0 0 1 .125-.02c1.556-.068 3.55-.473 3.9 1.143a.86.86 0 0 1-.2.731.894.894 0 0 1-.708.306.582.582 0 0 1-.082 0 6.338 6.338 0 0 0-2.002.01 4.857 4.857 0 0 0-2.87 1.637c-1.322 1.431-1.351 2.311-2.997 4.57-.835 1.155-1.46 1.781-2.371 2.055-.528.177-1.1.185-1.633.025a2.925 2.925 0 0 1-1.012-.693 2.852 2.852 0 0 1-.631-1.04v.01Zm13.817 2.51c-.835-.648-1.633-1.882-2.386-1.929a.622.622 0 0 0-.483.131.647.647 0 0 0-.079.559c.021.09.09.362.67.928.428.41.74.735 1.268.941.277.107.474.133.471.205 0 .129-.707.276-1.371.204a2.585 2.585 0 0 1-1.194-.388c-.852-.567-.871-1.46-1.491-1.547a.579.579 0 0 0-.457.096.504.504 0 0 0-.142.358c-.048.704.728 1.305.772 1.338.326.246.537.268.52.327-.031.127-1.292.258-1.879-.386a3.99 3.99 0 0 1-.808-1.084.486.486 0 0 0-.363-.252l-.526-.074c-.21-.018-.253-.126-.13-.292 1.332-1.825 2.161-4.337 4.005-5.5a4.222 4.222 0 0 1 1.298-.547.183.183 0 0 1 .073-.014c.28-.06.564-.091.85-.094a.346.346 0 0 1 .23.083c.064.055.105.131.114.214.003.053.01.105.023.157.034.818.21 2.864 1.524 4.652a6.487 6.487 0 0 0 1.67 1.65c1.003.67 1.771.739 1.746.878-.044.21-2.363.577-3.925-.624v.01Z" fill="#363636"/></svg>