<svg width="234" height="313" viewBox="0 0 234 313" fill="none" xmlns="http://www.w3.org/2000/svg"><path d="M213.426 84.658c.026-.047.052-.096.08-.142l-.08.142ZM211.76 80.328s-1.47 1.196-2.15 3.27c0 0 1.649-1.459 2.134-2.442.485-.983 2.257-3.377 2.257-3.377l-2.241 2.55ZM194.693 51.93c-.895-.608-2.218-1.432-2.075-1.19.143.241 1.368 2.469 2.587 3.734.493.512.382-1.938-.512-2.545ZM198.829 60.584c-.998-.675-1.334-1.221-1.377-.83-.043.391.408 1.402 1.236 2.115.828.714 3.165 2.61 3.258 2.79.093.18-.878-2.302-.878-2.302-.478-.279-1.24-1.098-2.239-1.773ZM187.342 47.106c.572-.39 1.727-.602.527-1.526-1.199-.923-2.541-2.089-2.794-.816-.253 1.273.435 2.536.639 3.35.204.815 1.485 3.048 2.335 2.52.85-.53.662-2.19.662-2.19-.304-.034-1.942-.948-1.369-1.338ZM170.85 36.996c-.132.1-.208.166-.211.188-.007.061.078-.014.211-.188ZM186.619 34.454c.004.233.036.362.036.362-.014-.121-.024-.241-.036-.362ZM180.095 37.94c-1.398.373-4.009.803-4.15 1.051-.14.249-.83 1.719-.83 1.719s1.03-.792 3.527-.706c2.498.086 3.638-2.05 3.908-4.17.018-.134-1.057 1.731-2.455 2.105ZM157.979 46.887c-.575.604.022 1.857 1.021 1.006.998-.852 1.526-1.02 2.338-2.232.811-1.211 1.35-2.51 1.35-2.51l-1.522 1.502c-.395-.015-2.611 1.63-3.187 2.234ZM154.787 49.691c-.447-.049-.855 1.603-.774 1.895 0 0 1.074.005 1.316-.138.242-.143-.095-1.707-.542-1.757ZM172.718 52.228c.164.3.91.213 1.387.237.478.025.633-.609.583-1.01 0 0-1.338.419-1.674.391-.336-.027-.461.081-.296.382ZM178.506 49.217c-.734-.788-1.576-2.38-1.779-2.854-.202-.474-.154.888-.156 1.425-.003.537.439 1.66.958 2.34.519.678 1.299 1.047 1.436 1.599l.775 1.697c.212-1.087-.501-3.42-1.234-4.207ZM68.802 80.533c2.687-1.034 5.487-.782 5.487-.782-3.316-1.213-5.487.782-5.487.782ZM37.784 93.212c1.278-1.933 3.2-2.762 3.2-2.762-2.684.165-3.2 2.762-3.2 2.762ZM73.31 117.986c.352.091-9.603-3.876-7.246-8.173 0 0-5.73 4.805 7.245 8.173ZM70.98 183.085c.038.004-.007-.026-.122-.087.052.054.094.084.122.087ZM107.605 126.675a2.067 2.067 0 0 0-.787-.093c.468.04.787.093.787.093ZM47.057 186.412s3.025-2.721 9.397-14.123c0 0-6.782 4.118-9.397 14.123ZM37.329 207.624c-.067-.215-.773 4.326.21 6.244 0 0 .332-4.488-.21-6.244ZM51.712 215.426c1.48-1.364-.05-3.399-.05-3.399.529 1.359.05 3.399.05 3.399ZM41.034 258.226l-3.95-4.125s1.312 2.848 2.625 3.909c.244.197.544.438.875.699.472.373 1.003.787 1.51 1.182 1.045.82 1.993 1.555 2.134 1.67l-1.869-1.952-1.325-1.383ZM61.705 251.078l-.256-1.018-2.146.965 2.402.053ZM43.849 232.941s-3.053-1.297-5.066-.99c-2.013.306-3.562 1.795-3.562 1.795s2.197-.437 4.332-1.079c2.134-.642 4.072.249 4.296.274ZM44.873 242.913c-.298-.033-5.998 2.092-7.895 3.92l5.106-1.437 2.79-2.483ZM83.828 171.423c-.808.929-3.559 4.043-5.1 4.977.724-.412 3.736-2.162 5.473-3.852 1.984-1.93 1.735-2.748 2.586-4.314.85-1.567 1.22-2.538 1.22-2.538l-1.06 1.086s-4.93 6.432-10.332 8.252c0 0 4.776-.926 7.213-3.611ZM81.695 175.969s2.105-1.136 3.633-1.661c1.528-.524 3.079-1.598 3.781-2.162.704-.564 1.282-1.367.989-1.098-.294.269-1.731 1.017-1.731 1.017-.66.493-2.657 1.366-3.557 1.908-.9.542-3.115 1.996-3.115 1.996ZM84.556 176.283s1.88-.057 3.405-.531c1.525-.473 2.605-1.761 2.605-1.761s-2.616.818-3.597 1.162c-.98.345-1.91.921-2.413 1.13ZM71.545 181.369c1.12-1.266.282-2.564.282-2.564-.587.538-2.058 2.262-2.347 2.833-.29.571-.941 2.385-.941 2.385s1.887-1.389 3.006-2.654ZM109.73 151.588c-1.664.737-3.435 1.07-3.435 1.07s2.503.549 4.542.524c0 0-.444.605-1.735.69-1.291.084-2.746-.399-3.33.113-.584.512-1.196 1.859-1.196 1.859s.743-.233 3.591-.884c2.847-.652 3.57-1.053 6.32-1.377 2.75-.325 3.412.515 5.73.009 2.317-.506 8.385-3.571 8.385-3.571l-2.099.618c-1.35.397-2.738.64-4.143.725-1.582.097-3.845.264-5.808.479-3.347.369-5.157-.992-6.822-.255ZM112.506 159.108c.383-.174 1.855-.756 3.961-.558 2.463.231 6.479-2.009 6.479-2.009-.881.473-2.102.602-4.053.52-1.78-.074-5.709 1.729-6.387 2.047ZM112.507 159.108a2.091 2.091 0 0 0-.103.048l.103-.048ZM46.986 252.042l-.086-.086c-1.404-1.401-4.11-2.727-4.11-2.727s1.99 2.061 3.369 3.517c.319.333.606.637.826.876.164.175.335.341.506.498 1.076.977 2.333 1.641 3.687 2.728a166.602 166.602 0 0 0-2.982-3.481 46.205 46.205 0 0 0-1.21-1.325ZM51.64 249.695c-.002 0-.002-.003-.005-.003-.398-.323-.998-.664-1.681-1.003-2.135-1.051-5.068-2.031-5.068-2.031s2.01 2.179 4.188 2.973c.047.018.096.037.142.051.55.186 1.087.497 1.602.884 1.368 1.022 2.567 2.564 3.379 3.576.118.148.23.289.332.412 0 0-.073-.207-.21-.542-.417-1.043-1.436-3.315-2.678-4.317ZM46.725 257.413a48.904 48.904 0 0 0-1.267-1.116c-.455-.387-.97-.822-1.46-1.237a727.309 727.309 0 0 0-2.058-1.723 125.093 125.093 0 0 1 2.285 2.799c.183.231.425.476.706.721 1.224 1.08 3.18 2.215 4.098 2.688.067.033.128.065.183.09l-.147-.128c-.444-.389-1.744-1.528-2.34-2.094Z" fill="#cccccc"/><path d="M226.973 77.759c.105-.95-4.003-5.248-4.003-5.248l-2.339 1.215s1.134-2.105.891-2.459c-.243-.353-3.964-2.686-5.155-2.817-.733-.08-1.552 1.277-2.075 2.338-.885-.461-1.537-.596-1.819-.318 0 0-.025.04-.078.11l-.409.572s-8.816-8.206-14.955-22.3c-6.142-14.1-5.061-22.578-3.048-29.896 0 0-15.261-7.973-36.883 6.615-20.335 13.72-24.162 34.093-21.829 63.11l-.001.003.007.076c.147 1.81.313 3.655.507 5.533 3.503-9.548 7.454-16.53 11.936-21.663 4.481-5.135 9.486-8.42 15.097-10.575 11.219-4.308 24.771 4.08 27.772 7.012 3.001 2.929.423 5.024.423 5.024 3.058 1.011 12.98 7.888 12.98 7.888-.208.186-.171.623.066 1.225l-.396.429-4.674 5.042c-1.027.026-5.596 2.187-6.297 6.8l-7.503 8.093-.251.272c.045-.137.251-.272.251-.272-1.03.023-5.866 1.773-6.567 6.385-.037.254-.073.525-.101.813l-5.552 5.994a3.181 3.181 0 0 0-.343-.047c-.291-.026-.552-.049-.783-.068-1.243-.097-1.777-.12-2.441-.038-.356.046-.752.117-1.318.225-1.801.35-2.604 1.537-3.019 1.537-.173-.001-.844.21-1.623.509h-.003c-.268-.421-2.192-3.373-3.238-3.164-1.128.224-4.429 1.376-5.41 3.516-.98 2.14-1.475 6.505-1.021 6.925.22.203.502.8.766 1.402-3.582-1.588-10.153-3.758-10.153-3.758a25.598 25.598 0 0 0-.617-.755c-.005-.007-.01-.014-.019-.021.001-.003-.002-.003-.005-.006-10.647-12.464-29.763-7.419-34.174-6.038-5.185-2.763-7.562.008-10.962.846-1.797.445-3.57.619-4.868.686-2.222-.978-2.764-1.289-2.764-1.289.072-.704.123-2.107-.29-3.833-.413-1.73-1.284-3.783-3.06-5.787 10.506-15.518 3.235-29.238-8.922-30.441-13.573-1.34-18.447 10.038-18.447 10.038 6.217-3.364 15.618-4.448 19.486-.09.024.03.233.28.54.698.959 1.43 1.41 3.336 1.14 5.793-.321 2.916-1.232 5.306-2.403 7.246-3.27-1.065-8.986-2.887-17.942 1.157-2.78-12.353-11.413-18.43-18.388-15.523-9.375 3.907-7.467 15.901-7.467 15.901 3.386-7.165 11.446-9.902 15.678.681.933 2.336 1.454 4.347 1.705 6.059-3.554 5.492-4.206 12.361-3.623 17.066.056.566.31 1.303 1.119 1.971l-.168 3.404a5.828 5.828 0 0 0 2.835 5.289l.029.019c1.003.601 1.927 1.011 1.927 1.014-1.444-.283-2.452-.621-3.155-.949l-.006-.004a5.039 5.039 0 0 1-.925-.541c.214 1.163.625 2.798 1.353 3.787-1.14 1.901-3.133 6.375-2.142 10.776-.735 2.555-3.077 8.892-8.715 11.429 0 0 6.992.223 11.014-5.608l.108.057c-.605 1.594-1.547 3.935-2.049 5.606-4.095 2.749-20.055 14.615-17.96 31.252l.002.003c-1.995 3.822-5.816 14.269-3.44 24.702-1.525 1.505-2.848 3.677-3.185 6.766-1.023.906-.767 1.355-.994 2.842-.328 2.132.511 2.764.945 3.311-.192.613-.236 1.232-.217 2.197.036 1.928-.618 2.307-.394 3.577.117.67.748 2.321 1.296 3.678-.087.323-.192.672-.323 1.064-1.015 3.057.14 3.353.232 3.533.068.129.663.582 1.21.933-.217.618-.35 1.167-.381 1.591-.165 2.299 1.133 1.763 1.916 2.352.257.195.43.49.549.797-.54 1.346-.72 2.556-.621 3.303.198 1.506 1.764 3.405 2.787 4.49.363 1.803 1.307 3.267 2.754 4.405.307.239.701.54 1.149.877l-8.32 8.895c-5.12 4.287-11.695 2.543-14.846 1.303a2.742 2.742 0 0 0-3.188.892c-4.938 6.479-7.4 9.61-8.568 11.066a.877.877 0 0 0 .58 1.424c1.722.205 4.165.385 4.961.473 11.712 1.287 22.937-6.325 26.699-9.24l8.725-9.102c1.233 1.157 2.315 2.036 2.973 2.275 2.36.856 3.668-2.229 4.983-2.224 1.31.011 3.497 1.284 4.808-.256 1.311-1.537.9-4.806 1.738-5.035 1.386-.377 5.474-1.54 5.788-1.757.656-.458-.097-1.982 1.215-2.889 1.311-.907 4.023-3.036 3.584-4.302-.437-1.269-1.929-6.68-3.065-7.041-.345-.107-.707-.317-1.109-.573l16.174-16.865 1.24 3.844 5.614 2.42s-4.732-.85-5.253-.908c-.52-.057.27 1.645.362 2.885.043.574.02 1.135.036 1.594-.154.743-.364 2.075-.474 3.656-.551.906-1.306 1.874-2.348 2.947-2.06 2.121-4.4 9.437-4.73 10.367.41-.851 4.032-6.881 7.354-7.31.24 1.205.621 2.337 1.204 3.271-3.145 3.335-2.838 6.222-2.838 6.222 5.723-5.957 13.693-8.825 21.327-10.07-.342.529-.672 1.181-1.16 1.908-.742 1.094-1.853 2.357-3.942 3.611a632.34 632.34 0 0 1-10.236 6.006s2.966-.91 6.468-2.23a83.522 83.522 0 0 0 4.476-1.822l-.002.002a22.762 22.762 0 0 0-1.824 2.512c-8.87 14.136 4.496 28.331 4.496 28.331.2-.043 1.497-.03 4.236-3.105 0 0-8.643-7.582-4.396-20.058 1.58-4.64 4.892-6.651 8.336-7.383 2.421-.516 4.905-.398 6.9-.12 2.409.342 4.102.923 4.102.923s1.742-2.056 3.896-2.812c-.212.382-.411.768-.595 1.157l-.001.003a23.594 23.594 0 0 0-.7 1.637c-2.368 1.558-4.499 3.988-5.788 7.749 0 0 2.172.919 6.159.677 0 0 3.218-6.366 12.189-5.574 0 0-.691-2.738.239-5.288 0 0-3.071-.572-6.797.107.276-.225.551-.431.825-.613.333-.221.656-.427.972-.629 1.764-1.115 3.331-1.948 4.952-2.782.639-.028 1.303.005 1.974.087-.094.364-.187.751-.278 1.166-.933 4.296-1.555 11.236 1.325 18.727 0 0 3.549-2.144 6.87-1.649 0 0-5.225-8.458-2.755-15.584.063-.191.135-.381.212-.57a11.347 11.347 0 0 1 2.31-.15c2.162.069 4.25.71 6.089 1.554.342.156.674.32.997.488 3.451 1.789 5.824 4.1 5.824 4.1.238-3.352 3.101-6.348 3.101-6.348a31.519 31.519 0 0 0-8.633-4.002v-.003a33.952 33.952 0 0 0-8.356-1.331 16.46 16.46 0 0 0 1.441-.995c.185-.143.368-.292.54-.443-.018.246-.024.382-.024.382.089-.011.178-.023.27-.031a8.344 8.344 0 0 1 1.654.021c1.06.117 1.983.403 2.579.626.445.167.71.299.71.299.111-.848.273-1.633.48-2.355a13.362 13.362 0 0 1 1.266-3.063c2.439-4.276 6.341-5.268 6.341-5.268 1.104-3.841.677-6.16.677-6.16-4.02.449-6.886 2.048-8.929 4.072a87.693 87.693 0 0 0-.58-1.827c.712-.52 1.269-.813 1.269-.813s-1.8-16.085 10.622-17.446c13.103-1.437 18.624 8.648 18.624 8.648 3.598-2.007 3.867-3.276 3.952-3.461 0 0-11.623-17.121-28.123-9.975-6.841 2.964-9.595 8.062-10.477 13.015a31.078 31.078 0 0 1-.433-.961c-1.318-3.087.088-3.535-.34-6.496-.43-2.959-1.626-5.108-3.288-9.889-1.661-4.784-.495-6.465-1.149-11.814-.654-5.352-.643-6.856-.558-11.07.073-3.503-1.169-8.601-2.033-10.362.603-.804.646-1.547.608-1.948a1.488 1.488 0 0 0-.051-.306l-.062-.434.045-.049 7.784-8.139.024-.027c.269-.025.521-.052.749-.088.03-.002.058-.008.083-.012 1.999-.301 3.311-1.547 4.105-2.76a.943.943 0 0 0 .172-.244c.019-.031.035-.072.051-.107l.117.125-.116-.128c.304-.651.417-1.811.442-2.841l6.871-7.251c.034.518.126.925.295 1.117l.125.138c-2.381 1.813-7.123 6.014-7.123 6.014-.026 1.088-.146 2.323-.494 2.951.956 1.029 2.802 3.086 3.422 4.23.846 1.562 3.491 4.228 6.393 5.11 2.899.888 2.578 2.265 6.088 3.784 3.034 1.309 4.512 1.014 7.003.012.725.404 1.946 1.177 4.886.386 3.727-1.002 6.473-3.466 6.426-6.51a5.196 5.196 0 0 0-.638-2.433c.542-.47 1.299-1.348 1.661-2.765.596-2.337.694-4.246.432-5.972-.174-1.14-.586-3.239-.846-4.534a2.097 2.097 0 0 0-.061-.306l-.167-.821-.021.3c-.422-1.285-.738-3.78-1.519-4.593-.671-.701-2.891-3.874-3.808-5.202.605-1.869.63-2.699 1.063-4.048.54-1.692 2.695-5.554 1.19-9.091-.104-.238-.008-.007-1.022-1.645.416-.2.772-.409 1.071-.621 1.604-1.142 1.712-2.399 1.663-2.971l8.773-9.263a5.753 5.753 0 0 0 2.636-1.049 6.842 6.842 0 0 0 1.687-1.787c.818-.834.978-1.655.977-2.17a2.03 2.03 0 0 0 .05-.34l-.073.025c-.018-.135-.04-.207-.04-.207l11.802-12.46c1.003-.631 1.723-1.506 2.208-2.332l.017-.019.109-.115c1.159.818 2.668 1.42 2.994 1.129l.006-.006c.291-.22 9.601-7.257 11.347-9.498.422-.417-.071-1.67-1.19-3.314.688-.449 2.611-1.773 2.697-2.554Zm-48.63 35.993c-.055 1.932-.03 4.101.024 6.067.027.912.055 1.781.084 2.563-.356-.59-.7-1.152-1.039-1.674-.241-.375-.48-.732-.723-1.061-.005-.01-.012-.026-.023-.036-.308-.428-.622-.82-.939-1.164a6.876 6.876 0 0 0-.932-.862l3.548-3.833Zm-22.72 7.911c.13-.364 2.876-3.543 4.006-3.761.805-.157 1.482.926 2.165 1.689-.487.237-.894.468-1.115.665-.786.698-1.479 2.461-1.479 2.461s-.748 1.344-1.516 1.772c-.281.154-.694.363-1.104.642-.484-1.523-1.003-3.085-.965-3.429.002-.015.003-.027.008-.039Zm-46.877-3.469c2.999 1.157 4.328 2.766 5.146 3.704a30.354 30.354 0 0 1-3.778.134 52.185 52.185 0 0 1-4.473-.341c1.975-.852 5.229-1.215 5.229-1.215-4.636-1.7-7.549.024-8.795 1.002a7.278 7.278 0 0 0-1.172.22 85.93 85.93 0 0 0-3.672-1.679c2.828-.323 7.993-3.184 11.515-1.825Zm-10.559 13.214c-.119.032-.236.053-.354.076-.437-.79-.923-2.101-.726-4.303a2.4 2.4 0 0 0-.131-.956c.362-.454.887-.911 1.634-1.284.752.298 1.946.953 3.152 2.413 1.685 2.036 3.135-.634 5.056-.771-.909-.079-2.394-.1-3.247.44-1.091.692-1.548-1.937-3.2-2.664 1.13-.227 2.558-.291 4.367-.071 2.188.262 4.695-.002 7.131-.497-.578.739-2.181 2.78-4.053 5.095-1.542 1.902-4.265 2.918-6.056 3.39a16.1 16.1 0 0 0 1.159-.678c1.946-1.274 2.512-2.514 2.542-2.592-.136.051-4.295 1.618-7.274 2.402ZM65.03 165.009c-.017.156-1.514.767-1.275 2.777-.63-2.041-2.34-4.456-4.152-6.736.154-.986.3-2.366.278-4.068-.023-1.884-.759-4.479-1.413-6.681.898 1.359 2.57 3.379 3.047 3.995.493.639 1.924 2.944 1.933 6.004.238-1.94.536-4.351.682-5.49.202-1.525 1.649-2.236 2.48-3.132-.636 3.284-2.376 4.147-.341 6.966 2.418 3.356 5.752 9.757 3.819 15.497a19.819 19.819 0 0 1-1.449 3.313c.354-5.257-2.477-6.813-2.962-9.072-.476-2.2.832-5.97.9-6.169l-1.547 2.796Zm-10.462-10.268c-1.491-2.333-.914-6.838.833-9.094-.052 1.524-.048 3.724 1.28 5.63 1.207 1.732 1.944 6.191 2.301 9.002-1.783-2.189-3.556-4.193-4.414-5.538Zm.248 10.672c-.25-.4-.493-.887-.645-1.598-.323-1.501-.347-3.324-.3-4.683.685 2.115.986 4.477.945 6.281Zm1.804-32.088c-.945-1.686-1.3-1.873-1.681-2.899-.23-.616-.275-1.5-.278-2.106.847-.016 1.8-.057 2.853-.132.026 1.142.148 6.151.387 8.746 0 0-.003 0-.006-.004l.006.007c-.012.599.4 3.358.4 3.358s-1.6-1.836-1.762-3.099a3.735 3.735 0 0 0-.006-.328l.001-.008c-.105-1.824 1.036-1.847.086-3.535Zm6.266-.708s2.652-1.914 3.657-2.652c0 0 .424 1.189-.14 1.921.325-.371 1.546-1.812 1.892-2.749 0 0-3.781-.079-4.134-.454-.355-.376 3.777-.93 3.777-.93s-.956-.424-1.85-.752a75.312 75.312 0 0 0 4.075-.94c.002 1.552-.663 7.325-10.24 10.038 0 0-.022-1.569-.039-3.427 1.191.27 3.282.76 4.448 1.122l-1.446-1.177Zm1.061 4.376c1.885-.835 3.86-1.951 5.312-3.261 3.005-2.702 3.818-7.062 4.013-8.54a88.877 88.877 0 0 0 3.38-1.098c.093 2.164-.074 7.262-3.4 11.51-2.544 3.244-5.312 4.478-7.667 4.874 2.84-1.36 5.602-5.131 5.716-5.288-3.02 3.191-7.55 4.711-10.015 5.206-1.082-.349-1.688-1.152-2.092-1.86 1.082-.166 2.871-.711 4.753-1.543Zm14.646-11.813c.381.972.872 2.104 1.468 3.233.182 1.101.263 2.54-.108 3.744-.703 2.259-1.452 4.439-1.452 4.439s-1.289-2.574-.673-4.372c0 0-1.483 3.514-.584 5.31.18.356.376.768.571 1.201-.214-.15-.434-.296-.655-.438-.713-.457-1.721-1.507-2.343-2.184 1.931-2.69 3.37-6.352 3.776-10.933Zm16.818.946c-.039.577-.05 1.148-.044 1.7-2.92-3.211-6.651-4.396-6.651-4.396 2.9 1.981 5.245 6.023 6.393 7.958-2.022-.541-3.922-2.113-5.185-4.62-1.302-2.594-4.06-4.679-5.653-5.729.686-.313 1.382-.636 2.082-.974 2.725.839 9.26 3.156 9.058 6.061Zm-.34-2.507c.15.111.252.195.29.241a.435.435 0 0 1 .042.078c-.106-.106-.219-.212-.331-.319Zm-7.71 3.394c.335 1.312.73 2.77 1.065 3.982a9.568 9.568 0 0 1-.664-.43c-1.677-1.202-4.573-7.101-5.452-8.027a1.918 1.918 0 0 0-.54-.408c.422-.178.848-.358 1.275-.545 1.296.828 3.697 2.994 4.317 5.428Zm-2.67 1.139c.868 1.925 2.731 3.433 3.854 4.214-.036-.026-.08-.048-.116-.071-.003 0-.006-.003-.006-.003a6.72 6.72 0 0 1-.633-.442c-1.712-1.376-4.464-2.987-5.4-4.314.69 1.303 2.5 4.51 3.978 5.323-.187-.063-3.205-1.133-4.81-3.979-1.152-2.032-2.073-4.396-2.532-5.652a88.843 88.843 0 0 0 1.83-.72c.835.973 2.832 3.42 3.836 5.644Zm-2.446 5.284c.068.126.98 1.886.642 4.021a9.62 9.62 0 0 0-.82-1.52c.25-1.429.183-2.406.178-2.501Zm-7.37 12.586c.481-.547 1.408-1.754 1.8-3.307.54-2.131-.183-2.777-.183-2.777s1.926 1.493 2.558 2.995c-.52 4.206-1.017 8.119-2.004 10.125-.67-1.503-1.7-2.886-2.356-3.915.149-.968.227-2.014.185-3.121Zm-6.174 1.354c-.645-.859-1.45-1.883-2.162-2.679 2.24.949 4.001 2.951 4.784 5.339.35 1.081-.464 6.396-.997 10.478-.284-.673-.562-1.176-.786-1.474-1.05-1.397-1.852-3.108-1.198-4.842.658-1.739 1.6-5.18.36-6.822Zm2.537-2.245c.732-.595 1.196-1.643 1.196-1.643-.87.413-1.89.549-2.75.573a5.158 5.158 0 0 0-1.032-.235c-1.966-.249-4.157-1.232-5.593-1.975a45.614 45.614 0 0 0 3.66-.331c1.672-.222 3.424-.974 5.055-2.231 3.878 5.067.908 12.963.894 12.57-.106-3.226-.387-5.438-1.43-6.728Zm1.437-6.597a15.274 15.274 0 0 0 1.674-1.806c.615 1.294 2.388 5.615.522 9.115-.106-2.263-.71-4.759-2.196-7.309Zm-11.253 6.939c1.57-.206 2.963 1.983 2.963 1.983-.965-1.009-4.469-1.018-4.946-1.147-.473-.127-1.072-.19-1.379-.681 0 0 1.788.048 3.362-.155Zm9.822 17.905c.549-2.073 1.07-5.272 1.306-8.106.313-.532 1.106-1.983 1.681-4.026.55 1.151 2.29 5.16 1.042 7.201-1.019 1.66-2.73 4.722-3.699 6.555a23.68 23.68 0 0 0-.33-1.624Zm5.257-4.669c-.116 2.132-.32 4.654-.668 5.634.12-.266 2.702-6.528 1.823-9.227a4.039 4.039 0 0 0-.066-.416 27.03 27.03 0 0 0 2.544-7.218c.746-3.811-.018-4.768.333-6.55.647 1.607 1.508 4.88.702 9.868-1.196 7.409-1.69 9.845-4.13 14.893-2.439 5.045-2.515 4.359-2.731 4.259-.194-.088-1.144-3.815-1.336-4.576.94-2.299 2.192-4.951 3.529-6.667Zm5.493-15.41c-.235-1.089-.516-2.58-.773-3.914.538.732 1.296 2.045 1.688 4.018.418 2.097.04 4.33-.332 5.747-.12-2.076-.291-4.486-.583-5.851Zm1.151-5.214c.272-.458.53-1.117.554-2.008 0 0 3.24 5.743 2.644 8.94 0 0 .81-2.659.469-5.011.092.125.193.252.3.384 1.573 1.949-.25 4.535-1.523 8.918-.34 1.174-.632 2.166-.844 3.055.007-.89.088-1.929.176-3.504.227-4.104-.849-7.355-.849-7.355l-.002.018a7.98 7.98 0 0 0-.233-1.325 22.521 22.521 0 0 0-.692-2.112Zm.118 13.427c.045.417.35 3.207.921 4.655.16.399.364.876.583 1.366.153.484.358.988.619 1.538.238.501.482.958.73 1.373a33.267 33.267 0 0 0-2.199-2.922c-1.063-1.274-1.073-3.22-.919-4.564.082-.418.176-.91.265-1.446Zm4.523-13.447a625.72 625.72 0 0 0-4.053-4.496c.002-.16.001-.314.002-.46.642.468 1.33.798 2.061.924 5.106.873 9.445.914 9.746.856a4.78 4.78 0 0 0 .339-.084c-1.335.874-3.284 1.714-5.474 1.404 0 0 1.877 1.224 4.224.464.951-.308 1.572-.609 2.033-.888-.115.22-.235.452-.353.7-1.857 3.864-1.04 2.597-5.137 2.147a27.393 27.393 0 0 1-3.388-.567Zm9.08-16.245c.638.264 1.24.452 1.799.583-1.569.518-2.596.826-3.58.521-.495-.154-1.131-.433-1.736-.718a31.413 31.413 0 0 0-5.185-3.042c.035-.017.07-.034.102-.052 3.178-.493 6.094 1.669 8.6 2.708Zm-7.393-5.281s-1.961-5.305-2.738-6.974c0 0 2.647 3.175 2.738 6.974Zm-11.43-12.283c3.122-3.468 4.865-7.996 4.742-12.163.594 1.423.977 2.958.756 4.34 0 0 1.129-5.396-2.27-9.617a7.157 7.157 0 0 0-.521-.6c0-.002-.003-.002-.003-.002-2.188-2.255-6.303-3.647-10.243-3.577-.813-.377-1.734-.648-2.362-.45a8.82 8.82 0 0 1-2.477.403c-.094.004-.19 0-.28-.01 1.694-1.962 5.218-4.649 11.473-3.867 2.074.894 4.45 2.618 4.033 5.778 0 0 .909-3.088-.225-4.984 1.92.535 3.563 1.215 4.95 2.02 1.442 1.536 3.85 5.009 1.431 9.239 0 0 2.702-2.363 2.813-5.299 1.342 2.09 1.897 4.568 1.788 7.35-1.036 1.79-3.61 5.258-8.39 6.187 0 0 4.62.638 7.782-2.147-.367 1.33-.9 2.646-1.527 3.913-2.05 2.195-5.666 5.19-10.657 6.005.291.002 4.496 0 7.621-1.01-2.321 3.259-4.565 5.484-4.565 5.484-.065.035-.508.126-1.183.176-.001-.097-.119-.24-.446-.461-1.121-.741-1.555-.432-2.124-.382-.572.052-.785-.05-1.9-.209-1.113-.159-.69-.264-.72-.643-.037-.382-.373-.419-1.05-1.096a.796.796 0 0 1-.253-.528c.796-.682 2.009-1.854 3.807-3.85Zm3.569 9.723s-1.264 2.236-1.245 2.068c.018-.167-.072-1.419-.072-1.419s-7.407.088-10.107-4.668c.178.22 3.594 4.203 11.424 4.019Zm-29.638-15.69c1.002 1.024 1.911 2.23 2.385 3.515-.194-.582-1.904-5.36-5.747-7.69-.06-.034-.119-.07-.176-.104-.065-.038-.131-.072-.197-.107a3.341 3.341 0 0 0-.206-.113c-2.417-1.187-5.698-.884-8.21.663-.699-.034-1.416.072-1.734.485a5.254 5.254 0 0 1-1.42 1.292 1.065 1.065 0 0 1-.186.092c.222-2.384 1.31-6.109 5.703-7.764 1.731.014 4.023.663 5.166 3.606-.09-.34-.876-3.144-2.35-4.33 1.474-.244 2.841-.254 4.095-.056 1.618.826 4.718 3.021 5.032 7.709 0 0 .696-3.126-.535-5.79 1.37 1.035 2.247 2.894 3.109 4.84.711 1.605 1.034 3.376.834 5.12-.173 1.517-.724 3.165-2.197 4.609 0 0 3.27-1.168 4.08-4.841.265.998.47 2.027.622 3.064a18.091 18.091 0 0 0-5.688 4.319c-.241-3.01-1.066-6.006-2.38-8.52Zm-.26 16.55c1.387-4.128 3.848-7.798 8.355-10.629l-.004.03.261-.196c1.831-1.116 3.993-2.099 6.544-2.922a21.273 21.273 0 0 1 3.057-.754c.018.005 3.896 1.292 4.127 1.92.121.331.218 1.296.322 2.116a1.513 1.513 0 0 0-.202.236c-.721 1.053-1.554 1.877-1.79 2.599-1.355.775-2.312 1.097-2.312 1.097s-2.348 2.156-1.914 4.049c0 0 3.728 5.629 13.13 4.094a1.04 1.04 0 0 0 .785-.632l1.123-2.751c.014-.017.028-.031.042-.05l1.835 2.243c-.19.24-.276.473-.243.779.076.684-.229 1.417-.76 1.428-.529.012-1.106-.382-1.439.742-.302 1.015-.255 1.081-.638 1.26-.153.065-.312.132-.465.2-.33.139-.692.294-.969.412-3.86 1.614-8.866 3.381-14.33 4.504a22.315 22.315 0 0 1-1.575-.197c6.058-1.564 14.206-5.661 14.46-5.79-5.004 2.028-14.247 4.574-16.483 5.18-.369-.226-.707-.399-.854-.361-.197.054-.796.707-1.067.449-.275-.257-.265.011-.67-.073-.407-.081-.494.021-.924-.505-1.003-3.469-1.392-9.462 3.63-16.762-.168.154-6.435 6.039-5.517 16.431.031.379-.637 1.665-1.407 1.805-.767.143-2.443-11.259 1.688-15.631-.45.457-5.182 5.583-3.22 15.339 0 .003 0 .003-.002.002-.421.33-.614.675-1.238 1.203a38.534 38.534 0 0 1-2.058-.184c-.322-2.25-.654-6.591.722-10.681Zm-.316 19.305c-.903-1.381-.485-5.179-.485-5.179s.513 2.883.88 3.32c.367.434.362.812.829 1.391.463.578 2.323 2.179 2.323 2.179-.335-.037-2.639-.33-3.547-1.711Zm-5.095 26.095s3.069-3.725 4.439-6.846c.13.251.27.499.427.744.069.507.23 1.025.466 1.551-.803 1.353-2.411 3.358-5.332 4.551Zm5.645-11.809c-.36-2.096-.425-5.033 1.184-7.382.807.325 2.053.562 3.549.705a55.948 55.948 0 0 1-2.612 2.073c-.943.696-1.623 2.475-2.121 4.604Zm-17.499 66.868c.08-.064-1.99.338-4.154 1.857-.304-2.117-.92-8.201.83-14.877.685-.669 1.841-1.763 2.365-2.093.771-.485.3.036.945.334.562.261 1.376-.506 2.406.328.274.318.462.478.462.478-1.305-7.305 3.37-18.167 3.182-17.954-2.926 3.253-4.476 6.082-5.187 8.473-.294-2.15-.34-5.672 1.622-8.859-.104.14-1.738 2.384-2.25 3.134.585-1.548 2.474-12.176 15.934-21.49.922.813 2.614 1.323 3.03 3.381.637 3.135-3.347 4.733-3.347 4.733s3.75 1.24 5.093-2.76c.428-1.277.52-2.082.428-2.679.112.079.228.179.35.317l3.326 3.716c-.076-.136-2.554-4.543-2.7-7.234a11.294 11.294 0 0 0-.375-2.298c.635.672 1.28 1.346 1.901 2.026 2.034 3.156 3.18 5.769 2.867 7.922-.312 2.153-1.19 3.977.206 4.661 1.395.68.72 2.717.501 2.993-.221.279 1.87-1.715.963-3.362-.903-1.645-1.997-1.314-1.045-2.754.49-.743 1.033-1.786 1.314-2.776 4.297 8.5 1.177 15.252 1.082 15.457.225-.197 6.155-5.507 7.35-12.497a25.42 25.42 0 0 0 .367-4.047c.892 1.719 1.993 4.521 1.089 6.709.065-.093 1.156-1.642 3.364-5.053 2.274-3.518 2.096-5.952 3.633-9.328.136-.303.274-.615.409-.933-.115 1.205-.078 2.254.283 2.745 1.025 1.394 2.142 3.574.728 6.16 0 0 1.29.59 1.414-2.586.125-3.173-.126-1.995-.413-3.986-.286-1.995-.875-.742.034-2.844.212-.498.346-.992.422-1.466.003.001.002.004.002.004a6.675 6.675 0 0 0 1.364 1.655c3.3 2.911 4.862 3.382 4.862 3.382l-.007-.013c-4.138-6.731.093-16.833 1.027-20.174.05-.186.094-.357.133-.522.564.689 1.31 1.94.988 3.526-.495 2.435-2.028 4.584-1.682 6.319.345 1.737 1.267 3.626 1.263 4.683-.001 1.057-.422 3.837-.422 3.837s2.001-2.773 1.523-6.137c-.479-3.36-.397-5.645.534-7.42a17.065 17.065 0 0 0 1.333-3.389s-.89.372-1.533 1.6c-.01-.001-.052-.078.065-1.616.058-.748.064-1.517-.007-2.167.048.008.092.019.14.028 1.387 1.24 3.75 3.777 2.546 5.823-1.658 2.82-.852 4.39-.852 4.39s2.27-1.992 2.854-5.318c.41-2.327-.436-4.934-1.067-6.227 2.807-3.209 4.846-6.023 7.654-5.751 2.791.268 9.654-3.268 9.866-3.378-.229.069-6.666 2.024-10.177 1.357 7.897-2.58 9.899-8.418 10.292-9.932 4.868-1.204 9.053-3.098 9.252-3.2-.182.065-3.369.975-7.18 1.492-.302-.473-.978-1.292-2.467-2.413 13.811-3.965 22.956.279 27.207 3.191 1.262.929 3.46 2.531 3.862 4.553 0 0 .298-.782.303-1.739 2.43 1.134 7.129 3.716 9.623 5.117-.24.116-.507.308-.781.629-.087.1-.182.217-.269.347-1.214 1.732-2.721 2.1-1.405 3.823.495.651.783 1.034 1.036 1.38.251.336.464.635.808 1.112l-1.454 1.57c-1.083.096-5.292 2.175-6.012 6.489l-.55.594c-1.076-.979-3.511-3.328-5.321-6.099-2.35-3.593-.044-8.947.038-9.138-1.086.95-1.947 2.418-2.607 4.067-.33-1.573-.939-2.788-.939-2.788.318 9.123-17.152 12.344-17.152 12.344 5.247.634 11.065-.868 11.583-.811.281.031 1.766.803 3.073 1.555.413 1.015.602 2.048.213 2.835 0 0 .689-.345 1.135-1.147-.045 2.445.074 7.069.097 7.965-1.436.991-2.864 2.572-3.208 4.901a13.6 13.6 0 0 0-.065.51l-19.104 20.427c-.472-.113-4.327-2.027-6.382-4.419-1.042-1.211-1.699-2.589-2.421-4.041 1.565.645 3.718 1.312 5.525 1.52 0 0-3.858-2.024-6.742-3.795-.419-.7-.899-1.411-1.487-2.117-.939-1.131-1.487-1.772-1.912-2.31 2.099.634 4.743.746 4.743.746-4.23-1.086-7.416-4.823-8.303-5.957-.001.012 0 .024.002.037-.065-.091-.126-.185-.185-.275.041.056.103.136.183.239-.006-.19-.002-.301-.002-.301l-.247-.028.009.012-.009-.011c-1.635-2.376-3.042-4.263-3.042-4.263-.025.221 1.804 5.52 3.177 7.359a26.883 26.883 0 0 1 1.506 2.231c-.95-1.022-4.88-3.717-5.005-3.8.076.135 1.93 3.341 3.602 4.522.883.621 2.06 1.574 3.08 2.44.001.01.007.016.011.026.377.787 1.214 2.299 2.159 3.951-1.049-.4-2.289-.754-3.347-.858-.155-.017 1.727 1.18 2.912 2.228.012.053.283 1.198.592 2.189a19.653 19.653 0 0 0-1.518-.355s1.03.825 1.954 1.515c.015.028.03.06.045.086.451.783 1.441 2.082 1.593 3.287.149 1.203 1.217 3.811-1.944 6.853-3.161 3.046-10.926 4.737-12.88 5.258-1.948.522-3.403 1.604-6.356 1.11-2.958-.492-3.554-2.257-6.756-1.93-3.202.33-5.242.95-6.031 1.654-.286.26-.276.549-.233.823 0 0 1.334 1.037 3.825 1.384l-4.91-.358c-1.196.102-3.566-.004-5.272-.107 2.804-3.242 4.478-7.751 4.315-7.532-3.543 4.778-7.585 7.433-11.563 8.931 1.788-1.412 2.9-3.81 2.72-8.319 0 0-2.1 6.667-11.14 8.954-9.036 2.288-9.25 9.389-9.25 9.389s1.62-4.645 7.675-6.76c-2.31 1.358-3.715 2.897-3.88 3.084 1.39-1.434 13.139-2.712 17.999-5.176.081.142.167.297.256.452.195 2.551.206 8.462-3.27 12.803-2.188 2.731-4.395 4.573-6.1 5.749l-.003-.001c-.293-1.74-2.045-2.612-2.045-2.612.923 3.116-.658 4.19-.7 4.219l-.004.003a14.874 14.874 0 0 0-2.61-2.153 11.652 11.652 0 0 0-1.24-.718c2.614 2.735 3.758 7.323 4.257 11.08-.751-.64-1.827-1.516-2.791-2.143a12.791 12.791 0 0 0-.477-.295c-1.247-.782-4.796-2.914-9.082-3.691l5.08 2.757a13.763 13.763 0 0 1-1.209-.22c-2.447-.551-2.52-.559-5.92-1.542-3.208-.928-4.07.183-6.567 1.905 1.315-2.588 3.43-5.703 6.771-8.383Zm116.805-69.956s-.161-1.351-.216-2.114l.523-.57c1.347-.018 4.741.352 5.187.374-.521.003-5.064.128-5.269.172-.224.054-.174 1.998-.225 2.138Zm.66-3.063 2.795-3.016c.625.847 1.247 1.658 1.749 2.413.104.154.205.31.298.457-1.561.176-3.217.252-4.842.146Zm-2.615 12.409-.048.052.013-.199.017-.346c.002.061.009.167.014.313.003.055.002.116.004.18Zm-16.184 16.303s-.023-3.901.399-5.037c.416-1.141.281-2.665.31-2.934 0 0 .307 2.751.011 3.736-.297.985-.72 4.235-.72 4.235Zm-.517 5.029s-3.042 4.419-5.177 5.841c-.385.255-.844.598-1.342.992-2.25 1.788-5.251 4.585-5.453 4.747.073-.089 1.688-1.717 3.717-3.726 3.441-3.409 8.057-7.921 8.255-7.854Zm1.827-17.69c-.022.031-.043.059-.062.096l-.004.006a2.952 2.952 0 0 0-.187.427c-.278.77-.526 2.066-.742 3.366l-.032.206c-.301 1.966-.498 3.868-.498 3.868s.019-1.628.143-3.477c.003-.057.007-.118.014-.177l.007-.009c.066-.992.165-2.032.313-2.904l.053-.291-.014.014c.004-.006.004-.009.005-.015.091-.493.204-.919.336-1.235.733-1.767 2.544-2.177 3.036-2.402l-.189.203a.028.028 0 0 1-.007.009c-.519.476-1.565 1.473-2.172 2.315Zm3.06-11.363c1.287 1.326 3.135 3.171 3.914 3.862l-2.479 2.675c-.226-.664-.58-1.663-.831-2.799-.195-.9-.409-2.399-.604-3.738Zm-1.444-4.412c-.004.005-.002.015-.003.021l-.001-.019.004-.002Zm-78.57 100.898 1.784-1.906c.602 1.611 1.739 4.551 2.16 5.042l-.472.494a7.436 7.436 0 0 0-2.113-.763 3.077 3.077 0 0 1-.3-.078 94.355 94.355 0 0 1-1.06-2.789Zm.23 2.419c-.486-.265-.998-.622-1.535-1.026l.858-.915c.176.547.46 1.335.677 1.941Zm2.646-5.495 2.242-2.395c.46.992 1.05 2.893 1.41 3.899-1.205-.172-2.501-.342-3.182-.377-.172-.416-.33-.8-.47-1.127Zm-5.69 3.285c-1.203-.956-2.449-1.914-3.614-2.396a3.605 3.605 0 0 0-.623-1.326c.088-.451.126-.904.217-1.182.15-.45-.034-1.724-.831-3.072.085-.227.144-.512.179-.832.103-.94.012-2.18-.117-3.148.681-1.379 1.477-3.797 1.168-7.242 2.547-2.004 10.9-8.708 11.92-17.984.133-1.218.14-2.487-.005-3.787.037.352 3.762 4.958 8.95 6.055 0 0-1.758.034-3.685-.405 0 0 4.085 7.317 7.128 9.117l.85 3.178-21.537 23.024Zm-3.56-22.648c.691-2.838 5.694-7.508 5.567-7.155-1.477 4.045-5.567 7.155-5.567 7.155Zm25.914-6.785c.044-.452.122-.865.253-1.196l4.478 1.671-2.296 2.453-2.435-2.928Zm1.621 3.799-1.24 1.327c-.002-.007-.382-1.975-.422-3.843.698 1.174 1.66 2.512 1.662 2.516Zm2.178-6.416 2.831-.819s-8.183-3.214-10.48-4.012c.424.119 4.585 1.261 7.614.38 0 0-7.41-3.369-10.934-6.331 0 0 2.757 1.133 6.766 1.725 0 0-4.974-3.388-7.508-4.893.538.034 1.262.096 2.275.189 3.08.281 4.774 1.824 7.503 1.164 2.733-.66 7.98-2.628 9.46-2.692 1.476-.065 4.344.081 7.655-1.703 3.304-1.785 4.923-2.628 7.07-4.652.422-.402.831-.872 1.215-1.387 1.053-.76 2.434-1.335 3.5-1.712l-23.68 25.316c-.104.095-3.287-.573-3.287-.573Zm51.403-48.07c.002.061-.001.121-.002.185-.047 1.828-.017 3.87.041 5.739l-61.843 64.695c-1.287-.557-2.642-1.015-3.42-.885l65.224-69.734ZM31.585 255.516c-2.564-6.102 5.114-11.274 5.31-11.404-2.911.91-4.922 2.722-6.209 4.622-.803-3.084 3.05-9.868 3.152-10.047-1.912.498-3.716 2.496-4.997 4.588-.08-.82-.116-1.782-.04-2.828.227-3.083 1.6.346 1.934-4.283.333-4.628 5.862-5.926 5.862-5.926-3.857-.409-6.268 1.953-8.204 4.936a15.393 15.393 0 0 0-.943 1.629 4.47 4.47 0 0 1-.246-2.914c.619-2.54.566-3.079 1.823-4.483 1.254-1.407 3.644-3.801 6.675-4.259 0 0-2.523-.219-3.791.317-.753.32-3.892 1.674-5.12 3.469.7-1.765 1.608-3.792 2.203-4.129 1.085-.614 2.815-1.442 4.594-1.643 1.776-.202 3.718 1.145 5.095 1.466 1.38.321 1.874-.079 5.585.892 2.526.663 3.959 2.568 4.617 3.719.026.312.047.617.064.901-.581-.082-1.573-.319-2.886-.781-2.033-.714-1.328-1.315-5.684-3.188-4.275-1.839-8.717 2.914-8.88 3.09.17-.115 2.986-1.999 6.293-1.49 3.41.527 3.508 2.725 6.613 3.969 2.33.934 2.513 1.697 2.504 2.217-2.027-.575-4.906-.84-8.015-.448-5.274.665-5.833 4.033-5.833 4.033 8.401-3.393 12.89-.461 14.059.506-.819-.19-1.796-.309-2.976-.324-8.021-.088-11.408 7.189-11.408 7.189 11.248-7.609 13.616-3.989 14.46-3.185-2.343 1.23-4.897 3.627-6.552 4.854a6.244 6.244 0 0 0-.595.504c.058-.115.754-1.513.106-.994-.67.529-7.95 6.07-8.57 9.425Zm5.557-5.049a95.13 95.13 0 0 0-2.652 3.699c.6-1.076 1.636-2.45 2.652-3.699Zm-1.748 16.588c.15.644.456 1.859.76 3.058a98.053 98.053 0 0 0-2.768-.916l2.008-2.142Zm.518-.552 1.164-1.247c.023.014.04.028.057.039.604.648 1.253 1.331 1.908 2.009l-2.277 1.84c-.3-.929-.613-1.888-.852-2.641Zm-3.014 3.222c.435.175 1.168.453 1.87.718-.276.654-.892 2.101-1.238 2.711a102.69 102.69 0 0 0-2.149-1.811l1.517-1.618ZM5.235 285.842s4.713-7.38 6.56-9.555c0 0 4.391 1.035 9.085 1.987-1.684.472-3.65 1.074-2.811 1.13 1.216.076 7.343.053 9.237.133-.104.889-9.76 8.022-22.071 6.305Zm22.97-5.503c.222-.306 1.025-1.408.936-2.281-.085-.879-.185-1.456-.19-2.099-.004-.358.224-1.187.427-1.85.46 1.242 1.18 3.096 1.551 4.049-1.37 1.164-2.86 2.366-2.724 2.181Zm2.954-5.149-1.36-2.155 1.05-1.124c.209.226.455.496.725.795-.113.424-.286 1.529-.415 2.484Zm1.795 1.163c-.14.146-.373.365-.665.627l-.465-.736c.08-.951.185-2.176.271-2.96.658.739 1.357 1.522 1.828 2.058l-.969 1.011Zm1.937-2.022c-.23-.198-.511-.444-.824-.712l1.201-2.991c.46.175.864.325 1.123.42.13.502.248.967.346 1.35l-1.846 1.933Zm2.653-2.777c-.117-.368-.266-.826-.429-1.335l2.67-2.151c.188.19.37.377.556.561l-2.797 2.925Zm25.275-20.569c-1.148.419-2.943 1.176-3.25 1.954-.457 1.155-3.073 3.624-4.516 4.041-.55.161-1.187.388-1.827.696-1.036.495-2.071 1.205-2.763 2.178-.452.638-.621 1.158-.846 1.582 0 0 0 .003-.004.005-.175.33-.384.603-.79.822-.348.192-.835.345-1.57.473-2.62.448-3.064 1.86-3.019 4.315l.002.2c.005.068.06-.096.18-.389v-.003l3.051-3.175c2.285-.307 3.523-.713 4.504-1.865.984-1.152 2.02-2.756 3.14-3.163 1.352-.497 4.68-1.924 4.784-2.979.105-1.088 1.734-3.593 2.98-4.595.152.25.3.557.458.938.788 1.895 1.317 3.004.793 4.637-.406 1.267-1.398 1.355-2.191 1.822-.117-.152-.607-.379-1.062-.565a18.54 18.54 0 0 0-.884-.334c.04.078.685 1.315 1.084 2.098v.003c-.116 1.029.461 2.304-1.807 2.579-2.386.286-3.588.278-4.378.661l-1.639-1.24c.031.076.564 1.291.831 2.139-.365.953-.47 2.523-1.143 3.543-.83 1.263-.636 1.899-1.955 1.711h-.006c-.916-.758-3.56-2.948-3.746-3.093-.168-.131.883 1.694 1.56 2.616-.19.082-.433.219-.765.428-1.644 1.043-1.31 1.637-4.633.145a3.245 3.245 0 0 1-.204-.098c-.12-.198-1.166-1.158-1.704-1.638a189.716 189.716 0 0 1-3.45-3.206c-.48-.453-.952-.901-1.385-1.316-.943-.9-1.713-1.639-2.031-1.941-1.067-1.013-1.428-3.571-.515-5.985 2.228-2.46 10.097-10.886 13.654-11.467 2.884-.468 2.712-1.271 5.522 1.443l.084.082c.489.465.97.882 1.447 1.252a19.982 19.982 0 0 0 4.383 2.621c.454.201.86.364 1.214.509.188.078.368.146.53.21.878.348 1.392.574 1.882 1.349Zm-.415-5.429a124.36 124.36 0 0 0-1.026-2.655l2.587 1.024-1.56 1.631Zm3.273-3.424c-.227-.034-.483-.074-.754-.113-.437-1.018-1.315-3.062-1.926-4.477l.628-.667c1.038.92 2.695 2.462 3.575 3.664l-1.523 1.593Zm2.577-2.695c-.805-1.106-2.22-2.928-3.427-3.851l1.109-1.184c.771.34 1.807.787 2.848 1.183.096.886.218 2.063.312 2.973l-.842.879Zm1.191-1.244c.002-.015.024-1.488.023-2.354l.345.328.15-.159c.433.145.853.267 1.231.357l-1.749 1.828Zm2.947-3.084a43.836 43.836 0 0 0-1.062-.529l60.969-63.779c.021.56.044 1.093.066 1.583-.001.006.002.009.001.012l-59.974 62.713Zm41.186 15.751-.499.239c-.335.162-.658.328-.976.496a21.844 21.844 0 0 0-2.937-.241 18.103 18.103 0 0 0-4.377.466c.975-.663 1.94-1.27 2.83-1.788.486-.283.95-.54 1.381-.766a70.018 70.018 0 0 1 1.929-.021c2.287.003 4.24.087 5.911.211a48.393 48.393 0 0 0-3.262 1.404Zm7.918 3.903a32.854 32.854 0 0 0-1.695-.83c.355-.093.704-.175 1.042-.245.809-.165 1.568-.261 2.257-.27l.006.001a17.228 17.228 0 0 0-.821 1.128c-.105.159-.206.32-.306.481-.145-.081-.306-.17-.483-.265Zm22.287-20.043c.002.003.005.006.007.013-.528 2.102-.426 6.739-7.822 10.036a25.094 25.094 0 0 1-4.98 1.652c.643-.729 1.417-1.456 2.348-1.989 2.447-1.398 4.288-3.679 4.463-3.924-.321.274-5.226 2.676-7.776 3.559-1.462.506-2.838 1.87-4.043 3.131-1.368.179-2.803.394-4.412.778-5.986-1.294-18.061-4.164-29.98.073-2.78.988-4.958 2.078-6.661 3.191a57.672 57.672 0 0 1-.853-3.072c.92-2.134 3.076-5.829 6.51-4.377 4.7 1.986-2.127 3.384-2.127 3.384s7.38.278 6.672-3.066c-.55-2.605-8.26-3.904-11.967-1.261-.068-1.064-.02-2.025.194-2.781.36-.108.784-.189 1.291-.23 3.424-.281 11.595-.534 14.005.191 2.407.728 12.89 2.786 16.986 2.558 3.201-.178 15.758-.758 24.084-5.32l.027.003c.548.061 2.406-1.22 4.034-2.549Zm-7.869-49.702s-.517 4.697.348 6.449c.861 1.755.517 2.847.564 7.905.047 5.058-1.708 12.781-1.708 12.781 1.945-1.898 2.956-6.304 2.956-6.304s.3 2.063.759 4.752c.402 2.353 1.337 7.181 2.08 9.626-.396 2.531-1.102 5.925-2.315 7.616l2.542-2.984c-.067.257-.137.531-.194.827-.346 1.774.584 4.966.12 6.875-.22.903-1.127 1.794-2.11 2.579-4.91 1.672-4.124 2.273-8.459 3.148.64-.69 1.188-1.629 1.922-2.96.859-1.554 2.101-3.184 2.869-4.138-1.871 2.172-4.621 4.757-3.396 2.101.052-.115.105-.236.158-.364 1.114-2.698 2.243-8.199 2.588-9.961-.961 4.251-5.95 11.691-6.877 12.907-.97 1.268-2.097 1.935-4.687 2.181-2.593.242-6.232.445-7.585.405-1.356-.037-6.033-2.054-9.546-4.4-3.457-2.31-8.495-4.872-8.653-4.95.17.191 7.402 8.366 9.737 9.389.54.238 1.188.467 1.885.686-4.744-.64-11.316-1.035-16.106-2.216-3.18-.786-7.028-3.175-9.299-4.727-.125-.568-.34-1.373-.075-2.622.313-1.472.761-2.101 1.83-3.041 1.073-.936 2.75-1.582 4.462-2.751 1.386-.947 1.882-2.652 2.602-3.188 2.52 1.467 5.939 3.515 6.776 4.307 1.366 1.295 3.904 1.547 5.405 1.588 1.504.041 6.359-.91 7.444-1.169 0 0-3.602-.847-6.583-1.175-2.979-.328-4.106-1.733-7.221-2.905-3.113-1.173-3.9-3.595-4.175-3.852-.275-.258 1.134-.706 2.075-1.053.945-.351 1.233-.244 3.195.426 1.965.668 3.115.491 6.087.215 2.968-.276 6.179-2.035 6.179-2.035-7.2 1.699-9.411-.807-11.483-1.171-2.072-.361-.58-2.267-.65-3.707-.01-.24.033-.466.123-.677l1.016-1.058c.772-.463 1.905-.796 3.284-1.02 2.732-.439 5.023-2.238 5.023-2.238-3.017 1.404-4.517-.045-4.93-.263l15.462-16.122c1.922-.313 5.01-.879 9.305-3.679.349-.228.672-.435.975-.629l-.084.157c.218-.139 3.549-.764 3.911 2.151-.42 2.601-.85 4.335-.85 4.335 1.928-1.748 3.304-6.047 3.304-6.047Zm5.78-22.378-5.203 5.441-.045.05-.003-.055c-.045-1.877.09-3.762.313-5.516 1.524.053 3.255.092 4.845.07.037-.002.07-.005.106-.004l-.013.014Zm1.303-.557c-.342.057-.681.101-1.012.137-2.89.334-5.209.049-5.209.049l.364-2.408c-.088.633-.211 1.946.297 1.984.466.033 3.173.103 4.774.143l.106.002-.007.009c.353.008.655.017.867.019.069.002.127.005.178.005l-.358.06Zm2.614-3.687c-2.402.463-5.402.83-8.269.594.076-.386.159-.758.237-1.11.013-.059.028-.115.04-.172l8.225-8.877-.003.054c-.107 2.908.006 6.538.122 9.144l-.352.367Zm1.085-3.092c-.016-1.562-.037-5.069.099-7.462a.133.133 0 0 0 .001-.04c.044-.755.102-1.394.183-1.821.126-.683.446-1.357.818-1.961l.003-.003c.07-.11.142-.218.215-.325.79-1.158 1.73-1.985 1.773-2.025-.008.017-.06.108-.157.276l-.001.003-.109.2c-.304.533-.852 1.515-1.662 3.014-.273.503-.483 1.282-.643 2.192l-.008.041c-.454 2.616-.506 6.309-.512 7.911Zm2.574 1.992v.003a.296.296 0 0 1-.026.067c-.01.014-.042.028-.081.045-.35.156-1.66.469-2.374.633-.054.015-.103.025-.147.035.122-.056.288-.135.483-.228a81.22 81.22 0 0 0 1.767-.833c.215-.113.349-.728.428-1.359.009.689.003 1.403-.05 1.637Zm7.88-11.085v.003l-7.108 7.504c-.048-2.735.258-5.518.651-7.905 2.037.073 4.502.129 6.52.045-.022.115-.043.231-.063.353Zm5.577 19.235s-1.166-2.155-.427-4.576c.74-2.427.233-1.344.041-1.256-.181.083-2.831 2.025-3.701 4.595.36-1.209 1.458-4.557 2.817-5.755 1.503-1.329 1.414-2.226 1.384-2.39.122.374 1.397 4.319 1.226 5.627-.175 1.371-1.371-.066-1.34 3.755Zm-.141-11.803c.017-.38.011-.793-.033-1.164l.227.279s.661 1.376.753 1.443c.014.011.071.048.168.098-.056.618-.164 1.133-.237 1.222-.091.108-.356.318-.632.512-.26.183-.523.348-.674.401-.165.061-.132-.568-.123-1.195.173-.147.322-.285.382-.367.068-.092.146-.614.169-1.229Zm17.656-24.569c.261.692-.929 3.327-1.552 3.819-.621.492-2.806.967-3.483 2.359-.673 1.386-.733 1.125-1.863 1.379-1.127.252-1.781-.008-2.282.94-.501.948-.641 2.141-2.013 2.666-1.366.522-3.771.985-4.33 1.632-.545.634-1.904 2.747-1.939 2.81.154-.05 5.172-1.74 6.521-2.331 1.372-.597 2.302-3.851 3.73-4.143 1.43-.297 1.279 1.05 2.709-.526 1.427-1.57 3.306-3.263 3.535-3.328.227-.06-1.057 1.592-1.506 4.269-.452 2.68-2.678 6.455-4.088 7.73-1.412 1.272-4.986 3.996-4.986 3.996s4.177-.213 6.099-2.659c1.796-2.28 2.401-2.986 3.254-5.013.53.573 1.511 1.684 2.433 2.994.925 1.313 1.789 2.826 2.092 4.207.746 3.408.405 8.548-1.216 11.06 0 0 2.057-1.213 2.388-4.23.074-.667.173-1.299.278-1.893.018.883.546 2.392.23 4.381-.227 1.433-.824 3.26-1.2 4.337-.736-1.078-1.639-1.604-1.639-1.604s.915 3.502-.298 5.799c-1.094 2.07-2.465 2.918-4.961 2.777 2.028-1.918 3.312-4.643 3.445-4.968-.114.16-2.022 2.741-6.392 2.624-4.513-.121.125-.483.125-.483s8.859-5.715 6.917-14.859c0 0-2.975 8.512-6.599 10.622-3.622 2.108-4.562.356-5.508-.657-.772-.83-2.207-6.022-2.705-7.888.629.123 1.4.19 2.279.108 2.473-.237 6.654-2.831 6.654-2.831-6.509 1.532-12.106-.434-11.38-.482a2.913 2.913 0 0 1-.67-.074c-.028-.045-.054-.09-.083-.127-.105-.12-.235-.262-.384-.418l-.003-.003c-.622-.68-1.525-1.643-1.909-2.337-.263-.477-.682-1.098-.83-1.823a2.505 2.505 0 0 1 .05-1.195c.067-.223.171-.45.324-.685.044-.077.096-.156.14-.227.128-.225.233-.444.317-.656a2.62 2.62 0 0 0 .202-1.095c-.008-.477-.177-.923-.506-1.347-.015-.026-.034-.049-.053-.072a3.465 3.465 0 0 0-.473-.485c-.029-.019-.053-.045-.081-.067-.729-.616-2.117-1.771-3.247-2.977l-1.202-1.495c-.337-.516-.548-1-.559-1.419l.001-.121c.026-1.727 1.584-2.695 2.023-2.719.027 0 .091.022.189.072.292.15.882.521 1.621 1.011 1.579 1.043 3.849 2.629 5.492 3.782.644.455 1.189.839 1.56 1.104.256.18.427.302.489.348-.055-.052-.219-.185-.458-.387-.347-.289-.859-.721-1.452-1.229-1.53-1.319-3.626-3.17-4.885-4.508-.588-.628-.995-1.142-1.072-1.433a2.254 2.254 0 0 1-.045-.195c-.285-1.401.148-3.713.794-3.891.681-.188 1.727-.279 2.459-.014.169.061.774.454 1.619 1.029 1.511 1.023 3.756 2.621 5.505 3.88.587.425 1.114.807 1.537 1.123.272.2.495.37.672.501-.16-.142-.369-.334-.614-.564-.387-.361-.862-.81-1.386-1.31a664.887 664.887 0 0 1-4.844-4.679c-.57-.551-1.049-1.015-1.366-1.326-.274-.263-.43-.417-.43-.417s.04-2.019.9-2.761c.861-.747 2.505-2.06 2.609-1.985.02.011.262.259.666.667.342.359.796.833 1.323 1.382a294.505 294.505 0 0 1 4.672 4.978c.498.543.935 1.033 1.279 1.428.333.391.581.697.704.875 0 0 .004-.506-.3-1.348a8.658 8.658 0 0 0-.942-1.821c-.06-.092-.128-.19-.193-.288-.627-.881-1.543-2.16-2.398-3.345-.401-.565-.787-1.11-1.125-1.583-.126-.178-.247-.346-.357-.503a36.72 36.72 0 0 1-.734-1.044c-.157-.251.744-.479 2.008-.491.294-.001.611.009.939.033.09.004.183.011.273.021.519.051 1.199.199 1.914.42 1.172.362 2.453.917 3.319 1.558.173.128.328.26.468.394.249.245.43.501.514.756.094.274.248.633.442 1.045l.173.362c.922 1.891 2.456 4.55 2.655 5.081Zm-.236-16.042s.304 2.829-.004 3.844c-.266.879-.64 3.507-.736 4.19-.018.104-.024.164-.024.164v-.197c.009-.823.055-3.974.433-4.984.437-1.17.301-2.739.331-3.017Zm-.685 10.782c-.075-.118-.149-.241-.226-.368.092.123.17.246.226.368Zm1.328-15.604c-.089.12-.176.305-.263.544-.303.827-.582 2.262-.81 3.67-.322 2.022-.531 3.98-.531 3.98s.024-1.679.16-3.578c.073-1.08.187-2.228.353-3.179.106-.634.242-1.182.402-1.567.821-1.958 2.929-2.284 3.233-2.511-.194.167-1.741 1.536-2.544 2.641Zm35.794-38.055c.724.08 2.55 1.525 2.812 1.948.178.289.377 1.922.485 2.95-1.519-1.48-2.999-2.703-4.234-3.535.224-.687.554-1.405.937-1.363ZM163.841 59.6c-1.33.081-2.33.614-3.066.945-.709.328-2.241.983-2.339 1.024.064-.093 1.496-2.035 3.308-2.46 1.857-.438 4.335-.353 4.335-.353-.859.623-.911.766-2.238.844Zm5.082-4.228c-.405-.947-.789-1.559-.789-1.559s.619.184 1.059.647c.44.46 1.014 1.054 1.014 1.054-.683.037-.88.809-1.284-.142Zm1.208 3.226s.675-.983 1.531-.889c.859.095 2.196 1.299 2.196 1.299-1.462-.424-3.727-.41-3.727-.41Zm33.238 19.676c-.834-.622-2.775-3.55-3.24-4.803-.464-1.26-3.429-1.737-5.244-3.748-1.815-2.005-1.471-3.1-1.471-3.1s1.604 1.23 3.435 3.092c1.828 1.858 1.64.18 2.857.768 1.217.585 3.844 6.145 3.844 6.145.432-4.751-5.439-8.808-5.451-9.415-.009-.603-1.356-1.355-2.326-1.461-.967-.106-1.505-.696-1.86-.883-.358-.19-.634-1.124-1.577-2.137-.946-1.006-1.382.227-2.407-.037-1.025-.261-.896-.777-1.984-1.848-1.091-1.07-6.591-2.487-7.595-5.01-.831-2.09-5.003-5.308-6.412-6.354.615.501 1.629 1.53 1.741 2.903.162 1.978-7.439-.227-7.439-.227 1.865-5.308 7.864-6.364 7.864-6.364s-5.812.04-7.51 1.738c-1.692 1.698-2.989 5.609-4.818 6.822-1.833 1.21-1.621.331-6.017 2.786-4.402 2.458-3.097 3.45-3.821 3.37-.703-.077 1.241-3.435 1.354-3.632-.164.161-2.785 2.79-4.544 4.187-1.649 1.303-2.715 4.936-2.9 5.604.69-2.784 1.915-6.618 1.915-6.618-2.142 2.373-8.404 14.635-8.52 14.977.003-.006.01-.011.014-.02.401-.668 3.917-4.522 4.137-4.762a240.838 240.838 0 0 1-6.339 9.061c1.5-5.352 4.413-11.599 6.938-16.162 2.635-4.764 7.826-14.941 7.826-14.941-5.23 4.36-7.153 9.51-7.153 9.51.949-5.3 3.15-8.484 3.287-8.678-6.901 6.642-10.812 19.647-12.835 28.952.049-.852.087-1.644.113-2.347.208-5.885.817-22.506 10.523-36.259-.661 2.105-.912 3.696-.912 3.696 1.726-4.43 8.134-11.384 8.567-11.849 10.21-8.144 23.356-10.389 33.785-10.575 0 0-9.045-1.712-18.599.515.315-.138 12.652-5.495 21.926-1.48-1.15.728-2.741 2.09-3.889 4.453-4.43-.402-20.298-.122-36.143 21.195.276-.282 4.79-4.799 6.61-5.408-.124.117-4.119 3.858-4.36 4.723-.248.878 4.186-3.8 5.654-4.808 0 0-1.275 2.008-2.211 3.302 0 0 11.286-8.69 17.586-11.987 0 0-3.562 3.083-4.027 4.22a7.496 7.496 0 0 1-.892 1.616c.898-.674 4.419-2.889 5.6-3.301-.197.142-6.507 4.634-7.084 6.852 0 0 6.16-3.564 9.342-5.759 3.183-2.195 3.835-1.953 5.205-3.611 1.37-1.661 2.237-2.357 2.522-2.383.275-.024-.101 2.655.187 5.658-.007-.437.095-1.256.719-2.332.028.13.06.258.092.377.004.021.02.072.04.131.018.057.033.113.052.166.27.845 1.01 3.262 1.125 4.84.134 1.864-.676 6.146-.676 6.146s1.536-3.027 1.84-5.408c.099-.79.187-1.649.245-2.454.647.837 1.143 2.03 1.134 4.296-.025 7.086-2.494 4.854.622 8.063 3.116 3.205 3.033 1.236 3.831 4.944.798 3.707.015 3.167 3.017 5.76s11.152 12.31 11.152 12.31-2.335 2.533-3.54 4.588c-.264.45-.521.994-.763 1.57-.71.616-1.556 1.26-2.142.825Zm-5.029 13.891c1.353-.011 4.764.37 5.318.41-.655.003-5.187.108-5.394.152-.233.05-.193 2.053-.242 2.197 0 0-.162-1.39-.215-2.178a3.082 3.082 0 0 1-.016-.484c.007-.065.216-.09.549-.097Zm-4.72 3.395c.135-.7.465-1.393.851-2.011l.007-.003c.852-1.357 2.004-2.363 2.052-2.41-.012.023-.105.183-.278.494-.315.547-.883 1.554-1.721 3.088-.289.532-.509 1.347-.68 2.298-.484 2.691-.553 6.491-.561 8.135-.014-1.607-.021-5.215.132-7.677.048-.791.109-1.463.198-1.914Zm-10.908 23.666c-.119-2.248.039-4.545.317-6.654 1.867.072 4.036.126 5.91.077l-6.227 6.577Zm6.738-7.114c-3.443.536-6.403.159-6.403.159l.375-2.4c-.088.672-.193 1.927.308 1.967.583.048 4.593.162 5.795.194l-.075.08Zm-5.803-3.21c.08-.397.165-.779.25-1.142l8.538-9.216c-.127 3.107-.014 7.015.098 9.714-2.532.497-5.786.912-8.886.644Zm12.25-1.616c-.117.129-1.703.5-2.527.689-.261.059-.447.099-.484.107.048-.025.326-.152.684-.322.635-.294 1.516-.706 1.808-.852.235-.123.377-.843.46-1.543.075-.595.104-1.167.114-1.342.007.159.021.642.03 1.191.014.895.008 1.967-.085 2.072Zm7.71-10.119c-.088.06-.184.131-.281.218-.75.65-1.891 1.77-2.165 2.191-.084.13-.167.282-.247.433l-4.157 4.387c-.124-3.088.227-6.288.685-8.988 2.485.1 5.594.173 7.817.017l-1.652 1.742Zm6.316-6.667c-2.463.638-6.959 1.577-11.219 1.275l6.335-6.837.096-.099.099.01c.911.75 1.932 1.743 2.917 2.842.766.85 1.468 1.718 2.043 2.52l-.271.29Zm-.368-4.094c-1.258-1.401-2.515-2.581-3.574-3.398-.003 0-.002-.003-.002-.003a16.864 16.864 0 0 0-.629-.45l.195-.21c.324.194.685.44 1.071.73-.054-.109-.564-1.12-.302-1.554.275-.46 3.189-5.853 3.189-5.853s.841-.962 1.884-1.684c-.001.01-.172 1.29-1.582 2.51 0 0 1.855-.362.531 1.131-1.328 1.496-1.744 4.786-1.744 4.786s1.824-2.708 3.769-3.951c1.949-1.246 1.889-3.288 1.889-3.288s.357-.028.894.02c.065 1.2-.038 3.736-2.002 6.116 0 0 3.216-2.909 4.072-5.135 1.326 1.333 2.736 2.89 3.695 4.141-.558.972-1.751 2.95-2.784 4.03 0 0 .39-2.118 1.017-3.77 0 0-1.93 1.106-3.055 3.094-1.124 1.988-3.654 4.085-3.654 4.085s.337-1.848.946-3.01c-.436.775-1.822 3.295-1.629 3.525.216.263.476 1.431.796 2.042-.702-1.14-1.739-2.509-2.991-3.904Zm4.192 3.697.054-.1s5.182-5.423 8.232-7.4c-.521 1.652-5.747 6.04-8.286 7.5Zm9.21-11.55c.262-.896.576-1.91.576-1.91l-1.404.924a41.563 41.563 0 0 0-1.707-1.835c.607-.176 1.5-.441 1.804-.59.48-.228 3.013 1.916 2.84 2.464-.101.316-.897 1.082-1.559 1.646a24.772 24.772 0 0 0-.55-.7Z" fill="#cccccc"/><path d="M10.611 280.61c-1.457 2.157 2.407 5.271 3.365 3.391.958-1.879-1.433-1.251-.6-2.375.832-1.125 1.896.886 2.647 1.041 1.034.214 2.105-1.231.915-2.782-1.19-1.55-4.87-1.433-6.327.725ZM134.637 222.967c.07-.353.108-.56.108-.56a7.216 7.216 0 0 1-.108.56ZM135.287 231.19c.252-.293.489-.579.697-.842 0 0-.28.323-.697.842ZM119.102 218.611c-.516-2.847-1.234-2.492-1.722-4.912-.488-2.419-1.232-4.009-1.165-6.263.066-2.255 1.149-1.52-.401-4.034-1.55-2.515-2.989-5.198-2.989-5.198-.086.782.972 4.187.853 5.96-.12 1.773-.883.483.707 4.202 1.589 3.718 1.483 4.687 2.006 6.78.524 2.094.354 5.016 1.121 6.608.768 1.593 2.107-.296 1.59-3.143ZM121.773 231.703c1.683.117 2.029-1.487 1.58-2.03-.45-.543-.172-2.042-.536-2.839-.365-.797-1.124-1.094-1.632-.589-.508.505.414.866.065 1.469-.349.604-.886-.689-.966-1.159-.079-.469-.752-.708-1.745-.192-.994.516.414 2.185 1.067 3.441.653 1.257 1.497 1.852 2.167 1.899ZM118.284 231.524a.082.082 0 0 0-.028-.018c-.007 0 .006.007.028.018Z" fill="#cccccc"/><path d="M118.283 231.523c.177.143 1.014 1.18 1.943 1.388.993.222 2.43 1.002 3.267.359.836-.644 1.017-1.266 1.017-1.266-.777.387-1.156.742-2.447.656-1.195-.079-3.511-1.007-3.78-1.137ZM124.058 220.175c-.357.676-.803 2.154-.803 2.154s1.278-.821 3.376-1.382c2.097-.561 4.68-.39 5.591-1.987.91-1.596.859-4.727.781-7.103-.011-.31-.11.994-1.412 3.066-1.302 2.072-.936 2.338-2.928 2.967-1.992.63-4.248 1.608-4.605 2.285ZM128.812 207.275c-1.693 1.51-2.183 1.852-4.218 2.873-2.034 1.02-3.758 3.319-3.758 3.319s1.607-1.237 3.605-1.922c1.998-.686 5.002-1.26 5.968-2.85.967-1.591.719-6.538.719-6.538-.203 1.335-.623 3.607-2.316 5.118ZM130.72 195.609c.527-.998 1.421-3.011 1.421-3.011s-3.331 3.555-4.98 4.731c-1.649 1.176-4.159 1.579-5.318 1.526-1.16-.052-1.446 1.802-1.704 2.094l-.039.354s5.842-1.017 7.09-1.785c1.248-.767 3.002-2.912 3.53-3.909ZM85.44 230.388c.014.397.743 2.513 1.526 3.108.783.595 6.665 2.637 6.665 2.637s-4.189-2.365-5.642-3.373c-1.454-1.008-2.548-2.372-2.548-2.372ZM90.58 223.77c-.962.516-2.496 1.78-1.763 1.456.733-.325 3.364-1.789 3.742-1.803.379-.015 2.416.491 2.416.491-.79-.539-2.1-1.644-2.28-1.721-.181-.076-1.154 1.061-2.115 1.577ZM135.239 198.367c.02-.186 1.11-2.554.528-4.805-.582-2.251-.494-5.446-.494-5.446-.264.687-1.369 1.131-.916 2.84.453 1.709.862 7.598.882 7.411ZM100.285 264.257c-.056.069-.089.126-.093.166-.016.142.008.07.093-.166ZM73.068 258.057c-.002.019.013-.02.041-.099a.569.569 0 0 0-.041.099ZM96.037 245.973s4.27-.775 6.322-1.266c2.052-.49 6.927.093 6.927.093-8.982-3.353-13.25 1.173-13.25 1.173ZM117.482 133.199c-1.45 1.528-3.15 2.595-6.717 4.177-3.568 1.583-7.045 6.182-7.045 6.182s4.729-2.765 7.597-4.599c2.868-1.833 6.165-5.76 6.165-5.76ZM115.122 133.064c.688-.774 1.971-4.214 1.971-4.214l-.975 1.328c-.256.61-.48 1.281-1.84 2.669-1.359 1.388-2.601 2.835-2.601 2.835s2.757-1.844 3.445-2.618ZM163.098 151.689a.677.677 0 0 0-.108-.002c.037 0 .069.003.108.002ZM163.298 150.951c.624.402 5.212.962 5.579 1.008-.368-.054-3.906-1.112-4.907-1.745-1.011-.639-2.225-1.941-2.225-1.941-.016.149.884 2.247 1.553 2.678ZM168.877 151.959l.013.002a.614.614 0 0 0-.013-.002ZM139.554 272.846c-12 2.252-9.117 17.958-9.117 17.958s3.365.695 6.743-.493c0 0-2.662-8.279 4.021-10.596s11.941 1.248 13.632 2.992c0 0 2.153-.091 4.598-2.256 0 0-7.877-9.857-19.877-7.605ZM183.016 266.756s2.07 13.63-3.018 37.188c-24.103-.151-36.959-5.132-36.959-5.132-5.123 2.099-8.016 1.91-7.736 2.072 14.312 8.281 49.282 9.349 49.745 9.362l.003.004.001-.003v-.001c.088-.455 6.641-34.822 1.666-50.591-.096-.308-.54 2.556-3.702 7.101Z" fill="#cccccc"/><path d="M142.69 290.982c-15.609 6.726-31.035-.619-31.035-.619-1.152 2.21-5.625 5.095-5.625 5.095 22.757 9.774 41.278.772 41.278.772-2.704-1.986-4.618-5.248-4.618-5.248ZM98.732 271.086s22.039 4.284 32.528 1.411c0 0 .829-5.969-2.207-9.853 0 0-3.127.089-5.139 1.859 0 0 1.028 1.667.762 3.307 0 0-12.382 2.771-24.294-2.671-.001 0-1.92 2.107-1.65 5.947Z" fill="#cccccc"/><path d="M118.266 274.921c-2.765.345-5.52-1.118-5.622-.834-10.577 29.269-40.824 14.992-40.824 14.992-1.295 1.935-3.83 3.626-3.83 3.626 40.424 17.69 50.276-17.784 50.276-17.784ZM69.929 277.14s3.047 1.027 6.068-.069c0 0 1.431-11.054 13.67-9.363 0 0 .177-2.794 1.61-4.801 0 0-17.467-2.959-21.348 14.233Z" fill="#cccccc"/><path d="M64.746 278.215c-2.355 1.732-1.991 5.413-1.638 5.448 19.143 1.888 26.706-4.467 26.706-4.467-.971-6.297-6.87-10.192-7.098-10.087-2.24 1.029-3.869 3.687-3.869 3.687 1.626.958 2.985 4.354 2.985 4.354-9.274 3.814-17.086 1.065-17.086 1.065ZM72.49 285.148c-1.02.408-6.138-.285-6.138-.285-12.06 12.245-21.504-3.439-21.504-3.439s.174 11.419 11.707 12.232c11.533.814 15.935-8.508 15.935-8.508ZM145.051 280.138c-4.006-.18-5.899 2.858-5.899 2.858 12.794 25.09 35.312 14.53 35.59 14.399l.002.002s15.523-19.821-6.323-37.87c0 0-3.377 1.187-4.071 5.136 0 0 14.624 9.92 8.031 23.22l-3.091-4.366-3.339 2.911-.001-.001-3.569 2.629 3.59 3.966c-14.415 3.545-20.92-12.884-20.92-12.884Z" fill="#cccccc"/><path d="M165.405 285.753h.001l.001.001s4.893-4.334 7.291-7.836c0 0-.553-3.827-3.328-5.755 0 0-4.328 5.692-8.043 8.498l-.001-.001c-3.545 3.017-10.045 6.007-10.045 6.007 1.28 3.128 4.895 4.499 4.895 4.499 3.878-1.555 9.068-5.296 9.229-5.413Z" fill="#cccccc"/><path d="M161.532 278.769c2.644-1.918 3.201-3.999 3.201-3.999-1.335-2.03-3.673-7.936.041-13.956 3.713-6.02 11.217-1.624 11.217-1.624 1.892-3.039 1.945-6.474 1.945-6.474s-14.704-6.227-19.51 4.998c-4.805 11.224 3.106 21.055 3.106 21.055Z" fill="#cccccc"/><path d="M187.782 229.903s-3.788 3.739-6.196 4.383c0 0 3.818 16.653-6.137 30.428 0 0 2.768 2.577 4.119 5.648 0 0 12.811-16.124 8.214-40.459ZM154.085 240.976c-2.165 1.58-3.335 4.271-3.335 4.271 3.131 3.807 9.138 4.294 9.138 4.294 5.082-9.614 5.688-32.057 5.688-32.057-3.689-1.098-6.162.318-6.162.318 2.723 12.81-2.671 24.294-2.671 24.294-1.658-.095-2.658-1.12-2.658-1.12Z" fill="#cccccc"/><path d="M165.483 231.715c-.299.039.531 3.046-.407 5.67 0 0 36.767-1.911 28.281-45.212 0 0-2.201 2.106-4.372 2.95 0 0 7.366 32.627-23.502 36.592ZM176.357 196.592c1.726-2.711 1.385-5.909 1.385-5.909-17.624.054-18.53 17.746-18.53 17.746 2.271-.962 5.037-.528 5.037-.528 1.007-12.313 12.108-11.309 12.108-11.309Z" fill="#cccccc"/><path d="M175.429 210.54s7.846-6.002 10.162-25.097c.042-.352-3.471-1.507-5.674.415 0 0 .987 8.223-4.751 16.447 0 0-3.02-2.064-3.602-3.859 0 0-2.948 1.013-4.439 2.975-.152.2 2.369 6.804 8.304 9.119ZM196.769 181.217c1.711-11.435-9.397-14.084-9.397-14.084s13.258 12.625-1.314 21.737c0 0-.436 5.147-1.055 6.053 0 0 10.055-2.271 11.766-13.706ZM56.983 287.405s3.086.274 5.023-1.981c0 0-1.854-11.755 9.08-14.282 0 0 1.432-4.172 3.85-5.291 0 0-19.52-.826-17.953 21.554Z" fill="#cccccc"/><path d="M190.574 180.276c-21.504-6.389-24.939 12.843-24.939 12.843 1.618-2.116 6.001-2.609 6.001-2.609 4.842-10.124 15.914-5.761 15.914-5.761 2.621-1.4 3.024-4.473 3.024-4.473Z" fill="#cccccc"/></svg>