<svg width="261" height="285" viewBox="0 0 261 285" fill="none" xmlns="http://www.w3.org/2000/svg"><path d="m185.167 55.425 10.054-6.805c-.445.22-8.612 2.597-10.705 3.386-1.556-8.313-2.653-15.142-2.653-15.142.389 22.992 9.638 43.41 9.245 42.505-1.876-4.322-4.129-14.585-5.941-23.944ZM221.86 56.387c3.851 5.914 9.112 23.3 9.112 23.3s-.507-4.378-2.569-10.495c-2.063-6.117-6.543-12.805-6.543-12.805ZM224.54 84.576c.807.066 1.996-2.042 2.281-2.57-.419.565-2.988 2.518-4.943 3.966 1.075-.737 2.221-1.433 2.662-1.396ZM221.878 85.972c-1.174.804-2.265 1.657-2.265 1.657s1.004-.723 2.265-1.657ZM226.821 82.007c.038-.05.063-.094.065-.121l-.065.121Z" fill="#cccccc"/><path d="M232.164 82.662c.039.221 2.792 16.374-.888 24.606.252-.525 2.291-4.842 3.029-8.758.389 7.7-.452 15.122-4.063 19.428-.244.293-.488.56-.732.819l-5.935-12.512c1.702-1.81 5.895-6.262 6.932-7.287-.73.586-2.904 2.188-3.041 2.289l5.009-6.532-8.994 8.96a5.738 5.738 0 0 0-.103-.259c.034.1.067.188.092.266l-.752.753-8.031-16.93 1.486 4.078-6.098 4.242 4.832-2.25-5.51 5.042c-.353-1.327-4.534-7.896-4.665-8.102.337.884 2.096 7.416 3.346 9.307l-1.805 1.652 1.975-1.416c.785.94 3.483 4.917 5.399 7.774-.219-.458-.375-.826-.44-1.062-.433-1.54-2.9-5.843-3.639-7.658l7.411-5.316 4.334 11.896c-1.245.962-3.763 2.807-6.09 4.495l-1.575-2.355c.326.688.796 1.579 1.321 2.539-2.322 1.687-4.395 3.176-4.731 3.419a20.43 20.43 0 0 1-.608-.87 17.933 17.933 0 0 0 .558.906c.912 1.385 2.867 4.022 5.749 6.147 2.885 2.124 6.698 3.742 11.326 3.09a6.161 6.161 0 0 0 1.867-.578c.742.927 2.146 2.686 2.115 2.574-.026-.101-.763-1.925-1.236-3.097 8.291-5.862 7.022-32.61-.796-51.17.135.438 1.61 5.306 2.951 11.87Zm-21.922 31.133 5.102-2.743c1.51 2.72 3.286 5.711 3.499 6.068l-3.166-6.248 6.291-3.382 4.894 13.425c-7.382 4.383-14.493-4.196-16.62-7.12Z" fill="#cccccc"/><path d="M230.744 98.743c-.015.002-.098.079-.236.214.17-.136.264-.218.236-.214ZM201.949 75.068l-10.138 6.147s4.796-2.253 6.154-2.781c1.357-.527 3.984-3.366 3.984-3.366ZM194.788 82.739c.274-.04.713-.278 1.236-.622-.996.406-1.556.667-1.236.622Z" fill="#cccccc"/><path d="m230.5 80.698-11.503 9.028a3103.731 3103.731 0 0 1-2.225-7.095c.477-.417.785-.707.785-.707 2.443-2.214 4.248-6.353 1.296-13.587a20.657 20.657 0 0 0-.389-.9l5.713-4.76-6.197 3.742c-2.441-4.822-5.535-6.926-7.92-7.833a4.233 4.233 0 0 0-2.832-.067l.115-.075c-.041.018-.123.058-.234.112a4.297 4.297 0 0 0-.815.4l-1.742-3.683 3.19-2.062.281 3.338s.272-1.812.396-3.777l6.227-4.025-6.193 3.458c.045-.918.05-1.833-.026-2.582-.153-1.542-.812-4.88-1.304-7.234l4.579-2.724-4.706 2.11c-.246-1.167-.424-1.972-.424-1.972.036.358.106 1.097.191 2.075l-7.059 3.164-10.771-22.743 16.09 37.326c-1.422.776-3.066 1.8-3.608 2.645-.933 1.462-.859 8.624 1.969 15.345-.802.367-1.799.79-2.244.852-.62.088-3.349 2.484-5.115 3.65 2.142-.875 6.303-2.428 8.01-3.065.016.033.029.063.045.093 3.508 7.127 6.634 6.48 8.303 6.297.734-.08 1.825-.773 2.815-1.52 1.034 2.446 6.905 16.342 8.179 19.494-.639-1.85-2.398-7.394-3.941-12.293L230.5 80.698Zm-26.283-26.129-3.862-8.154 6.47-3.847c.246 2.802.604 6.997.867 10.062l-3.475 1.94Zm2.553 23.21a18.662 18.662 0 0 0 1.3 3.419 28.473 28.473 0 0 1-4.333-9.943s.31 3.442 1.69 7.537c-.046-.098-.094-.193-.14-.294-2.631-5.611-3.397-13.942-2.769-15.667.187-.516.696-1.117 1.318-1.706-.481.947-1.108 2.966-.594 6.615 0 0 .287-1.933.758-3.694-.158 2.023.06 4.584 1.056 7.748 2.515 7.995 4.683 11.516 6.992 12.18-2.723-.605-5.278-6.195-5.278-6.195Zm4.287-2.907c.6.58 1.595 1.461 1.595 1.461-1.302-.171-2.863-.36-3.02-1.822-.122-1.154-.456-3.134-.47-3.233.006.025.026.144.067.374.25 1.398 1.229 2.64 1.828 3.22Zm-.915-3.296 1.605 1.615c-.297.041-.634.296-.972-.324a21.004 21.004 0 0 1-.633-1.29Zm4.3 9.112c-1.024-.368-4.109-1.573-3.327-1.832.781-.264 2.068 1.596 2.986.855.917-.743 1.126-1.434 1.379-2.905.253-1.468 1.095.151.282-1.982-.81-2.137-.411-2.65-1.156-2.443-.743.203-1.03.707-1.296-.432-.26-1.14-1.524-2.138-1.807-1.586-.278.549-.973-.017-1.533-3.622-.556-3.603-.638-6.352-.993-4.514-.353 1.84.001 4.706-.759 4.044-.757-.66-2.193-3.934-1.866-4.9.324-.966-.024-1.327 1.43-1.838 2.616-.922 8.315 3.482 9.678 8.098 1.367 4.615 2.586 7.46 1.843 8.741-.737 1.28-.305-.368-1.491 1.387-1.183 1.75-.504 1.859-1.401 2.393-.894.536-.947.902-1.969.536Z" fill="#cccccc"/><path d="M208.403 33.995a126.07 126.07 0 0 1 3.3 5.67c3.109 5.674 6.974 13.737 8.92 21.733 0 0-2.174-10.117-3.732-15.656 6.991 11.22 11.316 22.065 11.316 22.065-9.389-28.991-23.9-40.922-30.709-45.69-6.808-4.769-9.988-.844-9.988-.844 7.606.11 14.764 5.575 20.893 12.722Z" fill="#cccccc"/><path d="M220.44 67.841s3.231-1.75 3.599-2.04c.368-.291 1.125-1.694 1.125-1.694l-4.724 3.734ZM201.143 57.517c-.451.064-11.714 7.719-11.714 7.719s4.487-2.029 6.64-3.202c2.153-1.173 5.074-4.517 5.074-4.517ZM200.721 41.913s.022-5.321-.195-6.211c-.216-.89-1.359-4.82-1.359-4.82.133.39.403 7 .382 7.412-.02.412 1.172 3.62 1.172 3.62ZM201.348 87.842c.238 2.019.154 5.446.305 6.444.151.999 4.77 8.257 4.77 8.257s-3.433-7.555-3.556-8.428c-.123-.872-1.519-6.273-1.519-6.273ZM208.294 109.064c-.135-.177-.367-.44-.657-.752l.657.752ZM202.715 103.066c.467.592.834 1.053.943 1.179.311.359 2.706 2.696 3.978 4.067l-7.854-8.992s1.775 2.277 2.933 3.746ZM187.309 41.718l-2.949-10.835s1.19 2.22 1.39 2.668c.2.45 2.252 4.388 2.102 3.795-.151-.592-.575-4.078-.575-4.078s-2.542-3.051-2.642-3.514c-.099-.464-.135-3.138-.135-3.138l-.006-.047c.006.047-.035.277-.102.603a150.864 150.864 0 0 1-.727 3.195s.916 3.485 1.184 3.993c.268.508 2.46 7.358 2.46 7.358Z" fill="#cccccc"/><path d="M229.953 63.515c-5.825-14.48-13.397-27.157-21.324-35.7-8.074-8.693-15.6-12.092-21.188-9.57l-.005.004c-1.166.529-2.216 1.3-3.141 2.3-2.386 1.755-5.418 4-6.425 4.808-1.415 1.143-6.741 15.405 1.062 41.882l.001.003c-11.694.955-17.916 5.45-19.407 6.67a13.872 13.872 0 0 0-1.976-1.5c.155-1.572.924-.84.368-2.738-.539-1.836-2.333-5.237-4.475-5.396l.04-.05c1.812.116 2.904.434 3.802-.379.318-.287.616-.675.832-1.093h.001l.002-.003c.052-.045.595-.576 1.252-2.171.15-.368.096-.788-.143-1.104-.392-.504-1.043-1.344-1.804-2.28-1.229-1.515-2.739-3.28-3.857-4.272-2.793-3.474-6.043-8.788-11.349-12.12.249-2.961.397-11.2-4.811-16.908-6.451-7.069-12.635-4.288-12.635-4.288 6.488 3.82 5.395 14.576 4.821 18.193-2.434.168-5.119.697-8.094 1.679-15.66-7.416-9.656-23.252-9.553-23.517-.003 0-.003 0-.005.003-.009.004-.013.01-.021.018-17.142 12.702-9.391 25.33-2.488 31.75l.002.002c-.911 1.951-2.322 10.525-2.383 12.372 0 0-1.279 3.018.337 6.745l.004-.002h.003c.134.015 2.484.25 7.067-.644.698.901 2.375 2.843 3.134 5.268-.656 1.719-2.266 5.013-5.31 6.372 1.477-3.219.777-6.765.777-6.765.116 3.322-2.364 6.213-4.034 7.761-1.202.392-2.267.84-3.194 1.332 1.766-3.053 3.143-5.092 3.718-7.173.878-3.177-.246-6.054-.246-6.054l-1.868.263c.044 1.168-.001 2.302-.267 3.536-1.1 1.113-3.439 3.572-7.066 7.342-5.293 5.501-4.573 10.616-4.488 11.22.085.606 1.817-6.463 4.501-9.194 1.809-1.84 3.795-3.504 5.291-4.928-.697 1.256-1.616 2.661-2.825 4.283-2.683 3.599-4.585 8.099-4.447 12.694-.68 1.106-2.509 3.375-3.066 5.868a55.987 55.987 0 0 0-.83 4.742c-3.42 1.011-6.989 2.763-9.87 5.681-2.489 2.518-3.55 5.889-3.925 9.039-1.681.955-6.53 3.769-8.542 5.563-2.454 2.186-5.14 6.349-8.516 11.426-2.448 3.683-5.136 6.807-6.428 8.246-.836-.395-1.609-.659-2.223-.686-2.778-.12-5.1.105-4.973 1.723.113 1.458-1.727 4.339-.99 6.39-.6.721-3.465 4.583-2.9 6.66.33 1.211.436 2.124.892 3.024l-.007-.007c.008.01.013.024.02.035.259.554.325 3.052-.683 7.222-1.035 4.272-4.062 8.935-3.8 11.764.14 1.497-.17 3.466-1.305 5.62-.537-.314-1.489-.798-3.078-1.401-2.881-1.095-8.937-.037-12.877 2.972-3.94 3.01-2.423 8.933-.41 11.611 1.698 2.259 4.967 3.311 5.95 3.585l.002.002c1.99 3.648 5.83 9.604 8.01 10.538 2.928 1.256 5.082 2.467 6.335 1.565 1.253-.902 1.102-1.85 2.637-1.557 1.533.294 3.562 1.179 4.793.511.457-.248.963-.459 1.438-.785-.003.673.077 1.185.27 1.466 1.331 1.941 8.614-6.005 7.745-6.654l.008.001h.003c.746.125 4.486.757 9.72 1.627.093 3.452.837 6.789 2.336 9.269 1.01-1.593 1.93-3.091 2.903-4.553.47-.71.983-1.411 1.583-2.014.438-.44.846-.894 1.207-1.369.227.038.457.075.689.112a23.36 23.36 0 0 0-2.148 2.825c-3.85 5.903-6.001 12.338-5.989 19.459.003 3.014.302 5.968.95 8.9.647 2.934 2.148 5.486 3.868 7.853 2.29 3.151 4.8 6.144 7.274 9.156 2.75 3.345 6.358 5.488 10.285 7.176 5.495 2.354 11.275 3.141 17.19 3.374 5.195.206 10.355.018 15.496-.735a45.551 45.551 0 0 0 4.091-.789c1.394-.336 2.758-.785 4.104-1.173-2.37-1.835-4.626-3.529-6.817-5.309-.585-.474-1.123-.514-1.774-.379-4.004.823-8.057 1.143-12.123.7-5.699-.619-11.232-1.758-16.374-4.584-5.188-2.845-9.319-6.785-12.872-11.381-3.28-4.244-4.9-9.155-4.57-14.519.143-2.254.795-4.527 1.525-6.688 1.062-3.146 2.586-6.072 4.858-8.594a14.822 14.822 0 0 1 4.497-3.426c.733.118 1.466.237 2.193.353h.003c-.562.243-1.117.534-1.664.89l5.803 8.034c2.236-.215 4.65-1.307 6.886-3.168-.695-1.124-1.38-2.296-2.129-3.426a49.284 49.284 0 0 0-.715-1.043c2.335.361 4.533.695 6.512.986a7.643 7.643 0 0 1-.976 2.334c-1.876 2.928-4.694 4.43-7.929 5.29-4.575 1.217-8.636-.124-12.452-2.595-.31-.201-.625-.398-1.139-.725-1.394 2.511-2.59 5.032-3.403 7.912.522.315 1.033.677 1.588.948 3.911 1.908 8.093 2.64 12.4 2.792 2.844.1 5.693-.013 8.347-1.108 3.564-1.471 6.974-3.236 9.418-6.395 1.559-2.017 2.58-4.283 3.297-6.883-.22-.132-.44-.259-.66-.387l.007.001.003-.001c1.128.153 2.346.325 3.644.506.32.188.638.376.954.571 3.966 2.417 7.952 4.808 11.766 7.451 2.216 1.528 4.107 3.527 6.41 5.545-1.117.276-1.908.495-2.71.672-4.52.987-8.557 2.964-11.34 6.714-4.892 6.577-5.085 12.216-.062 19.283 3.861 5.435 9.427 8.48 15.705 10.176 5.358 1.441 10.824 1.92 16.335.69 2.527-.563 4.934-1.461 7.123-2.809 2.085-1.281 4.048-2.772 5.992-4.269.651-.502 1.229-.738 2.03-.597 5.662.982 11.284.621 16.868-.582 1.617-.347 3.233-.7 4.827-1.129.659-.177 1.283-.527 1.878-.87 1.19-.689 1.689-1.798 1.529-3.118-.145-1.179-.808-2.123-1.97-2.512-1.317-.441-2.536-.246-3.417.979-.062.079-.172.123-.31.221-2.179-2.256-4.321-4.563-6.559-6.77-4.542-4.476-9.296-8.687-15.028-11.633-3.68-1.893-7.538-3.298-11.602-4.091-2.248-.438-4.532-.695-6.794-1.082-.439-.075-.941-.269-1.243-.576-1.16-1.185-2.213-2.478-3.381-3.659l-.004-.003a13.995 13.995 0 0 0 2.236-.346l.002.003c1.983 2.295 4.169 3.626 7.349 3.898 4.274.367 8.277 2.092 12.132 3.934 3.322 1.588 6.528 3.423 9.731 5.24 1.028.586 1.892.697 3.002.27 3.489-1.339 7.129-1.959 10.848-1.464 3.505.47 6.889 1.508 10.129 2.944 4.053 1.797 8.049 3.724 12.111 5.499a21.786 21.786 0 0 0 3.985 1.317 24.844 24.844 0 0 1-3.627-2.658c-2.042-1.803-4.305-3.333-6.769-4.494-.071-.034-.144-.071-.215-.104-3.329-1.576-6.533-3.419-10.107-4.436-3.643-1.036-7.308-1.649-11.063-.727a96.114 96.114 0 0 0-5.248 1.438c-.626.19-1.07.116-1.626-.234-4.999-3.134-10.299-5.635-15.878-7.574-3.395-1.182-6.9-1.853-10.139-2.294-.458-.602-.882-1.197-1.296-1.777l-.001-.002a16.506 16.506 0 0 0 3.105-2.034h.002c2.037.28 4.618.555 7.405.812l-4.058 3.123 3.9.359s1.794-1.544 3.286-3.207c4.3.362 8.782.675 12.342.899-2.846 2.053-8.588 4.882-8.588 4.882 2.218-.642 4.051 1.573 4.051 1.573l9.172-6.185c1.258.066 2.071.099 2.254.093 2.564-.094 24.326-4.595 24.772-4.716a.42.42 0 0 1-.124-.009l.124.009s-.003.001-.01-.004a2.115 2.115 0 0 0-.193-.063l-.555-.184c-1.651-.56-7.356-2.819-9.006-2.913l-.006-.002c-1.182-.38-3.089-.774-5.321-1.156l-3.759-.816c.615-1.042 1.793-3.145 3.199-6.188.385 1.534 1.395 4.333 3.849 5.885 3.498 2.214 7.287 2.118 7.287 2.118l-2.148-2.842c-4.592-2.04-7.136-6.41-7.836-7.763a98.366 98.366 0 0 0 1.379-3.417c2.611-6.838-1.604-10.462-3.16-11.521.763-2.309 1.019-4.371.769-5.352-.479-1.871-2.672-4.458-3.936-5.833.094-.471.127-.875.082-1.192-.225-1.601-1.183-6.343-3.54-6.076a8.729 8.729 0 0 0-.258-1.469 3.694 3.694 0 0 0-.775-1.393c-.779-2.904-3.872-12.797-6.655-16.727a21.618 21.618 0 0 0-.527-2.103c.662-2.362 1-5.115.837-8.321v-.01c1.674-4.642 2.059-9.216 1.311-12.285 1.003-2.761 1.141-4.56.678-6.885.089-1.027.06-2.105-.114-3.237v-.002c1.031-5.789.934-12.618-1.149-19.43h-.001.002c1.208.484 3.729-1.61 3.747-1.626.452.044.846.07.95.125.091.049.179.092.253.125.824.37 3.33.113 5.018-.366 15.391 30.146 26.134 33.814 39.973 30.056 5.591-2.523 8.485-10.627 8.151-22.816-.325-11.974-3.714-26.543-9.541-41.019Zm-52.544-35.432c.633-1.795 2.991-3.056 2.793-2.918-1.617 1.116-1.908 3.202-1.908 3.202-4.609 10.552-1.182 23.512-.297 26.465-4.715-14.452-1.212-24.977-.588-26.749Zm6.987 68.255c-.057-.033-.136-.12-.229-.244.124.116.245.227.364.33-.051-.034-.099-.062-.135-.086Zm-1.118-4.822-.052-.1c-.722-1.337-1.363-2.81-1.912-4.309.579-.087 2.051-.533 3.453-1.022.022.058.047.11.082.148.37.46.791 1.63 1.347 1.96.397.235.632 1.236.774 1.976-1.274.468-2.784.934-3.692 1.347Zm1.265-7.781c-.13.03-.262.063-.394.099.035-.602.101-1.04.283-.559.051.139.085.294.111.46Zm-5.343-5.93c-.057-1.443.58-2.436 1.35-3.132a92.406 92.406 0 0 1 1.059 3.26s.026-1.596.118-1.42c.056.112.251 1.086.488 1.979-1.366.614-2.798 1.328-2.759 1.687a20.476 20.476 0 0 1-.256-2.375Zm3.845 2.733c.415.842.897 1.927.877 2.198-.01.138.004.628.027 1.146-1.313.334-2.702.721-3.322 1.202a38.495 38.495 0 0 1-.774-2.894c.793-.195 2.128-.975 3.192-1.652Zm-23.859-5.915c.831.925 1.734 2.194 2.348 3.793-1.924-1.588-3.92-2.667-5.19-3.211.672-.622 1.055-1.265 1.159-2.156.38.291 1.007.82 1.683 1.573Zm5.312 21.742c-1.994-7.321-6.187-9.878-8.933-12.557.726.232 1.474.357 2.186.294 2.626-.235 4.603 2.182 5.038 2.368.435.186-1.847-3.67-5.826-4.54-1.82-.399-3.072-1.048-3.925-1.655a9.63 9.63 0 0 1-.78-2.49 5.892 5.892 0 0 0 1.341-.649c.403-.256.77-.49 1.109-.712 5.582 2.26 8.097 6.213 10.543 10.826 1.289 2.43.312 6.144-.753 9.115Zm-8.163 13.518c.31-1.517.512-3.056.525-4.518.041-4.978-1.363-8.729-4.087-11.232-.645-1.417-1.631-2.92-2.959-4.709-2.306-3.107-1.711-7.505-1.711-7.505s-1.266 2.153-.742 6.353a8.118 8.118 0 0 0 1.137 3.237c-3.394-2.008-3.822-7.499-3.836-9.947h.001c.163-.046.309-.101.435-.16a2.456 2.456 0 0 0 1.157-1.112l.001-.003c.721-.2 1.549-.459 2.215-.741.295.93 1.112 2.154 2.832 3.795 1.647 1.571 3.387 2.849 4.987 4.035 1.076 1.374 2.344 3.332 2.762 5.476.613 3.142-.745 6.653-1.238 7.638.669-.875 3.092-3.739 3.107-6.953.005-.957-.198-1.865-.505-2.687 1.655 1.837 2.446 3.93 1.542 7-1.664 5.645-4.525 10.348-5.623 12.033Zm-2.653.768c-.849-1.322-2.446-2.817-5.446-4.003-6.995-2.764-9.976-1.42-11.761-6.71a13.33 13.33 0 0 1-.181-.59c.72.376 1.622.603 2.756.592a102.22 102.22 0 0 1 3.621.015c3.929 1.435 7.555 4.981 7.555 4.981-.876-2.342-1.92-3.734-2.864-4.566 3.026.542 5.458 1.726 6.482 4.262.051 1.893-.025 3.984-.162 6.019ZM124.5 98.854c-.954-.112-3.084-.407-5.002-1.003-.681-1.018-1.539-1.966-2.621-2.727.915-1.394 2.522-3.734 4.392-5.98.946 1.209 2.596 3.621 3.399 5.864a16.41 16.41 0 0 0-.168 3.846Zm-16.467-4.905c-.122-1.623.127-3.869 2.087-5.114.76-.483 1.741-1.228 2.801-2.135-.247 2.035-.297 4.641.503 5.453.446.454.928 1.161 1.357 1.87-2.151-.798-4.516-.657-6.748-.074Zm11.524-25.847.002.002c1.927 2.329 3.865 4.286 5.768 5.929.188 2.788-.053 7.746-5.171 6.74 0 0 5.325 4.094 6.784-4.492.694 2.12.856 4.664-2.011 6.86-4.226 3.238-7.753 8.458-8.656 11.59a9.471 9.471 0 0 0-.777-.409 35.85 35.85 0 0 0-1.06-2.976c-.62-1.51.085-4.508.804-6.789 2.911-2.895 5.672-6.48 5.659-9.017-.012-2.153-.689-5.094-1.342-7.439Zm1.69-2.528s-.001-.003-.003-.002l-.001-.003c-.269-.34-.505-.648-.709-.92 2.728-.914 5.019-2.116 7.051-3.34.003 0 .003 0 .003-.003l.002-.001-.001.001c-1.691 2.649-4.758 4.328-5.054 4.643-.297.314 2.607-.367 4.5-1.452 1.462-.838 3.253-3.347 4.338-4.913.031 1.606.493 3.149 1.221 4.616l.001.001c-.232 1.149-.377 2.866.916 4.155 1.706 1.704 3.051 2.55 3.394 3.518.339.97-.236 1.97.83 2.28 1.067.31.58.06 1.705-.24 1.126-.298.528.847.941 1.223.409.377-1.806 1.336.238 1.697 2.044.36 2.146.787 2.826.318.251.898-.409 1.488-2.539 1.716-4.857.52-10.056-3.167-14.091-7.069l-.005-.006c3.172 2.272 7.776 4.902 12.021 5.293 0 0-12.84-8.175-17.581-11.508l-.003-.004Zm13.896.166c1.051.478 5.893 2.912 7.837 8.028-.138-.17-4.388-5.583-7.71-7.894l-.052-.055a6.73 6.73 0 0 1-.075-.08Zm16.99-.108c.102-.095.207-.196.312-.299.555.948 1.707 3.289.446 4.59-1.295 1.336-3.099 1.917-4.037 2.505.226-.978.521-1.991.894-2.83 1.071-2.4 1.481-3.122 2.385-3.966Zm-4.149 9.334c-.235.414-.586 1.298.259 1.902.161.115.332.234.514.352-.47.54-1.207 1.248-2.145 1.718.13-1.792-.765-4.308-2.944-7.114a2.913 2.913 0 0 0 1.877-.798c.736-.685 1.672-1.55 2.444-2.143-.556 1.79-.266 4.524-.005 6.083Zm5.21 24.705c.079.243.149.507.213.786-1.319-1.602-3.663-3.402-7.342-2.844-4.383.665-8.235.04-10.379-1.774a32 32 0 0 1-.077-3.879c.629.853 1.489 1.511 2.489 1.832 1.66.533 3.603.164 3.915 1.293.258.93 4.502 1.23 5.985 1.307-1.125-.088-3.819-.516-4.988-2.582-1.498-2.647-3.429-.38-5.038-1.637-.84-.656-1.628-1.71-2.208-2.564.076-.807.162-1.485.233-1.98 1.68 1.166 3.946 2.309 6.985 3.345.106.129.219.246.342.343 2.302 1.824 8.066 2.806 9.87 8.354Zm-25.427-16.613c1.362-1.367 2.055-3.01 1.181-6.234.002 0 .003.002.005.003a33.983 33.983 0 0 0 2.74 1.696c-.331 1.016-.806 3.562 1.354 6.378-.45.859-1.427 2.268-1.223 5.577-1.542-1.948-3.434-4.838-4.057-7.42Zm-2.279 8.737c-.814-1.2-2.276-2.917-3.166-3.87.341-.38.688-.751 1.038-1.109.923-.94 1.874-1.665 2.74-2.34a22.32 22.32 0 0 0 1.475 3.069c-.535.815-1.402 2.3-2.087 4.25Zm14.135-10.278c.255.948.375 3.258-1.195 4.33 0 0 1.963-.816 3.184-2.062-.036 1.95.096 4.39.732 6.043-1.034-.47-2.496-1.315-4.866-2.494-3.145-1.565-3.448-5.546-3.379-7.604 2.04.918 3.909 1.482 5.524 1.787Zm-10.148 8.86c.769.99 1.682 2.007 2.759 2.994.031.148.061.295.096.449.61 2.691 1.108 5.061 1.88 7.065-1.277-1.383-2.756-3.346-3.576-5.332 0 0-1.045 4.935.623 6.655-2.059-.721-4.162-2.26-5.148-5.476.255-2.357 1.211-4.618 3.366-6.356Zm26.449-18.483c-.504.296-1.333.642-2.623.58 0 0 .362 1.028 1.036 1.315-1.222.758-2.407.298-3.281.535-.889.24-2.092.352-2.636.393.039-.257.085-.538.138-.836.592-.287 1.881.452 4.114-1.881 1.429-1.494 2.135-3.43 2.147-4.926l.002.002s2.099 2.463 1.103 4.819Zm-.66-11.967h-.001c.375.39 1.771 2.867 1.121 3.334-.65.466-1.361-.831-2.445-.542-1.084.289-.484.238-1.446.51-1.975.56-2.988-1.246-3.829-1.89 0 0-.227 3.032 2.225 2.962a19.596 19.596 0 0 0-1.863 2.533c-1.042.167-2.962.68-3.62 2.235-.592 1.397-1.446 2.11-1.983 2.442h-.001c-1.078-1.346-2.449-2.751-4.14-4.17-5.278-4.434-5.047-8.354-4.367-10.538.417-.204.833-.388 1.256-.55 3.019-1.141 6.384-2.477 9.414-2.522h.002l-.054.033a691.424 691.424 0 0 0-5.386 1.685c.922.213 2.182.276 3.052.275-.241.372-.542.93-.874 1.451-.838.126-1.991.173-3.106-.206 0 0 1.282.807 2.588.928-.199.238-.404.43-.61.532-.86.428-2.975 1.39-2.975 1.39s1.077 1.475 2.648.645c1.571-.83.49-1.24 2.953-.82 2.462.42 6.562-1.334 6.562-1.334s-1.549-2.644-3.261-2.454c0 0 2.629-.218 2.985.499.252.505 1.317.489 1.925.435.989.944 2.17 2.096 3.23 3.137Zm-23.271-37.503c.641 1.08 1.471 2.999.665 4.786 0 0 1.462-1.45 1.588-3.349a13.514 13.514 0 0 1 1.871 1.771c-.379 2.988-2.871 4.665-2.871 4.665s3.716-.554 4.811-1.79c.27.527.507 1.06.712 1.596a2.63 2.63 0 0 1-.409 1.375c-.667 1.014-2.416 2.24-2.416 2.24s2.556-1.6 3.189-2.232c-1.137 2.417-4.844 3.676-4.844 3.676 1.05.264 4.036.42 5.638-.21.202 1.765.174 3.319.103 4.392-1.032-.828-3.153-2.291-4.81-2.66 0 0 .721.902 1.6 1.753h-.001a20.273 20.273 0 0 0-3.452-.61h-.003c.2-2.151.12-5.842.12-5.842-.046.983-.525 2.695-.959 4.083.788-8.344-3.61-14.86-3.61-14.86a16.94 16.94 0 0 1 3.078 1.216Zm-25.161 17.595c1.793.702 4.161.82 6.983-.748 0 0-5.568.275-9.116-3.038-.78-2.01-.956-4.03-.742-5.975.003-.003 0-.003 0-.003l.001-.003c2.17 2.055 5.314 1.564 5.314 1.564-3.131-.926-4.158-3.29-4.454-5.204v-.004c-.004-.003-.004-.003-.001-.006.48-1.366 1.11-2.66 1.794-3.843.904-1.418 2.418-2.99 3.256-3.822l-.029.062a.523.523 0 0 0-.006.013c-.4.816-2.736 5.006-1.775 9.02 0 0 .374-1.056.789-2.242.466 3.757 2.36 7.638 4.977 11.063l.002.005.002.004h.001c1.179 2.201 2.611 4.59 3.562 5.47 1.118 1.034.322-.633-.532-2.19 5.696 4.815 12.597 4.443 6.663 7.882-4.011 2.326-7.153 2.268-10.519-.52 3.007-.096 6.022-3.084 6.022-3.084-4.031 1.5-7.005.963-8.93.088h-.001c-1.033-1.259-2.114-2.749-3.261-4.486v-.002Zm2.508 24.07h-.001l-.061-1.25s5.755-.47 9.593-1.692c.179-.057-1.738-.056-3.901-.038 6.016-2.087 15.679-6.194 23.392-13.004.215-.19-8.243 6.311-18.865 9.823-.862-.155-2.699-.269-2.699-.269-.299.055-1.938-.363-2.698.068s-1.457.2-1.814.568c-.357.369-.592.658-1.094.473-.421-.155-1.107-.075-1.34.155.453-1.857 1.133-4.506 1.792-6.574 1.014 1.101 3.345 2.616 8.478 2.549-.43-.024-4.49-1.754-6.33-3.761.809.505 1.445.823 1.809.922 3.191.882 10.716.946 12.583-3.97 1.865-4.913-2.327-6.95-2.327-6.95s7.752-4.502 17.165 7.128c0 0-1.606-4.352-4.676-6.403.971.626 7.454 4.873 10.755 8.686-2.055-.8-4.553-1.438-6.94-1.14 0 0 4.597 1.193 5.903 2.238 0 0-3.115-.35-6.193.069-2.923.397-4.75.718-9.169 3.391l-.002.001.001-.002-.003.003c-.233.14-.472.287-.72.44-.049.031-.1.06-.15.094-1.973.954-6.824 2.858-9.632 3.617 1.433-.31 3.674-.79 5.305-1.134-.003 0-.005.003-.005.003-4.01 2.131-8.371 4.001-11.927 4.845-2.73.65-4.864.962-6.229 1.114Zm-2.45 18.349c4.294-2.08 8.673-3.544 10.891-6.935-.009.034-.014.068-.023.102-1.311 4.975-8.555 8.727-10.638 12.82-1.206 2.369-1.582 4.787-1.684 6.404-.698.288-1.364.602-1.986.924-1.25-1.848-2.734-5.318-.661-9.761.137-.294.273-.58.409-.86.909-.986 2.104-1.925 3.692-2.694ZM26.307 186.824c5.47-4.248 11.825-2.211 11.9-1.676.047.333-1.202 2.709-2.149 4.449-.193-.784-.165-2.487-.165-2.487-.279.926-1.14 2.547-1.658 3.234-.458.608-2.033 3.236-2.388 3.83.332-.552 1.747-2.827 2.509-2.942-.21.209-.386.405-.52.589-.512.71-1.287 1.573-2.055 2.465l-.005.01c-.793.92-1.578 1.875-2.046 2.713-1.003-.925-2.934-3.117-3.096-6.413 0 0-.055 4.69 1.164 7.397-3.1-2.739-5.84-7.792-1.491-11.169Zm24.048 24.283c-.51.16-1.052.14-1.556.051-.78-.764-2.215-5.801-2.406-6.496-.192-.695-.917-.864-.917-.864s-.216 2.375.07 3.805c.211 1.045.786 2.397 1.082 3.051-.446.124-.87.723-1.612 1.334-.6-.711-1.82-2.231-2.592-3.785-1.059-2.122-1.37-3.243-1.654-3.581-.281-.339-.886-1.119-1.025-1.341-.133-.22.841 3.926 1.184 4.789.242.624 1.142 2.483 1.844 3.581-.946-.6-2.072-1.502-3.188-2.247-.49-.767-.97-1.538-1.202-1.98-.579-1.092-3.704-5.643-3.952-5.768-.25-.128 2.365 4.323 2.764 5.088.223.423.616 1.104 1.095 1.82-2.571-1.924-7.517-8.257-7.848-10.26-.237-1.417 3.279-5.208 5.924-7.852l.013-.011a.045.045 0 0 0 .006-.007l2.41-1.824.002-.001c1.772-1.103 3.8-2.372 5.403-3.341 1.107.214 3.43-.687 6.053-.768 2.111.99 4.474 2.571 5.74 3.079.34.139.67.375.981.683l.01.011a25.23 25.23 0 0 0 1.25 1.676c.149.249.29.509.423.77-.512.977-1.148 2.164-1.643 3.114-1.193-.111-1.955 4.795-3.343 8.208-1.405 3.465-1.951 8.644-3.316 9.066Zm13.71-36.013c.5-.507 1.433-1.815 1.704-2.461v-.002c.348-.292.71-.713 1.109-1.293 1.58-2.297 5.238-7.132 4.517-9.101.009-.004.02-.004.03-.008 2.502-1.288 3.973-6.123 4.572-8.564.388-.02.831-.053 1.328-.106 1.97-.21 4.75-.745 7.943-2.03 5.3-2.133 11.74-6.342 17.535-14.607-.5 3.707-1.02 8.309-.812 10.196.376 3.392 4.416 6.672 6.535 9.37 2.119 2.698 3.976 7.183 13.197 14.885l.004.004c.062.077 4.901 6.189 5.176 11.028.277 4.87-.34 5.571.556 9.024.769 2.966-2.371 4.371.894 5.806-.272 1.202-.483 2.719-.478 3.67l-.003.001-5.586-.917a35.819 35.819 0 0 0-4.879-9.313c-3.463-4.757-7.208-9.267-12.04-12.771.006-.758.088-1.518 0-2.251-.24-1.952-.299-3.979-.883-5.833-1.692-5.356-5.118-9.541-9.377-13.111-1.595-1.336-3.097-2.782-4.611-4.208-.406-.38-.706-.871-1.11-1.384l-1.753-.54c1.351 3.598 3.967 5.962 6.679 8.223 2.03 1.695 3.817 3.569 5.058 5.933.983 1.874 1.43 3.908 1.805 5.949.48 2.626 1.055 5.262.8 7.953-.107 1.142.448 1.734 1.273 2.363 2.245 1.714 4.62 3.319 6.588 5.319 3.308 3.351 6.07 7.167 8.182 11.41.281.563.558 1.129.828 1.7l-2.751-.451a23.285 23.285 0 0 0-.869-1.765c-1.983-3.64-4.604-6.8-7.485-9.743a77.639 77.639 0 0 0-11.635-9.794c-3.958-2.707-8.311-4.589-12.762-6.277-1.397-.531-2.798-1.068-4.238-1.453-1.438-.389-1.899-.164-2.605 1.164-1.577 2.971-2.135 6.143-1.562 9.466.297 1.735.744 3.442 1.126 5.162.554 2.481 1.451 4.821 2.582 7.061l-1.208-.199c-.066-.125-.13-.25-.198-.374a5.555 5.555 0 0 0-.404.275l-9.64-1.598h-.001c.32-2.345 1.284-5.982-.121-6.471-1.578-.55-3.424-.587-4.212.593-.519.777-1.596 1.829-2.451 2.829a40.721 40.721 0 0 1-1.057-.58c.483-.971 1.178-3.106 1.705-4.263.273-.6.404-1.454.395-2.347.224-.512.452-1.068.623-1.55.49-1.368 1.271-3.292 1.987-4.019Zm41.378-36.435.04.076c.1.196.203.395.312.604l.001.003c1.308 6.95 8.068 18.747 8.13 19.186.066.468-4.796-6.45-6.971-10.995-1.506-3.153-1.621-7.149-1.512-8.874Zm15.488 14.401c-.386-.158-1.08-.415-1.882-.713-1.771-.662-4.074-1.532-4.843-2.009-.932-.576-2.983-4.821-3.982-6.908 1.495 2.381 5.12 5.484 7.814 7.553 1.294.998 2.374 1.757 2.893 2.077Zm13.69 48.939c-.108-.843.055-2.12 1.304-1.283.898.602 1.217 1.289 1.647 1.761h-.001c-.932-.151-1.916-.309-2.95-.478Zm-48.807-15.37c-.52-1.444-1.108-2.864-1.766-4.559.586.168.933.209 1.222.363 1.413.751 2.91 1.393 4.198 2.324 3.64 2.624 7.293 5.263 10.414 8.507 1.068 1.11 2.033 2.317 2.982 3.534L89.6 194.607c-1.53-2.516-2.777-5.179-3.786-7.978Zm-21.185 2.926c-.254.197-.531.4-.708.493-.397.21-.508.507-.399 1.284.11.777.165 1.003.06 1.604-.707.663-1.555 1.492-2.215 2.238.005-.036.011-.07.015-.106.21-2.114.393-3.679 1-3.745.608-.066 1.962-4.493 2.139-4.207.154.251.097 1.583.108 2.439Zm79.553 31.25a41.92 41.92 0 0 0-1.349-1.148c-.474-.388-.951-.778-1.428-1.165l4.058.57c.535.51 1.059 1.027 1.576 1.554l.001.001c-.971.081-1.938.147-2.858.188Zm6.979-.947 1.31.182-1.036.126c-.09-.106-.182-.208-.274-.308Zm.814 16.554c2.344.284 4.626.693 6.834 1.588 5.336 2.16 10.23 5.082 14.929 8.366 4.121 2.876 8.223 5.781 12.812 7.895.21.099.376.288.569.438-.117.139-.148.208-.181.206-.902.049-1.805.103-2.707.131-4.247.135-8.293-.596-12.009-2.77-.644-.375-1.314-.711-1.982-1.048-4.395-2.194-8.634-4.713-13.306-6.312-5.196-1.784-10.357-3.698-15.773-4.767-3.582-.706-4.149-.49-6.182 2.583-.464.7-.82 1.499-1.089 2.3-.169.513-.091 1.11-.126 1.706.377.055.581.093.787.114 6.314.703 12.384 2.227 18.103 5.073 1.907.952 3.923 1.681 5.887 2.52.524.223 1.037.477 1.735.801-.51.328-.798.534-1.108.712-2.911 1.68-6.048 2.605-9.389 2.991-3.287.382-6.414-.194-9.384-1.459-3.634-1.547-5.933-4.429-7.389-8.045-.896-2.226-.826-4.336.376-6.453 2.016-3.566 5.215-5.373 9.055-6.272 3.157-.736 6.339-.684 9.538-.298Zm33.873-15.886c-.631.089-21.216-1.179-31.4-2.596l-.042-.006c-1.963-.273-4.01-.562-6.111-.857-1.952-.275-3.946-.56-5.96-.846-1.516-.215-3.043-.431-4.568-.65-6.85-.98-13.654-1.961-19.332-2.786l-.009-.002a2249.21 2249.21 0 0 1-4.628-.67c-5.08-.735-8.627-1.251-9.462-1.37-.802-.111-3.327-.547-6.83-1.166-3.989-.702-9.25-1.642-14.676-2.607-.621-.111-1.243-.221-1.867-.334-3.175-.561-6.362-1.128-9.345-1.654-3.843-.676-7.35-1.288-10.056-1.743-.154-.179-.264-.324-.28-.392-.09-.359-.644-1.496-.828-2.081-.185-.589.683-1.684.943-3.1.26-1.417.369-1.022 1.126-1.458.757-.433.51-.715 1.45-.949.94-.235 1.398-.966 2.067-1.366.67-.4 1.604-.174 2.575-.159.678.012 1.872-.127 2.869-.311h.005c1.13.199 2.38.421 3.742.658 1.039.179 2.14.368 3.289.564l1.241.216c3.462.592 7.307 1.245 11.247 1.904 4.545.764 9.22 1.538 13.584 2.251h.003c4.628.754 8.9 1.437 12.305 1.956 1.032.157 1.984.3 2.84.424.078.012.155.025.229.035 1.588.23 3.547.537 5.774.902 14.115 2.303 38.959 6.858 48.212 8.525 0 0 27.204 5.328 30.071 6.226-4.509.856-16.65 3.227-18.178 3.442Zm-7.314-10.318c-.497-.099-1.027-.205-1.586-.315.077-.536.217-1.315.405-1.661.187-.345 2.063-1.92 4.359-3.681a352.74 352.74 0 0 0-3.178 5.657Zm10.798 2.269-.782-.17c-3.1-.778-5.348-1.31-5.65-1.305-.116.002-.583-.072-1.328-.209l-.003-.001c1.304-.958 2.278-3.167 2.977-5.348 1.278-.223 3.221-.616 5.116-1.698 2.019-1.153 4.643-4.012 6.007-5.588-.218 1.657-.71 3.521-1.123 5.964-.734 4.347-3.602 7.11-5.214 8.355Zm6.386-16.944c-.985 1.269-5.519 6.824-10.869 8.91a50.97 50.97 0 0 0 .688-2.699c.178-.123.354-.246.529-.365.971-.665 1.632-1.738 2.078-2.969 2.629-1.488 4.556-4.299 5.782-7.093 1.101 1.561 1.623 2.888 1.792 4.216Zm-6.413-15.823c-1.307 5.135-15.844 26.82-14.912 26.177.933-.643 10.377-13.223 12.687-17.64 1.299-2.485 2.651-5.139 3.537-7.325.149.185.316.382.499.586.57 1.167.97 2.857.301 4.459-.833 1.991-.913 6.4-.666 4.934.246-1.467 1.773-5.508 1.86-6.706.029-.392-.097-.939-.277-1.497.317.271.656.535 1.023.778 2.288 1.519-.096 5.332-1.189 7.736-.557 1.225-2.087 3.278-3.453 4.997.535-3.068.211-6.231.179-6.456-.054-.379-.013 4.99-3.309 8.216-3.295 3.226-3.189 2.29-5.973 5.035-2.783 2.744-5.153 6.385-5.395 6.336l.008.004c-2.083-.423-4.392-.896-6.758-1.378l-.003.001-.001-.001c2.903-1.736 6.323-6.085 6.323-6.085-2.378 1.581-7.636 4.039-10.588 5.21l-.003.001c-3.15-.645-6.209-1.271-8.795-1.789 5.479-.646 12.78-2.237 19.763-6.134 0 0-13.815 4.298-19.486 3.972-5.671-.326-7.345.135-8.74-1.06-.583-.499-1.533-1.061-2.581-1.59 6.614.502 14.126-.554 20.125-6.363 0 0-.671.206-1.809.514 2.789-1.11 5.372-1.626 7.881-2.596 3.324-1.287 3.093-.743 5.832-2.356a35.29 35.29 0 0 0 1.577-.98c-2.946 5.003-5.575 8.661-5.575 8.661 12.049-8.995 15.624-17.124 16.49-22.322 1.04 1.04 1.997 2.426 1.428 4.661Zm-4.775-8.099c-.727 3.282-2.225 6.95-3.963 10.468-1.261 1.629-3.221 3.827-4.719 5.195 2.477-4.225 4.192-12.767 4.469-14.205-.466 2.037-4.717 12.264-9.197 14.665-4.659 2.497-8.429 4.051-11.28 4.146-2.85.094-12.474-5.062-15.646-6.524 0 0 7.344 7.623 12.735 8.365 1.005.138 2.094.143 3.226.047-.014.014-.03.025-.043.039a31.679 31.679 0 0 1-1.727 1.664c-5.421 1.27-13.943 2.787-19.322 1.381-8.389-2.194-8.804-2.238-8.97-5.59-.165-3.351-.913-8.667-1.295-11.374-.196-1.392-.668-3.015-1.199-4.316 6.261 3.765 10.835 4.341 11.019 4.362-9.677-3.992-17.088-12.712-17.536-13.249 2.337 2.286 11.204 4.353 11.484 4.419-4.795-3.154-12.715-10.201-13.231-10.664 4.101 3.543 13.641 3.008 13.641 3.008-7.074-1.738-10.137-5.668-11.048-7.107 2.939 1.159 6.451 1.881 10.856 2.172-.221-.082-7.268-2.753-7.866-5.49-.601-2.778 2.953-2.705 1.878-5.498-.147-.381-.3-.747-.463-1.093v-.002c2.995 1.851 6.055 3.091 8.707 3.021 8.045-.213 15.48-3.408 19.099-6.033.11-.08.21-.163.316-.245l.029-.014c4.414-2.232 4.818-5.786 4.818-5.786s-.929 1.268-1.768 2.281a12.353 12.353 0 0 0 1.357-3.761l.003.003c.994.731 2.15 1.124 3.482 1.009 3.188-.274 6.653-1.269 9.792-3.024l.002-.001c-1.868 1.667-4.145 3.325-6.601 4.282 0 0 5.651-1.734 10.464-5.541-1.358 4.247-4.475 11.165-11.355 17.122 0 0 7.784-1.376 12.715-11.136-.749 4.244-1.776 9.191-2.929 11.394 0 0 1.757-1.281 3.572-3.914-.678 3.517-3.08 10.203-11.532 16.626 0 0 7.02-1.694 11.192-8.541.265 4.16-.257 12.87-6.882 21.23 0 0 7.683-2.821 9.463-11.97.211-1.085.359-2.125.46-3.116.705 1.294 1.655 2.519 2.425 4.483.587 1.493 1.053 4.488 1.368 6.812Zm-5.046-72.295c-.03-.34 2.502 10.896.985 17.554 0 0-.889-16.546-.985-17.554Zm1.514-4.47c-.586-.01-1.035-.365-1.507-.82l-.001-.002a38.84 38.84 0 0 0-3.248-5.716s2.474 17.855-.059 29.166c-.141.635-1.66.027-2.764 1.616-1.107 1.588-1.079 4.243-.499 5.696.583 1.453 1.533 1.933.466 3.309-1.063 1.379-5.066 5.734-9.206 6.416-1.5.246-3.374-1.333-5.151-3.447l-.003-.003c1.159.449 3.039.879 5.616.516 0 0-4.406-.667-6.706-1.884v-.001a45.068 45.068 0 0 1-1.42-1.998c1.879-1.474 6.151-5.419 6.151-5.419-2.723 2.063-5.594 3.652-6.876 4.326-1.615-2.509-2.742-4.642-2.742-4.642s.097.857.349 2.164v.003l.001.005c-1.362-2.548-3.168-5.572-5.063-7.388 0 0 5.127 7.715 2.753 14.825 0 0 1.316-.459 1.643-2.861 0 0 1.275 3.243.222 7.022 0 0 1.75-2.722 1.564-5.232-.149-2.003.961 1.264 1.408 3.575-.912 6.061-6.9 10.205-13.671 11.669.296-.399.44-.832-.332-1.555-1.473-1.378-4.373-2.725-5.988-1.849-1.615.875-1.172 1.119-2.375 1.289-1.204.169-2.042.39-.79 1.287.45.323.476.739.454 1.137a19.434 19.434 0 0 1-.879-.157c-10.373-2.093-16.832-14.862-16.832-14.862l-.226.205.001-.001c1.417-1.973 5.387-3.33 7.288-6.909 0 0-8.52 4.776-15.712 6.619 6.077-3.967 8.815-15.176 8.815-15.176s-9.155 15.388-26.236 13.922c0 0 5.465 3.365 11.93 2.888l-.001.002c-.783 2.192-3.776 8.877-12.415 14.069a35.55 35.55 0 0 1-3.04 1.639c-.61.299-1.245.586-1.905.866a47.302 47.302 0 0 1-6.425 2.163s0 .003-.002 0a7.174 7.174 0 0 1-.564-.279c-1.945-1.056-5.153-3.776-5.732-8.406 0 0 .221 5.269 2.422 8.555a100.972 100.972 0 0 1-4.163-2.029 10.862 10.862 0 0 0 2.767 3.312c-.644-.256-1.42-.53-2.357-.789-3.158-.875-6.23-2.693-6.23-2.693s2.808 2.99 5.287 4.618c1.86 1.221 2.689 2.703 3.024 3.87-.886 1.293-1.709 2.363-2.25 2.836-3.022-2.907-9.18-7.486-9.425-7.667 1.124 1.108 9.955 9.763 8.335 12.272-.875 1.355-4.463 7.03-5.552 6.091-.771-.665-5.13-5.322-7.405-8.033 1.857 3.146 5.077 9.07 6.544 9.655.423.168.798.307 1.145.406v.001c-.375.725-.932 2.067-1.65 2.631-.545.429-1.32.725-2.066.801-1.186-.689-3.913-1.283-5.734-1.802-2.129-.602-4.19-5.539-4.385-5.852-.199-.313 2.4 6.764 4.623 7.065 2.226.298 4.727 3.269 5.115 5.054.305 1.399-2.28 1.551-3.256 1.9-.597-.658-1.499-1.067-2.873-.9-4.649.571-7.896.754-8.009-.048-.08-.574-.828-2.347-.75-4.047v-.005c.56.95 2.59 2.239 4.133 2.415 1.594.181 4.71-1.307 3.621-1.767-1.087-.461-3.76-.561-5.727-.966-.757-.156-1.305-.63-1.694-1.153.067-.15.148-.295.242-.434 1.353-2.013 3.602-6.389 3.62-8.185.02-1.797-.145-5.885-.145-5.885v-.001.001c2.156 1.762 9.618 10.712 9.618 10.712s-5.595-8.668-8.142-13.491c-1.692-3.203-.765-5.905.05-7.359 3.278 2.911 13.108 9.48 13.108 9.48s-8.602-7.822-9.999-10.959c-1.396-3.137-2.371-5.219-.926-5.609 1.346-.362 10.44 2.067 11.687 2.404-.788-.345-4.042-2.891-6.73-4.209 2.365-1.851 8.388-6.801 10.952-11.105 3.227-5.415 5.853-7.502 8.103-8.795 1.148-.66 3.08-1.82 4.055-2.407-.003 3.422.614 6.03.614 6.03s-.227-11.783 6.946-18.219c7.173-6.436 16.5-6.725 16.5-6.725a24.11 24.11 0 0 0-3.364-.011c.09-.217.225-.549.361-.9l1.162-1.204c2.415-2.049 6.05-4.37 9.558-3.668 5.997 1.2 10.061 10.446 10.061 10.446s-.107-4.39-2.377-8.057c1.82.972 4.055 2.171 5.063 2.711.579 2.73 1.955 5.652 4.621 8.572 0 0-2.5-4.222-3.202-8.998.589 1.645 1.72 3.472 3.846 3.406 2.477-.078 4.968.338 6.279.604.364.4.767.773 1.22 1.113.565 2.13.936 5.415-.291 7.105 0 0 3.217-2.774 2.478-5.867.627.265 1.314.497 2.078.691 6.781 1.726 10.587 3.276 11.43 7.877-.337 3.109-.691 5.372-.691 5.372s2.463-4.986 3.658-10.396c.922-.422 3.558-1.75 5.695-4.011.043.982.152 2.101.402 3.253.435 1.998-.696 5.225-.696 5.225s1.474-2.536 1.619-5.355c.067-1.3-.1-2.962-.314-4.323 1.134-1.524 1.961-3.379 2.021-5.567 3.371-3.082 3.342-5.994 2.122-11.86 1.09.319 3.756 1.681 2.112 7.256-.933 3.163-2.276 4.837-1.76 9.47.516 4.632 4.055 5.429 4.055 5.429-4.038-5.432-1.538-9.466.605-16.518 1.7-5.594-3.295-7.241-5.533-7.914a11.8 11.8 0 0 0-.773-1.95 3.872 3.872 0 0 0 1.522.106c1.271-.179 4.378 2.72 4.464 2.505.086-.214-1.759-3.273-4.151-3.44-.979-.069-2.036-.506-2.946-.997a16.222 16.222 0 0 0-1.21-1.48 14.115 14.115 0 0 0-2.71-5.05c4.527-2.366 8.767-3.626 12.308-4.27-1.802.974-3.586 2.197-4.584 3.618 0 0 7.98-3.309 10.91-4.246l.258-.003c-1.694 1.211-4.282 3.414-5.635 5.048l4.49-1.888a18.051 18.051 0 0 0-.862 1.49 2.34 2.34 0 0 0-.199.654 6.992 6.992 0 0 0-.497.938c-.696 1.595-.292 2.292-.191 2.927.079.499.891 1.217 1.217 2.001.041.21.088.422.136.636-.013.512-.129.779-.268 1.014-.138.238-.298.45-.395.853-.192.81.834.838 1.357 1.035.009.005.016.013.026.017.313 1.15.649 2.273.989 3.303-.097.488-.287 1.083-.301 1.626-.021.821.771 1.36 1.37 1.75.129.086.266.23.403.415.26.522.532 1.005.811 1.443.198.43.365.852.475 1.177l.015.044.001.004c-.374-.01-.885.091-1.582.078Zm6.81 1.046c-2.578.203-2.478.026-3.466-2.19.928-.219 2.317-.755 3.523-1.312.162.286.314.558.415.78.299.671.728 2.085 1.087 2.191.173.051.35.256.52.364-.515.043-1.192.098-2.079.167Zm2.452-.2a.928.928 0 0 0 .155-.286c.045.09.089.173.133.263l-.288.023Zm47.933 8.837c.318 11.574-2.302 19.211-7.378 21.505a8.062 8.062 0 0 1-1.884.579c-4.86.866-11.116-2.548-17.872-9.826-7.807-8.414-15.277-20.926-21.035-35.24-5.76-14.31-9.11-28.687-9.431-40.48-.278-10.094 1.684-17.193 5.559-20.363.982 2.608 6.094 17.03 9.799 24.54.525 1.065 1.044 2.121 1.55 3.151-1.541.823-7.642 4.955-8.022 5.213l8.355-4.544c3.211 6.522 5.787 11.765 5.404 10.887-.453-1.045-6.544-16.856-8.517-20.978-1.786-3.726-7.477-15.976-8.551-18.285a8.243 8.243 0 0 1 1.805-1.12 7.78 7.78 0 0 1 1.878-.581c4.867-.863 11.119 2.548 17.878 9.829 7.203 7.762 14.12 19.02 19.67 31.96 2.89 7.534 5.9 18.607 5.9 18.607s-.3-2.483-1.233-6.332c3.729 11.237 5.873 22.163 6.125 31.478Z" fill="#cccccc"/><path d="m122.196 59.261-1.397.301c.358-.043.838-.15 1.397-.301ZM133.898 70.144c-.023-.406-2.738-1.046-2.663-.273.075.774 2.035 1.862 2.673 2.76.638.9 1.383.624 1.895-.096.513-.72-1.836-1.19-1.905-2.391ZM135.468 51.718l7.85-1.106c-.623-.065-4.458-.753-7.85 1.106ZM135.261 51.747s-3.185 1.83.207-.03l-.207.03ZM141.759 67.043s2.022-.424 3.184-1.618c1.161-1.193 2.304-3.86 2.304-3.86-.315.555-2.505 4.035-5.488 5.478ZM157.642 100.756c.005.034.071-.065.172-.266-.111.145-.176.238-.172.266ZM151.546 84.976s-.683.37.592 2.645 2.929 2.831 3.19 5.045c.26 2.213.716 4.515.716 4.515s1.288-4.708-.535-6.974c-1.824-2.266-3.355-3.34-3.963-5.231ZM166.115 114.923s-8.688 7.544-9.194 7.82c-.507.276 7.119-2.945 9.194-7.82ZM173.914 134.766c.165-.798-3.781 5.104-5.742 6.675 0 0 4.768-1.972 5.742-6.675ZM136.357 119.554c4.257-1.366 9.339.066 9.339.066-7.19-2.925-9.339-.066-9.339-.066ZM133.575 117.657s-3.027-.506-6.542-.011c-3.515.495-6.285 1.818-6.285 1.818s2.169-.215 4.998-.102c2.828.113 7.22-1.375 7.829-1.705ZM127.503 124.586s3.225 1.233 5.777.413c2.553-.819 5.268-3.196 5.268-3.196-1.236.174-3.338 2.311-5.344 2.593-2.006.283-5.701.19-5.701.19ZM147.998 96.392c.316.025.509.023.509.023s-.194-.007-.509-.023ZM146.135 180.257s2.854 4.287 15.442 2.65c0 0-2.337-.469-3.372-.66.846-.106 3.764-1.271 4.736-3.214 0 0-11.154 2.625-16.806 1.224ZM157.639 170.439c-5.94.428-15.84-.633-15.84-.633 1.784 1.045 5.495 1.624 5.87 1.492a2803.34 2803.34 0 0 1-5.781 2.042c10.386 1.127 16.277-2.939 15.751-2.901ZM152.688 158.522c-1.519.351-8.421-.723-10.396-1.194-1.976-.472-1.188 1.735-1.188 1.735 4.81 1.232 12.18-.678 11.584-.541ZM162.012 165.732c-.078-3.398-3.558-9.35-3.558-9.35 2.059 4.451 1.586 11.742 1.619 13.441.032 1.7 2.39 4.368 4.546 5.292 2.155.923 3.041 8.14 3.136 7.604.647-3.637-1.282-8.616-2.195-11.71-.913-3.094-3.469-1.879-3.548-5.277ZM158.67 153.725c.671-3.299-1.574-7.96-1.765-8.342-.19-.382.283 2.006.662 4.697.379 2.691 1.045 3.931 1.103 3.645ZM87.536 116.152c1.14-2.069 10.634-8.731 10.634-8.731s-5.168 1.552-6.916 2.692c-1.749 1.14-4.248 7.002-3.718 6.039ZM87.217 120.902s1.24-1.606 1.585-2.303c.345-.696 1.877-3.128 1.877-3.128s-1.07.867-1.86 1.796c-.79.93-1.162 2.891-1.602 3.635ZM63.893 147.037a.34.34 0 0 0 .148.04l-.148-.04ZM49.081 200.014c-.238.485-1.047 1.792-1.047 1.792.233.021 1.866-.535 1.923-1.7.055-1.167.089-3.7.146-5.216.06-1.516.627-5.64.627-5.64s-1.536 4.622-1.3 6.906c.235 2.286-.11 3.371-.349 3.858ZM41.301 201.197c-.168 1 1.621 2.449 1.426 1.493-.243-1.191.11-3.813.566-5.839.457-2.028 1.736-6.242 1.736-6.242s-2.18 4.681-2.463 5.201c-.283.521-1.097 4.387-1.265 5.387ZM36.946 198.228c-.142.495-.445.817-.564 2.133-.119 1.316.346 1.358.603 1.523 0 0 .506-2.123 1.034-3.831.528-1.71 1.671-4.493 1.902-5.332.232-.837-2.833 5.013-2.975 5.507ZM34.099 197.121c-.433.476-.332 1.951-.332 1.951s.847-1.172 1.17-1.875c.322-.706 1.317-3.207 1.412-3.822.096-.617-1.816 3.268-2.25 3.746ZM66.162 166.261c-.1 1.957-1.003 1.471-1.959 3.037 0 0 1.978-.705 2.428-1.311.449-.606.387-2.307.032-4.098-.254-1.282-2.45-4.256-3.68-6.049 1.193 2.376 3.25 7.03 3.179 8.421ZM62.157 156.444c.002.159.338.685.826 1.396-.485-.967-.828-1.558-.826-1.396ZM72.739 137.976s1.677-2.18 3.355-3.336c1.273-.877 3.622-3.012 4.685-3.994-1.052.778-2.261.668-3.65 1.905-1.635 1.457-4.39 5.425-4.39 5.425ZM80.779 130.646c.188-.138.37-.302.549-.51 0 0-.21.197-.549.51ZM73.687 132.206c1.184-1.894 3.447-5.435 3.447-5.435s-2.754 1.058-3.876 2.39c-1.123 1.332-3.72 5.397-4.446 6.053-.726.656-4.205 7.18-4.205 7.18s3.733-4.719 5.714-6.634c1.98-1.916 2.181-1.66 3.366-3.554ZM96.834 137.139c-.47.543-2.779 4.482-2.779 4.482s3.704-4.203 4.537-5.548c.834-1.345 1.763-2.976.903-2.786-.86.189-6.382-.533-6.382-.533l.04.286c.784.961 4.288 1.15 4.798 1.384.51.235-.648 2.172-1.117 2.715ZM36.05 185.315s-3.89-1.129-8.655 2.037c0 0 7.843-1.991 8.655-2.037ZM31.849 194.174l-.074.123.074-.123ZM187.835 216.361c.422.062.662.093.694.088-.034-.012-.271-.04-.694-.088ZM180.316 173.069c.019-.082.034-.156.04-.21 0 0-.013.075-.04.21ZM131.557 207.454c-.817-.2-1.844-.439-3.032-.706a622.626 622.626 0 0 0-9.152-1.964c-8.616-1.794-18.513-3.731-21.561-4.182l-.312-.043c-.798-.106-2.381-.349-4.422-.676h-.003a2144.28 2144.28 0 0 1-11.4-1.862c-.501-.081-1-.165-1.497-.247-2.305-.383-4.545-.757-6.516-1.086-3.09-.514-5.518-.926-6.504-1.087.945.179 3.235.599 6.452 1.194 1.93.354 4.194.772 6.703 1.237l1.542.284c3.514.652 7.44 1.38 11.554 2.146h.003c.835.156 1.675.311 2.524.471 8.646 1.61 17.918 3.35 25.857 4.867 2.816.535 5.464 1.045 7.857 1.508 3.155.613 5.866 1.149 7.935 1.573 2.909.595 4.549.97 4.367 1.025-.148.044-1.429-.14-3.564-.491-1.815-.298-4.25-.718-7.126-1.227-2.127-.376-4.495-.799-7.038-1.26-8.952-1.61-20.042-3.644-30.19-5.488a3556.077 3556.077 0 0 0-13.174-2.376c-2.844-.508-5.427-.962-7.644-1.343-4.742-.814-7.803-1.294-8.114-1.225-1.585.361-3.207 2.907-3.207 2.907.046.142 4.26.8 10.293 1.727 2.922.448 6.273.96 9.784 1.505.94.147 1.893.295 2.852.446.533.085 1.066.167 1.602.252l2.172.346c7.159 1.147 14.295 2.36 19.317 3.423 4.444.938 12.957 2.118 22.567 3.301 1.689.21 3.41.417 5.149.623 2.046.245 4.116.486 6.184.722 16.232 1.863 42.517 4.221 46.02 4.612-4.407-.651-38.678-5.436-50.638-7.736-2.52-.483-4.5-.891-5.64-1.17ZM205.437 241.866c-3.059-1.525-6.12-3.038-9.47-3.852a24.462 24.462 0 0 0-9.694-.397c-1.685.267-3.386.382-5.021 1.332 2.46 2.256 4.774 4.391 7.111 6.496.248.222.673.397.99.367 3.116-.32 5.9.809 8.639 2.003 2.394 1.045 4.727 2.242 7.037 3.47 5.172 2.745 10.647 4.427 16.511 4.605 4.706.142 9.159-.595 13.36-2.177-20.903 1.827-21.591-6.31-29.463-11.847ZM86.823 165.258a63.158 63.158 0 0 1 4.586 5.327c.63.817.89 1.919 1.346 2.879.195.415.367.936.71 1.179 2.087 1.479 4.22 2.891 6.489 4.429 1.031-5.788-.44-10.732-3.761-15.268-1.788-2.439-4.018-4.419-6.13-6.536-1.272-1.274-2.501-2.58-3.583-3.997-2.79 1.325-6.532 2.111-8.52 2.321.538 1.278 1.35 2.469 2.518 3.548 2.16 1.993 4.303 4.006 6.345 6.118ZM124.236 236.796c-2.329-.235-4.373-.549-6.426-.626-4.16-.157-8.294-.045-12.457.491-6.76.87-12.678 3.564-18.212 7.341-.13.089-.24.208-.411.357 1.564 2.637 3.7 4.606 5.99 6.416 8.751-5.074 18.061-7.155 28.19-5.911.495-2.893 1.697-5.421 3.326-8.068ZM88.91 263.771c-3.533 1.319-7.245 1.826-10.921 2.507-2.474.458-4.884 1.085-7.17 2.207-3.407 1.671-5.545 4.447-7.08 7.773-.595 1.29-1.063 2.647-1.238 4.21 6.513-.19 12.027-2.124 16.325-7.65-2.463.117-4.58-.647-6.625.811-1.454 1.037-3.15 1.733-4.738 2.581l-.207-.347c.863-1.362 1.95-2.517 3.3-3.414 1.332-.883 2.86-.771 4.35-.785 3.303-.032 6.608-.073 9.91-.036 4.844.053 9.245-1.471 13.478-3.642.175-.09.32-.236.453-.336-2.856-1.309-5.65-2.612-8.472-3.854-.389-.172-.963-.175-1.365-.025Z" fill="#cccccc"/><path d="M106.418 246.412c-.931.122-1.466.501-1.757 1.508-.82 2.839-2.241 5.4-4.22 7.87 2.722 1.599 5.506 2.423 8.45 2.718.335.034.866-.22 1.04-.503 2.298-3.746 4.234-7.642 4.719-12.098.005-.044-.037-.094-.138-.336-.632.002-1.361-.066-2.072.02-2.011.241-4.013.556-6.022.821ZM82.175 264.455c.796-.105 1.244-.423 1.49-1.177.36-1.112.79-2.203 1.203-3.338a53535.8 53535.8 0 0 1-6.291-7.043c-2.333 3.913-3.845 8.012-4.073 12.746.747-.101 1.368-.171 1.984-.271 1.896-.307 3.784-.668 5.687-.917ZM114.089 235.065c-.356-2.926-1.328-5.467-2.932-7.811l-7.188 3.485 1.592 4.651 8.528-.325ZM87.368 184.455c-.245-.164-.718-.153-1.002-.03-.15.065-.24.588-.153.832.99 2.801 2.077 5.562 3.738 8.346l4.103-4.026c-2.088-2.073-4.397-3.587-6.686-5.122ZM148.343 257.821c.446.001 1.024-.133 1.317-.428 1.271-1.272 2.459-2.627 3.693-3.971-1.637-1.136-6.186-2.905-9.142-3.594l-4.32 4.932c2.428 2.024 5.256 3.054 8.452 3.061ZM156.509 243.521c.36-1.325.299-2.625.151-3.937-.061-.539-.286-.871-.813-1.048-3.072-1.03-6.222-1.49-9.46-1.31-.138.007-.27.136-.428.22l.576 2.844 9.974 3.231ZM176.853 252.809c.583-.547 1.195-1.062 1.978-1.753-2.567-1.946-5.051-3.671-8.098-4.871l-3.321 2.773c2.886 1.439 5.506 2.744 8.125 4.051.487.242.909.182 1.316-.2ZM211.064 222.885c-5.414.968-22.945-.262-33.805 8.05l4.028 2.105s2.673-3.871 12.387-4.828c9.715-.957 22.372.857 25.347-4.289 2.975-5.147-7.107-12.517-8.625-21.834-1.518-9.318.627-12.33.627-12.33s-8.106 11.766-3.834 20.208c4.272 8.443 9.288 11.95 3.875 12.918Z" fill="#cccccc"/></svg>