<svg
  width="21"
  height="15"
  viewBox="0 0 21 15"
  fill="none"
  xmlns="http://www.w3.org/2000/svg"
>
  <path
    d="m14.293 8.371 4.31 3.572.583.502a4.79 4.79 0 0 0 .91-2.815V5.536c0-.512-.101-.993-.245-1.454l-.46.338-5.097 3.961v-.01ZM1.786 3.192 8.07 8.084a3.334 3.334 0 0 0 4.084 0l6.305-4.902.686-.502a4.826 4.826 0 0 0-3.92-2.016H5a4.816 4.816 0 0 0-3.88 1.965l.676.563h-.01ZM17.61 13.11l-4.565-3.787a4.88 4.88 0 0 1-2.928.993 4.91 4.91 0 0 1-2.937-.993l-5.077 4.186a4.805 4.805 0 0 0 2.886.973h10.236a4.816 4.816 0 0 0 2.866-.952l-.481-.42ZM.823 4.39l-.43-.359a4.82 4.82 0 0 0-.255 1.495V9.62c0 1.044.337 2.006.9 2.804l.594-.48L5.931 8.37.813 4.39h.01Z"
    fill="currentColor"
  />
</svg>
