<svg
  width="16"
  height="16"
  viewBox="0 0 16 16"
  fill="none"
  xmlns="http://www.w3.org/2000/svg"
>
  <path
    d="M6.667 0a1.333 1.333 0 1 0 0 2.667 1.333 1.333 0 0 0 0-2.667Zm4.889.889a1.778 1.778 0 1 0 0 3.556 1.778 1.778 0 0 0 0-3.556ZM2.222 2.667a1.333 1.333 0 1 0 0 2.666 1.333 1.333 0 0 0 0-2.666Zm11.556 3.555a2.222 2.222 0 1 0 0 4.445 2.222 2.222 0 0 0 0-4.445Zm-12.445.89a1.333 1.333 0 1 0 0 2.666 1.333 1.333 0 0 0 0-2.667Zm1.334 5.332a.889.889 0 1 0 0 1.778.889.889 0 0 0 0-1.778Zm8.889 0a.889.889 0 1 0 0 1.778.889.889 0 0 0 0-1.778ZM7.11 14.222a.889.889 0 1 0 0 1.778.889.889 0 0 0 0-1.778Z"
    fill="currentColor"
  />
</svg>
