<svg
  width="17"
  height="15"
  viewBox="0 0 17 15"
  fill="none"
  xmlns="http://www.w3.org/2000/svg"
>
  <path
    d="M15.732.454c-.266-.226-.684-.258-1.116-.084C14.16.552 1.748 5.876 1.243 6.093c-.092.032-.895.332-.812.999.074.601.719.85.797.88l3.156 1.08c.21.696.981 3.268 1.152 3.817.106.342.28.792.584.885.267.103.532.009.704-.126l1.929-1.79 3.114 2.43.074.044a1.5 1.5 0 0 0 .608.14c.15 0 .293-.028.43-.084.466-.192.653-.636.672-.687L15.98 1.59c.141-.646-.056-.974-.247-1.136Zm-8.564 9.03-1.065 2.838L5.04 8.774l8.16-6.032-6.031 6.742Z"
    fill="currentColor"
  />
</svg>
