<svg
  width="18"
  height="18"
  viewBox="0 0 18 18"
  fill="none"
  xmlns="http://www.w3.org/2000/svg"
>
  <path
    d="M14.703 3.025A8.404 8.404 0 0 0 8.025.58C4.638.852 1.67 3.208.676 6.457c-.71 2.322-.411 4.746.744 6.748L.325 16.84a.466.466 0 0 0 .566.584l3.806-1.02a8.433 8.433 0 0 0 4.032 1.027h.003c3.544 0 6.819-2.168 7.952-5.526 1.103-3.274.287-6.609-1.981-8.88Zm-1.841 8.977c-.176.493-1.037.968-1.424 1.002-.387.036-.75.175-2.53-.527-2.143-.845-3.497-3.042-3.601-3.182-.106-.141-.861-1.143-.861-2.18 0-1.038.545-1.548.738-1.759a.774.774 0 0 1 .563-.263c.14 0 .281 0 .404.005.15.006.316.013.474.364.188.417.598 1.46.65 1.565.052.106.088.23.018.37-.07.14-.106.228-.21.351-.106.123-.222.275-.317.37-.105.104-.215.219-.093.43.124.21.546.9 1.173 1.459.806.718 1.484.94 1.696 1.047.21.105.333.088.457-.053.123-.14.527-.615.667-.827.14-.21.281-.175.475-.105.193.07 1.23.58 1.44.686.212.105.352.158.404.245.053.088.053.51-.123 1.002Z"
    fill="currentColor"
  />
</svg>
